<?xml version="1.0" encoding="utf-8"?>
<!-- Generator: Adobe Illustrator 26.5.0, SVG Export Plug-In . SVG Version: 6.00 Build 0)  -->
<svg version="1.1" id="Capa_1" xmlns="http://www.w3.org/2000/svg" xmlns:xlink="http://www.w3.org/1999/xlink" x="0px" y="0px"
	 viewBox="0 0 250 250" style="enable-background:new 0 0 250 250;" xml:space="preserve">
<style type="text/css">
	.st0{fill:#EA6852;}
	.st1{fill:#FFFFFF;}
</style>
<circle class="st0" cx="125" cy="125" r="125"/>
<g>
	<path class="st1" d="M203.6,78.1c-5.2-1.3-27.4-1.7-42-1.2c-0.2,0-25.4,0.9-36.6,0.9c-11.3,0-36.4-1.1-36.6-1.1
		c-14.5-0.7-36.8-0.4-42,0.8c-1.4,0.3-1.5,3.8-1.4,6.1c0.1,1,0.7,1.9,1.6,2.4c8.2,4.1,0.5,25.9,14.7,34.9c7,4.5,40.1,6.9,47.2-1.8
		c11.8-14.5,6.2-33,16.5-32.9c10.2,0,4.5,18.5,16.2,33.1c7,8.8,40.2,6.6,47.2,2.2c14.2-9,6.8-30.8,14.9-34.8
		c0.9-0.4,1.5-1.3,1.6-2.4C205.1,81.9,205,78.4,203.6,78.1z M105.4,116.3c-5.5,6.5-27,6-40.7,2.4c-7.8-2-8.3-20.2-9.7-29.2
		c-1-6.6,8.3-7,19.3-7.3c16.2-0.4,32,0,36.9,1.6C118.8,86.3,109.8,111.1,105.4,116.3z M195,90c-1.4,9-2.1,27.2-9.9,29.1
		c-13.8,3.5-35.3,3.9-40.7-2.7c-4.3-5.2-13.2-30.1-5.5-32.5c4.9-1.6,20.7-1.9,36.9-1.4C186.8,82.9,196,83.5,195,90z"/>
	<path class="st1" d="M173.4,149.6c4,2.7,5.7,10.3-0.4,13.2c-5.7,2.6-14.1-2.9-22.3-15.9c-7.6-12.1-13.9-5.8-24.2-4.8
		c-10.3-1-16.6-7.3-24.2,4.8c-8.2,13-16.6,18.5-22.3,15.9c-6.2-2.9-4.5-10.4-0.4-13.2c0,0-9.9,4.3-7.5,15.1
		c3.6,16.3,43.8,9.2,54.5-10.3c10.6,19.5,50.8,26.6,54.5,10.3C183.3,154,173.4,149.6,173.4,149.6z"/>
</g>
</svg>
