<?xml version="1.0" encoding="utf-8"?>
<!-- Generator: Adobe Illustrator 26.5.0, SVG Export Plug-In . SVG Version: 6.00 Build 0)  -->
<svg version="1.1" id="Capa_1" xmlns="http://www.w3.org/2000/svg" xmlns:xlink="http://www.w3.org/1999/xlink" x="0px" y="0px"
	 viewBox="0 0 250 250" style="enable-background:new 0 0 250 250;" xml:space="preserve">
<style type="text/css">
	.st0{fill:#00C1DE;}
	.st1{fill:#FFFFFF;}
	.st2{fill:#EA6852;}
</style>
<g>
	<circle class="st0" cx="125" cy="125" r="125"/>
	<g>
		<path class="st1" d="M191.1,57.2h0.9c1.1,0,2-0.4,2-1.4c0-0.8-0.5-1.4-2-1.4c-0.4,0-0.8,0-1,0V57.2z M191.1,62h-1.5v-8.5
			c0.7-0.1,1.4-0.2,2.6-0.2c1.4,0,2.2,0.3,2.8,0.7c0.5,0.4,0.8,1,0.8,1.8c0,1.1-0.7,1.8-1.6,2v0.1c0.7,0.1,1.2,0.8,1.4,2.1
			c0.2,1.3,0.4,1.8,0.5,2.1h-1.6c-0.2-0.3-0.4-1.1-0.5-2.2c-0.2-1-0.7-1.4-1.8-1.4h-0.9V62z M192.5,51.2c-3.4,0-6.1,2.8-6.1,6.4
			c0,3.5,2.7,6.4,6.1,6.4c3.4,0,6.1-2.8,6.1-6.4C198.6,54.1,195.9,51.2,192.5,51.2L192.5,51.2z M192.5,49.9c4.2,0,7.6,3.4,7.6,7.6
			c0,4.3-3.4,7.7-7.6,7.7c-4.3,0-7.7-3.4-7.7-7.7C184.8,53.3,188.2,49.9,192.5,49.9L192.5,49.9z"/>
		<path class="st1" d="M83.1,186.6l-1.3-7.6c-0.4-2.2-0.8-5.6-1.2-8h-0.1c-0.4,2.4-0.9,5.9-1.3,8l-1.4,7.6H83.1z M77.1,191.6
			l-1.7,8.4h-6.1l7.7-35h7.5l7,35h-6.2l-1.6-8.4H77.1z"/>
		<path class="st1" d="M105.5,184.3c0-0.5,0-1-0.1-1.5c-0.2-1.7-1.2-3.3-2.6-3.3c-2.5,0-3.5,3.7-3.5,7.9c0,4.9,1.3,7.7,3.4,7.7
			c0.9,0,2-0.5,2.6-2.5c0.1-0.4,0.2-1,0.2-1.6V184.3z M111.8,164v28.7c0,2.3,0.1,5.1,0.2,7.3h-5.4l-0.4-2.9h-0.1
			c-0.9,1.8-2.9,3.3-5.3,3.3c-5.2,0-7.8-5.8-7.8-13c0-8.9,3.9-13.2,8.1-13.2c2.2,0,3.6,1.1,4.3,2.6h0.1V164H111.8z"/>
		<path class="st1" d="M124.9,195.5c2.4,0,3-4.5,3-8.3c0-3.6-0.6-8.2-3.1-8.2c-2.7,0-3.2,4.6-3.2,8.2
			C121.6,191.6,122.3,195.5,124.9,195.5L124.9,195.5z M124.8,200.4c-5.8,0-9.5-4.7-9.5-13c0-9.1,4.7-13.2,9.6-13.2
			c5.7,0,9.3,4.9,9.3,13C134.3,197.7,128.6,200.4,124.8,200.4L124.8,200.4z"/>
		<path class="st1" d="M144.1,190.9c0,0.6,0.1,1.2,0.2,1.6c0.6,2.1,1.7,2.6,2.6,2.6c2.4,0,3.4-3.1,3.4-8c0-4.5-1-7.6-3.4-7.6
			c-1.2,0-2.2,1.3-2.6,2.7c-0.1,0.4-0.2,1.1-0.2,1.6V190.9z M137.8,164h6.3v13.2h0.1c1.2-2,2.9-3.1,5.3-3.1c4.8,0,7.1,5.4,7.1,12.5
			c0,8.9-3.6,13.7-8.2,13.7c-2.2,0-3.7-1-5-3.4h-0.1l-0.4,3h-5.4c0.1-2.1,0.2-5,0.2-7.3V164z"/>
		<path class="st1" d="M171.8,184.9c0-3.6-1-6.1-3-6.1c-2.3,0-3.3,3.3-3.3,6.1H171.8z M165.4,189.3c0.1,4.6,2.5,6.1,5.5,6.1
			c1.9,0,3.5-0.4,4.7-0.9l0.8,4.5c-1.7,0.7-4.3,1.2-6.7,1.2c-6.8,0-10.5-4.6-10.5-12.5c0-8.5,4.3-13.6,9.9-13.6
			c5.4,0,8.4,4.5,8.4,11.8c0,1.7-0.1,2.6-0.2,3.4L165.4,189.3z"/>
		<polygon class="st2" points="137.2,49.6 177.6,49.6 177.6,146.2 		"/>
		<polygon class="st2" points="108.8,49.6 68.4,49.6 68.4,146.2 		"/>
		<polygon class="st2" points="123,85.2 148.7,146.2 131.9,146.2 124.2,126.8 105.4,126.8 		"/>
	</g>
</g>
</svg>
