<?xml version="1.0" encoding="utf-8"?>
<!-- Generator: Adobe Illustrator 26.5.0, SVG Export Plug-In . SVG Version: 6.00 Build 0)  -->
<svg version="1.1" id="Capa_1" xmlns="http://www.w3.org/2000/svg" xmlns:xlink="http://www.w3.org/1999/xlink" x="0px" y="0px"
	 viewBox="0 0 62 39.5" style="enable-background:new 0 0 62 39.5;" xml:space="preserve">
<style type="text/css">
	.st0{fill:#FFFFFF;}
</style>
<path class="st0" d="M61.7,20.8l0.1-0.1c0-0.1,0.1-0.1,0.1-0.2s0-0.1,0.1-0.2c0-0.1,0-0.1,0-0.2c0-0.2,0-0.5,0-0.7
	c0-0.1,0-0.1,0-0.2s0-0.1-0.1-0.2c0-0.1-0.1-0.1-0.1-0.2c0,0,0-0.1-0.1-0.1c-0.1-0.1-0.1-0.2-0.2-0.3L43.6,0.6
	c-0.7-0.7-1.9-0.7-2.7,0c-0.7,0.7-0.7,1.9,0,2.7l14.6,14.6H1.9c-1,0-1.9,0.8-1.9,1.9c0,1,0.8,1.9,1.9,1.9h53.7L40.9,36.2
	c-0.7,0.7-0.7,1.9,0,2.7c0.4,0.4,0.8,0.6,1.3,0.6s1-0.2,1.3-0.6l17.8-17.8l0,0C61.5,21,61.6,20.9,61.7,20.8z"/>
</svg>
