<?xml version="1.0" encoding="utf-8"?>
<!-- Generator: Adobe Illustrator 26.5.0, SVG Export Plug-In . SVG Version: 6.00 Build 0)  -->
<svg version="1.1" id="Capa_1" xmlns="http://www.w3.org/2000/svg" xmlns:xlink="http://www.w3.org/1999/xlink" x="0px" y="0px"
	 viewBox="0 0 44.7 44.7" style="enable-background:new 0 0 44.7 44.7;" xml:space="preserve">
<style type="text/css">
	.st0{fill:#6BCAD6;}
</style>
<g>
	<path class="st0" d="M44.7,22.4c0,12.4-10.2,22.6-22.7,22.3C9.9,44.5,0,34.6,0,22.3C0.1,9.9,10.3-0.2,22.8,0
		C34.9,0.3,44.7,10.2,44.7,22.4z M43,22.4c0-11.5-9.4-20.8-20.9-20.7c-11.3,0.1-20.6,9.5-20.4,21C1.9,33.9,11,43,22.3,43
		C33.6,43.1,43,33.9,43,22.4z"/>
	<path class="st0" d="M6.9,12.5c0.1,0,0.2,0,0.3,0c3,0,6,0,9,0c1,0,2,0.1,2.9,0.5c1.8,0.7,2.7,2,2.9,3.9c0.1,0.7,0,1.5-0.2,2.2
		c-0.3,1-0.9,1.7-1.8,2.1c-0.1,0.1-0.2,0.1-0.3,0.2c0.1,0.1,0.3,0.1,0.4,0.2c1.5,0.7,2.3,1.9,2.5,3.5c0.2,1.7-0.2,3.3-1.3,4.7
		c-0.9,1-2,1.6-3.3,1.8c-0.8,0.1-1.6,0.2-2.4,0.2c-2.8,0-5.7,0-8.5,0c-0.1,0-0.1,0-0.2,0C6.9,25.4,6.9,19,6.9,12.5z M10.7,28.4
		c0.1,0,0.1,0,0.2,0c1.6,0,3.1,0,4.7,0c0.4,0,0.9-0.1,1.3-0.2c0.7-0.2,1.3-0.7,1.5-1.4c0.2-0.6,0.2-1.1,0.1-1.7
		c-0.1-0.7-0.5-1.3-1.2-1.5c-0.5-0.2-1-0.3-1.5-0.3c-1.7,0-3.3,0-5,0c0,0-0.1,0-0.1,0C10.7,25,10.7,26.7,10.7,28.4z M10.7,20.1
		c0.1,0,0.1,0,0.2,0c1.5,0,3,0,4.5,0c0.5,0,1.1-0.1,1.6-0.3c0.5-0.2,1-0.5,1.1-1.1c0.1-0.5,0.2-1,0-1.5c-0.2-0.6-0.5-1-1.2-1.2
		c-0.6-0.1-1.2-0.2-1.8-0.2c-1.4,0-2.8,0-4.2,0c-0.1,0-0.1,0-0.2,0C10.7,17.3,10.7,18.7,10.7,20.1z"/>
	<path class="st0" d="M37.9,25.7c-3.5,0-6.9,0-10.4,0c0,0.5,0.1,1,0.3,1.5c0.5,1.3,1.6,2,3.1,2c0.7,0,1.3-0.1,1.9-0.4
		c0.4-0.3,0.7-0.6,1-1c0-0.1,0.1-0.1,0.2-0.1c1.2,0,2.4,0,3.5,0c0,0,0.1,0,0.1,0c-0.1,0.5-0.2,0.9-0.5,1.4c-1.1,1.8-2.7,2.9-4.7,3.2
		c-1.4,0.2-2.7,0.2-4-0.3c-1.6-0.5-3-1.4-3.8-2.9c-0.5-0.9-0.7-1.9-0.8-3c-0.1-1.3-0.1-2.6,0.3-3.9c0.7-2.6,2.7-4.4,5.4-4.8
		c1.5-0.2,2.9-0.1,4.3,0.4c1.9,0.8,3.1,2.2,3.7,4.2c0.3,0.9,0.3,1.9,0.4,2.9C37.9,25.1,37.9,25.4,37.9,25.7z M34,23.2
		c0-1.7-1.2-2.9-3-3c-2.1-0.1-3.1,1.2-3.4,3C29.7,23.2,31.8,23.2,34,23.2z"/>
	<path class="st0" d="M26.4,13.6c2.8,0,5.5,0,8.3,0c0,0.6,0,1.3,0,1.9c-2.8,0-5.5,0-8.3,0C26.4,14.9,26.4,14.3,26.4,13.6z"/>
</g>
</svg>
