<?xml version="1.0" encoding="utf-8"?>
<!-- Generator: Adobe Illustrator 26.5.0, SVG Export Plug-In . SVG Version: 6.00 Build 0)  -->
<svg version="1.1" id="Capa_1" xmlns="http://www.w3.org/2000/svg" xmlns:xlink="http://www.w3.org/1999/xlink" x="0px" y="0px"
	 viewBox="0 0 250 250" style="enable-background:new 0 0 250 250;" xml:space="preserve">
<style type="text/css">
	.st0{fill:#EA6852;}
	.st1{fill:#FFFFFF;}
</style>
<circle class="st0" cx="125" cy="125" r="125"/>
<g>
	<g>
		<path class="st1" d="M125.1,192c-19.7,0-34.9-5.3-45.7-15.8c-10.7-10.5-16.1-25.2-16.1-44.1v-14.4c0-19,5.4-33.7,16.1-44.2
			c10.7-10.4,26-15.7,45.7-15.7S160,63,170.7,73.5c10.7,10.4,16,25.2,16,44.2v14.4c0,18.9-5.3,33.6-16,44.1
			C160,186.8,144.8,192,125.1,192z M125.1,180.5c15.8,0,27.7-4.1,35.9-12.2c8.1-8.1,12.2-20,12.2-35.7v-15.3
			c0-15.7-4.1-27.5-12.2-35.6c-8.1-8.1-20.1-12.1-35.9-12.1c-15.9,0-28,4-36.1,12.1c-8.2,8.1-12.3,19.9-12.3,35.6v15.3
			c0,15.7,4.1,27.6,12.3,35.7C97.1,176.4,109.2,180.5,125.1,180.5z M114.2,158h-12.5V89.8h12.5v36.9v4.3V158z M153.4,158h-13
			l-1.8-12.1c-0.8-4.7-2.2-8-4.1-9.9c-1.9-1.8-4.9-2.8-9.1-2.8h-15.1v-10h17.8c4,0,6.9-0.9,8.7-2.8s2.7-4.6,2.7-8v-1.8
			c0-3.3-0.9-5.9-2.6-7.8c-1.7-1.9-4.7-2.8-8.8-2.8H110V89.8h19.8c7.7,0,13.4,1.6,16.9,4.8c3.6,3.2,5.3,8,5.3,14.4v1.4
			c0,4.5-1.2,8.1-3.6,10.9c-2.4,2.7-6.2,4.4-11.4,5l-0.2,1.6l-2.5-1.6c5.7,0.5,9.6,2.1,11.8,5c2.2,2.8,3.8,7.2,4.7,13L153.4,158z"/>
	</g>
</g>
</svg>
