<?xml version="1.0" encoding="utf-8"?>
<!-- Generator: Adobe Illustrator 26.5.0, SVG Export Plug-In . SVG Version: 6.00 Build 0)  -->
<svg version="1.1" id="Capa_1" xmlns="http://www.w3.org/2000/svg" xmlns:xlink="http://www.w3.org/1999/xlink" x="0px" y="0px"
	 viewBox="0 0 250 250" style="enable-background:new 0 0 250 250;" xml:space="preserve">
<style type="text/css">
	.st0{fill:#EA6852;}
	.st1{fill:#FFFFFF;}
</style>
<circle class="st0" cx="125" cy="125" r="125"/>
<g>
	<path class="st1" d="M119.2,206.4c-2,0-3.8-0.5-5.4-1.5c-2.6-1.6-4.6-4.5-5.6-8.4c-0.7-2.7-0.8-5.1-0.8-5.2c0-0.9,0.4-1.8,1.2-2.3
		c0.7-0.5,1.7-0.6,2.6-0.3c0,0,4.3,1.6,8.9,2.9c2.7,0.8,4.8,1.2,6.3,1.5c-1.8-0.7-4-1.3-6.3-2c-4.2-1.3-8.6-2.7-12.1-4.3
		c-2.1-1-3.6-2-4.7-3.2c-2-2-2.3-4-2.2-5.3c0,0,0,0,0-0.1c0.1-1,0.6-2,1.5-2.5c2.3-1.5,5.8-0.5,16.1,2.8c3.7,1.2,7.5,2.5,10.8,3.3
		c0.7,0.2,1.4,0.3,1.9,0.4c-0.3-0.1-0.7-0.3-1.1-0.5c-2.8-1.1-6.3-2.2-9.9-3.3c-4.4-1.4-9-2.8-12.5-4.4c-3.4-1.5-7.3-3.7-7.2-7.3
		c0-1.3,0.7-2.4,1.7-3.2c1.7-1.2,4.4-1.2,9.1-0.1c3.4,0.8,7.5,2.1,11.5,3.4c3.6,1.2,7.4,2.4,10.5,3.1c1.5,0.4,2.6,0.6,3.4,0.7
		c-0.5-0.3-1.2-0.6-2.1-0.9c-2.4-0.9-5.6-1.9-9-2.8c-6.8-2-14.5-4.2-19.6-7.7c-3.1-2.1-5-4.5-6.1-7.4c-0.9-2.6-1.1-5.3-1.3-8.2
		c-0.3-5-0.7-11.3-5.4-20.1c-6.5-8.1-10.9-16.5-13.1-24.9c-2.1-8.1-2.1-15.9,0-23.3c1.9-6.8,5.5-12.8,10.6-17.9s11.4-9,18.9-11.7
		l0,0c3.3-1.2,7.2-1.9,11.3-2.2c4.7-0.3,9.5,0.1,14.1,1.1c11.5,2.5,21.1,8.9,27.8,18.5l0,0c4,5.8,6.6,11.7,7.8,17.6
		c1.1,5.5,1.1,11-0.3,16.5c-2.2,9.3-7.9,18.5-17.4,28c-0.1,0.2-1.8,2-3.9,5.9c-2,3.7-4.8,10.2-6.7,19.7c-0.1,0.6-1,4.7-4.3,7.1
		c-3.3,2.7-8.4,3-13.3,1c-0.5-0.2-1.7-0.7-2.9-1.7c-2-1.7-3.1-4-3.2-6.7l0,0c0-0.2-0.3-20.4-0.3-28.4c0-2.2-3.1-4.7-5.9-6.9
		c-1.6-1.3-3.2-2.6-4.5-4c-1.4-1.5-2.1-3.5-2-5.6c0-1.9,0.7-3.7,1.8-4.8l0.1-0.1c2.2-2,4.3-1.8,5.6-1.3c1.4,0.5,2.4,1.5,3.3,2.4
		c0.2,0.2,0.5,0.5,0.7,0.7c0.2-0.5,0.3-1.1,0.5-1.6c0.4-1.5,0.8-3.1,1.8-4.5c1.4-1.9,3.4-2.8,5.9-2.6c2.2,0.2,4,1.3,5,3.2
		c0.8,1.4,1,2.9,1.3,4.1c0,0.1,0,0.2,0.1,0.4c0.4-0.4,0.8-0.9,1.1-1.2c0.8-0.9,1.7-1.9,2.7-2.6c2.1-1.4,3.9-1.2,5-0.7l0,0
		c2.2,0.9,3.6,2.7,4,5c1,5.4-4.1,12.2-6.1,14.2c-4.3,4.4-11.1,5.8-11.3,5.8c-1.5,0.3-2.9-0.7-3.2-2.2c-0.3-1.5,0.7-2.9,2.2-3.2l0,0
		c0.1,0,5.4-1.1,8.5-4.3l0.1-0.1c1.8-1.7,5-6.8,4.6-9.3c-0.1-0.3-0.2-0.5-0.5-0.7c-0.5,0.3-1.3,1.2-1.8,1.8
		c-1.5,1.6-3.3,3.6-5.8,3.6c-0.2,0-0.4,0-0.6,0c-0.9-0.1-2.5-0.6-3.5-2.7c-0.4-0.9-0.6-1.9-0.7-2.8c-0.5-2.7-0.7-2.7-1.4-2.8
		c-0.6-0.1-0.8,0.1-0.9,0.3c-0.4,0.6-0.7,1.7-1,2.8c-0.3,1-0.5,2-1,2.9c-0.7,1.5-1.7,2.4-3.1,2.8c-0.9,0.3-2.4,0.4-4.1-0.6
		c-0.8-0.5-1.6-1.2-2.2-1.8c-0.3-0.3-0.9-0.9-1.2-1.1l-0.1,0.1c-0.2,0.4-0.5,1.8,0.4,2.9s2.3,2.2,3.8,3.4c3.7,3,7.9,6.4,7.9,11.2
		c0,7.8,0.3,27.6,0.3,28.3c0,1.1,0.4,1.9,1.2,2.6c0.6,0.5,1.2,0.7,1.2,0.7c0.1,0,0.2,0.1,0.2,0.1c3,1.3,6.1,1.2,7.9-0.2l0.1-0.1
		c1.4-1,2.1-3.1,2.2-3.8l0,0c4.1-19.9,11.7-27.9,12-28.3l0,0c18.9-19,21.8-36.6,9.2-55.1c-13-18.7-35.7-19.3-46.9-15.3
		c-13.2,4.8-22.7,14.2-26,26C81.6,90.6,86,106,97.7,120.5c0.1,0.1,0.2,0.3,0.3,0.4c5.5,10,5.9,17.3,6.2,22.6c0.3,5.5,0.5,8.2,5,11.4
		c4.4,3,11.6,5.1,18,6.9c8.3,2.4,14.3,4.1,16,7.8c0.6,1.3,0.7,2.8,0.1,4.2c-0.5,1.1-1.7,2.5-4.5,2.7c-1.3,0.1-2.9-0.1-5-0.6
		c-3.6-0.8-8.1-2.2-12.5-3.6c-3.6-1.2-7.4-2.4-10.4-3.1c-0.7-0.2-1.3-0.3-1.9-0.4c0.6,0.3,1.3,0.6,2.1,0.9c3.1,1.3,7.1,2.5,10.9,3.7
		c4.5,1.4,8.7,2.7,11.9,4.2c1.9,0.8,3.3,1.7,4.3,2.5c2.2,1.9,2.2,3.9,1.9,4.9c-0.3,1.1-1,2.1-2.1,2.7c-3.5,1.9-10.3-0.1-21.1-3.7
		c-2.6-0.9-5.1-1.7-7.2-2.3c0.2,0.1,0.4,0.2,0.7,0.4c3.1,1.5,7.3,2.8,11.3,4c3.3,1,6.4,2,8.8,3c1.5,0.6,2.5,1.3,3.3,1.9
		c1.8,1.6,1.9,3.2,1.7,4.1c-0.2,1.3-0.9,2.4-2.1,3.1c-0.8,0.5-1.9,0.9-4,0.9c-2.2,0-5.5-0.5-10.5-1.9c-1.9-0.5-3.7-1.1-5.2-1.6
		c0.6,1.9,1.5,3.8,3.1,4.8c1.9,1.1,4.7,0.8,8.3-1c1.4-0.7,3-0.1,3.7,1.2c0.7,1.4,0.1,3-1.2,3.7C124.4,205.6,121.7,206.4,119.2,206.4
		z"/>
</g>
</svg>
