<?xml version="1.0" encoding="utf-8"?>
<!-- Generator: Adobe Illustrator 26.5.0, SVG Export Plug-In . SVG Version: 6.00 Build 0)  -->
<svg version="1.1" id="Capa_1" xmlns="http://www.w3.org/2000/svg" xmlns:xlink="http://www.w3.org/1999/xlink" x="0px" y="0px"
	 viewBox="0 0 100 87.6" style="enable-background:new 0 0 100 87.6;" xml:space="preserve">
<style type="text/css">
	.st0{fill:#FFFFFF;}
</style>
<path class="st0" d="M89.4,23.8H72.9V10.6C72.9,4.8,68.1,0,62.3,0H10.6C4.8,0,0,4.8,0,10.6v26.8C0,43.2,4.8,48,10.6,48h16.5v13.2
	c0,5.8,4.8,10.6,10.6,10.6h10.7l0,15.8l14.8-15.8h26.2c5.8,0,10.6-4.8,10.6-10.6V34.4C100,28.6,95.2,23.8,89.4,23.8z M10.6,44.5
	c-4,0-7.2-3.2-7.2-7.2V10.6c0-4,3.2-7.2,7.2-7.2h51.7c4,0,7.2,3.2,7.2,7.2v13.2H37.7c-5.8,0-10.6,4.8-10.6,10.6v10.1H10.6z
	 M69.5,27.2v10.1c0,4-3.2,7.2-7.2,7.2H48.2v10.6l-9.9-10.6h-7.8V34.4c0-4,3.2-7.2,7.2-7.2H69.5z M96.6,61.2c0,4-3.2,7.2-7.2,7.2
	H61.7l-9.9,10.6l0-10.6H37.7c-4,0-7.2-3.2-7.2-7.2V48h6.3l14.8,15.8V48h10.7c5.8,0,10.6-4.8,10.6-10.6V27.2h16.5
	c4,0,7.2,3.2,7.2,7.2V61.2z"/>
</svg>
