<?xml version="1.0" encoding="utf-8"?>
<!-- Generator: Adobe Illustrator 26.5.0, SVG Export Plug-In . SVG Version: 6.00 Build 0)  -->
<svg version="1.1" id="Capa_1" xmlns="http://www.w3.org/2000/svg" xmlns:xlink="http://www.w3.org/1999/xlink" x="0px" y="0px"
	 viewBox="0 0 50 50" style="enable-background:new 0 0 50 50;" xml:space="preserve">
<style type="text/css">
	.st0{fill:#FFFFFF;}
</style>
<path class="st0" d="M30.9,25L48.8,7.1c1.6-1.6,1.6-4.3,0-5.9c-1.6-1.6-4.3-1.6-5.9,0L25,19.1L7.1,1.2c-1.6-1.6-4.3-1.6-5.9,0
	c-1.6,1.6-1.6,4.3,0,5.9L19.1,25L1.2,42.9c-1.6,1.6-1.6,4.3,0,5.9c1.6,1.6,4.3,1.6,5.9,0L25,30.9l17.9,17.9c1.6,1.6,4.3,1.6,5.9,0
	c1.6-1.6,1.6-4.3,0-5.9L30.9,25z"/>
</svg>
