<?xml version="1.0" encoding="utf-8"?>
<!-- Generator: Adobe Illustrator 26.5.0, SVG Export Plug-In . SVG Version: 6.00 Build 0)  -->
<svg version="1.1" id="Capa_1" xmlns="http://www.w3.org/2000/svg" xmlns:xlink="http://www.w3.org/1999/xlink" x="0px" y="0px"
	 viewBox="0 0 514.1 383.6" style="enable-background:new 0 0 514.1 383.6;" xml:space="preserve">
<style type="text/css">
	.st0{fill:#FFFFFF;}
</style>
<g>
	<path class="st0" d="M478.1,71.9H35.9C16.1,71.9,0,55.8,0,35.9v0C0,16.1,16.1,0,35.9,0h442.2c19.8,0,35.9,16.1,35.9,35.9v0
		C514.1,55.8,498,71.9,478.1,71.9z"/>
	<path class="st0" d="M478.1,227.7H35.9C16.1,227.7,0,211.6,0,191.8v0c0-19.8,16.1-35.9,35.9-35.9h442.2c19.8,0,35.9,16.1,35.9,35.9
		v0C514.1,211.6,498,227.7,478.1,227.7z"/>
	<path class="st0" d="M478.1,383.6H35.9C16.1,383.6,0,367.5,0,347.7v0c0-19.8,16.1-35.9,35.9-35.9h442.2c19.8,0,35.9,16.1,35.9,35.9
		v0C514.1,367.5,498,383.6,478.1,383.6z"/>
</g>
</svg>
