<?xml version="1.0" encoding="utf-8"?>
<!-- Generator: Adobe Illustrator 26.5.0, SVG Export Plug-In . SVG Version: 6.00 Build 0)  -->
<svg version="1.1" id="Capa_1" xmlns="http://www.w3.org/2000/svg" xmlns:xlink="http://www.w3.org/1999/xlink" x="0px" y="0px"
	 viewBox="0 0 43.8 44.7" style="enable-background:new 0 0 43.8 44.7;" xml:space="preserve">
<style type="text/css">
	.st0{fill:#6BCAD6;}
</style>
<path class="st0" d="M10.6,0c7.5,0,15.1,0,22.6,0c0.3,0,0.6,0.1,0.9,0.1c0.9,0.1,1.8,0.3,2.7,0.7c1.8,0.7,3.3,1.8,4.5,3.3
	c1.6,2,2.4,4.2,2.4,6.8c0,7.6,0,15.3,0,22.9c0,0.7-0.1,1.3-0.2,2c-0.2,1.3-0.7,2.6-1.5,3.7c-1.2,1.9-2.8,3.3-4.7,4.2
	c-1.5,0.7-3,1-4.6,1c-7.2,0-14.5,0-21.8,0c-1.2,0-2.3-0.2-3.5-0.5c-1.5-0.5-2.9-1.3-4.1-2.4c-0.9-0.9-1.7-1.8-2.2-3
	c-0.7-1.3-1.1-2.7-1.2-4.1C0,34.5,0,34.2,0,34c0-7.8,0-15.5,0-23.3c0-0.2,0-0.4,0.1-0.7c0.1-1,0.3-2,0.7-2.9c0.8-2,2-3.7,3.8-5
	c1.5-1.1,3.2-1.8,5-2C9.8,0.1,10.2,0,10.6,0z M40.4,22.4c0-3.1,0-6.3,0-9.4c0-0.4,0-0.9-0.1-1.3C40.2,10.8,40,9.8,39.5,9
	c-0.8-1.7-2-3.1-3.6-4.1c-1.4-0.9-3-1.4-4.6-1.4c-6.3,0-12.5,0-18.8,0c-0.5,0-1,0-1.5,0.1C8.6,4,6.6,5.3,5.1,7.4
	C3.9,9,3.4,10.8,3.4,12.8c0,6.3,0,12.7,0,19c0,0.5,0,1,0.1,1.5c0.2,1.5,0.7,2.8,1.6,4c1.9,2.6,4.5,3.9,7.7,3.9c6.1,0,12.2,0,18.3,0
	c0.6,0,1.2,0,1.8-0.2c1.5-0.3,2.9-0.9,4.1-1.9c2.3-1.9,3.5-4.3,3.5-7.2C40.4,28.8,40.4,25.5,40.4,22.4z M21.9,11.1
	c6,0,10.9,4.8,11.2,10.6c0.3,6.4-4.8,11.6-10.9,11.8c-6.2,0.2-11.3-4.8-11.5-10.9C10.5,16.4,15.6,11.1,21.9,11.1z M30.2,22.2
	c0-0.3,0-0.8-0.1-1.3c-0.2-1.5-0.8-2.8-1.8-3.9c-2-2.4-4.5-3.4-7.6-3c-2,0.3-3.6,1.2-4.9,2.7c-1.7,1.9-2.3,4.1-2.1,6.6
	c0.1,1.1,0.5,2.2,1,3.2c1.6,2.9,4.8,4.6,8.1,4.2c1.6-0.2,3-0.8,4.3-1.9C29.1,27.2,30.1,25,30.2,22.2z M30.2,10.7
	c0-2,1.6-3.4,3.5-3.4c1.8,0.1,3.3,1.5,3.2,3.4c0,1.9-1.6,3.3-3.4,3.3C31.8,14,30.2,12.6,30.2,10.7z"/>
</svg>
