<?xml version="1.0" encoding="utf-8"?>
<!-- Generator: Adobe Illustrator 26.5.0, SVG Export Plug-In . SVG Version: 6.00 Build 0)  -->
<svg version="1.1" id="Capa_1" xmlns="http://www.w3.org/2000/svg" xmlns:xlink="http://www.w3.org/1999/xlink" x="0px" y="0px"
	 viewBox="0 0 250 250" style="enable-background:new 0 0 250 250;" xml:space="preserve">
<style type="text/css">
	.st0{fill:#00C1DE;}
	.st1{fill:#004D71;}
	.st2{fill:#FFFFFF;}
	.st3{fill:#EA6852;}
</style>
<g>
	<circle class="st0" cx="125" cy="125" r="125"/>
	<g>
		<path class="st1" d="M143.5,101.4c0-10.2-8.3-18.5-18.5-18.5c-10.2,0-18.5,8.3-18.5,18.5c0,6.9,3.8,13,9.5,16.1l0.4-12.3
			c0-5,4.1-9.1,9.1-9.1h0.5c4,0,7.2,3.2,7.2,7.2V118C139.3,115,143.5,108.7,143.5,101.4z"/>
		<path class="st2" d="M133.1,103.4c0-4-3.2-7.2-7.2-7.2h-0.5c-5,0-9.1,4.1-9.1,9.1l-0.4,12.3l-0.9,27.1c-0.2,0.8-0.3,19.6-0.3,19.6
			c-1.6-1.6-3.4-3.5-5-5.3c-3.7-4.1-10.5-6.9-15.1-7.4c-2.4-0.3-4.2,0.1-5.4,1c-0.4,0.3-0.8,0.6-1.1,1c-2.3,2.3-4.1,6-2.5,8.8
			c0.7,1.2,1.9,2,3.2,2.8c1.7,1.1,4.6,2.3,6.8,5.1c3.6,4.6,12,15,17.2,20.5c1.1,0.7,3.3,2.9,4.4,3.5c3.3,2.1,5.9,4,6.8,5.1
			c0.7,0.8,5,3,5,3c3.4,2.2,9.7,4.2,17,4.2c7.2,0,13.8,0.4,18.6-3.8h0.3l0.1-0.3c4.9-4.5,8-10.8,8-17.7c0-1.7,0-8,0-9.2v-23.9
			c0-1.6-0.4-7.1-4.9-8.7c-2.2-0.8-4.3-0.5-6,0.3l-0.4,0l-0.1,0c-0.8-3-2.8-4.9-5.7-5.4c-3.6-0.6-6,0.4-7.5,1.5
			c-1.5-3.2-4.4-4.8-8.4-4.5c-3,0.3-5.2,1.7-6.8,3.7V118V103.4z"/>
		<path class="st2" d="M166.3,132.2l3.7,4.1c0.7,0.8,2,0.7,2.6-0.1c7.1-9.8,11-21.7,11-34.1c0-32.3-26.3-58.6-58.6-58.6
			c-2.2,0-4.5,0.1-6.7,0.4c-27,3-48.6,24.8-51.5,51.7c-1.6,14.7,2.3,29,10.6,40.6c0.6,0.9,1.9,0.9,2.6,0.1l3.7-4.1
			c0.5-0.6,0.6-1.4,0.1-2.1c-5.9-8.6-9-18.9-8.7-29.5c0.7-25.9,21.6-47.1,47.5-48.3c28.6-1.4,52.2,21.5,52.2,49.8
			c0,10.1-3.1,19.9-8.7,28.1C165.7,130.7,165.8,131.6,166.3,132.2z"/>
		<path class="st3" d="M149.8,113.8l3.9,4.3c0.8,0.9,2.2,0.7,2.8-0.4c2.5-4.9,3.7-10.2,3.7-15.8c0-16.6-11.8-31.1-28-34.5
			c-4.7-1-9.7-1-14.5,0c-16.2,3.4-28,17.9-28,34.5c0,5.6,1.3,10.9,3.7,15.8c0.5,1.1,2,1.3,2.8,0.4l3.9-4.3c0.4-0.5,0.5-1.2,0.3-1.8
			c-1.3-3.2-2-6.6-2-10c0-11.1,7-21.1,17.5-24.9c5.8-2.1,12.4-2.1,18.2,0c10.4,3.8,17.4,13.8,17.4,24.9c0,3.4-0.7,6.9-2,10
			C149.3,112.7,149.4,113.4,149.8,113.8z"/>
	</g>
</g>
</svg>
