<?xml version="1.0" encoding="utf-8"?>
<!-- Generator: Adobe Illustrator 26.5.0, SVG Export Plug-In . SVG Version: 6.00 Build 0)  -->
<svg version="1.1" id="Capa_1" xmlns="http://www.w3.org/2000/svg" xmlns:xlink="http://www.w3.org/1999/xlink" x="0px" y="0px"
	 viewBox="0 0 250 250" style="enable-background:new 0 0 250 250;" xml:space="preserve">
<style type="text/css">
	.st0{fill:#EA6852;}
	.st1{fill:#FFFFFF;}
</style>
<circle class="st0" cx="125" cy="125" r="125"/>
<path class="st1" d="M211.7,169c0,0-14.3,11.5-52.9-20.2c-38.6-31.8-30-7.9-37.4,1.6c-5.2,6.8-25.8-10.4-37.3-21.1l14.2-64
	c9.4,14.8,25.9,21,27.6,15.5c4.9-16.6,41.5-7.5,48.5,31C181.4,150.3,211.7,169,211.7,169z M54.8,239.4L95.7,56
	c0.5-2.1-0.8-4.1-2.8-4.5c-2.1-0.5-4.1,0.8-4.5,2.8L47.6,237.7c-0.5,2.1,0.8,4.1,2.8,4.5c0.3,0.1,0.5,0.1,0.8,0.1
	C52.9,242.3,54.4,241.1,54.8,239.4z"/>
</svg>
