<?xml version="1.0" encoding="utf-8"?>
<!-- Generator: Adobe Illustrator 26.5.0, SVG Export Plug-In . SVG Version: 6.00 Build 0)  -->
<svg version="1.1" id="Capa_1" xmlns="http://www.w3.org/2000/svg" xmlns:xlink="http://www.w3.org/1999/xlink" x="0px" y="0px"
	 viewBox="0 0 250 250" style="enable-background:new 0 0 250 250;" xml:space="preserve">
<style type="text/css">
	.st0{fill:#00C1DE;}
	.st1{clip-path:url(#SVGID_00000005232230255387995340000005476979195485725829_);}
	.st2{fill:#FFFFFF;stroke:#FFFFFF;stroke-width:2.8346;stroke-linecap:round;stroke-linejoin:round;stroke-miterlimit:10;}
	.st3{fill:#FFFFFF;}
</style>
<g>
	<circle class="st0" cx="125" cy="125" r="125"/>
	<g>
		<defs>
			<circle id="SVGID_1_" cx="125" cy="125" r="125"/>
		</defs>
		<clipPath id="SVGID_00000075852449749250349590000006472113607217613757_">
			<use xlink:href="#SVGID_1_"  style="overflow:visible;"/>
		</clipPath>
		<g style="clip-path:url(#SVGID_00000075852449749250349590000006472113607217613757_);">
			<path class="st2" d="M265.8,211.3c-0.2,0-0.4-0.2-0.4-0.4c0-0.2,0.2-0.4,0.4-0.4c13.1-0.1,25.9-0.1,39,0c0.2,0,0.4,0.2,0.4,0.4
				c0,0.2-0.2,0.4-0.4,0.4c0,0,0,0,0,0C291.7,211.2,278.9,211.2,265.8,211.3C265.8,211.3,265.8,211.3,265.8,211.3z"/>
			<path class="st2" d="M259.3,211.4L259.3,211.4c-104.3-0.1-210-0.1-314.2,0c-0.2,0-0.3-0.2-0.3-0.4c0-0.2,0.2-0.4,0.3-0.4
				c104.2-0.1,210-0.1,314.2,0c0.2,0,0.3,0.2,0.3,0.4C259.7,211.3,259.5,211.4,259.3,211.4z"/>
			<g>
				<path class="st2" d="M125.7,82.6c1.2,5.4,1,12,1,12l-4.9,1.9c0,0-3,12.2,15.8,8.5c3.6-0.7,14.2-8.7,14.2-8.7l-8.3-2.4
					c0,0-0.8-12.1-1.1-18.2C138,77.7,131,80.9,125.7,82.6z"/>
				<path class="st2" d="M131.3,106c-3.6,0-6.3-0.9-8-2.6c-2.7-2.8-1.8-6.8-1.7-7c0-0.1,0.1-0.2,0.2-0.3l4.6-1.8c0-1.2,0.1-7-1-11.6
					c0-0.2,0.1-0.4,0.2-0.4c5.4-1.7,13-5.2,16.6-6.9c0.1-0.1,0.2,0,0.3,0c0.1,0.1,0.2,0.2,0.2,0.3c0.3,5.5,1,16.1,1.1,17.9l8.1,2.3
					c0.1,0,0.2,0.1,0.3,0.3c0,0.1,0,0.3-0.1,0.4c-0.4,0.3-10.7,8.1-14.3,8.8C135.3,105.8,133.2,106,131.3,106z M122.2,96.7
					c-0.1,0.8-0.5,3.9,1.6,6.2c2.4,2.5,7,3.1,13.8,1.7c3-0.6,11.2-6.6,13.5-8.2l-7.6-2.2c-0.1,0-0.3-0.2-0.3-0.3
					c0-0.1-0.8-11.5-1.1-17.6c-3.7,1.7-10.7,4.9-15.9,6.6c1.2,5.3,1,11.7,1,11.7c0,0.1-0.1,0.3-0.2,0.3L122.2,96.7z M126.7,94.5
					L126.7,94.5L126.7,94.5z"/>
				<path class="st2" d="M114.2,48.8c-1.7,0.4-3.4-1.3-3.5-3.2s1.3-3.5,2.8-4.3c1.6-0.8,3.4-0.9,5.2-1.2c-0.7-1.8,0.2-3.9,1.7-5.1
					s3.4-1.4,5.2-1.2c1.2,0.1,2.4,0.5,3.3,1.3c0.9,0.8,1.6,2,1.5,3.4c1.6-2,4.2-3.3,6.6-2.8c2.4,0.6,4.2,3.5,4.4,5.6
					c1.2-1.4,2.7-2.6,4.5-2.5c3.6,0.2,4.4,3.3,2.8,7.2c1.9-0.9,4.8-0.1,5.7,2.7c0.7,2.1-0.1,5.4-1.5,7c-0.3,0.3-0.6,0.6-1.1,0.8
					c-0.6,3.1-1.3,6.3-2.3,10.4c-0.8,2.9-2.1,6.2-3.6,8.9c-0.7,1.3-1.3,1.9-2.8,2.6c-0.1-1.3-1.4-1.9-1.6-3.2
					c-0.3-1.6,0.7-2.9-0.2-4.3c-1.8-2.6-3-5.5-3.6-8.5c-0.5-2.4-0.5-5,0.7-7.2c0.4-0.8,1-1.5,1.7-2.2c-0.3-0.6-0.6-1.3-0.8-1.9
					c-1.1,1.8-1.8,3.1-4.5,3.9c-1.9,0.6-4.2-0.1-4.9-2c-0.4,1.9-3.3,4.5-5.1,4.7c-1.8,0.2-2.5-0.7-3.2-2.4c-1.6,1.4-2.8,2.9-4.5,3.5
					c-2.5,1-5.6-0.6-6.4-3.3C110.1,52.8,111.7,49.6,114.2,48.8z"/>
				<path class="st2" d="M143.2,78.7c-0.1,0-0.1,0-0.2-0.1c-0.1-0.1-0.2-0.2-0.2-0.3c0-0.5-0.4-1-0.7-1.4c-0.4-0.5-0.8-1-0.9-1.7
					c-0.1-0.7,0-1.3,0.1-1.9c0.1-0.8,0.3-1.5-0.2-2.3c-1.8-2.7-3.1-5.6-3.6-8.6c-0.6-3-0.3-5.4,0.7-7.5c0.4-0.8,0.9-1.5,1.6-2.1
					c-0.1-0.3-0.3-0.6-0.4-1c-0.9,1.4-1.8,2.6-4.3,3.4c-1.9,0.6-3.9,0-4.9-1.4c-0.9,1.9-3.4,3.9-5.1,4.1c-1.8,0.2-2.7-0.6-3.4-2.1
					c-0.3,0.2-0.5,0.5-0.8,0.7c-1.1,1-2.1,2-3.4,2.5c-1.3,0.5-2.7,0.4-4.1-0.3c-1.4-0.7-2.4-1.9-2.9-3.2c-0.7-2.4,0.3-5.1,2.3-6.5
					c-0.3-0.1-0.6-0.3-0.9-0.5c-0.9-0.7-1.5-1.8-1.5-2.9c0-1.8,1.2-3.7,3-4.6c1.3-0.7,2.9-0.9,4.3-1.1c0.2,0,0.4,0,0.6-0.1
					c-0.4-1.7,0.3-3.8,1.9-5c1.4-1.1,3.4-1.5,5.5-1.3c1.5,0.2,2.6,0.6,3.5,1.4c0.9,0.7,1.4,1.7,1.6,2.7c1.8-1.9,4.2-2.7,6.4-2.2
					c2.2,0.5,4.1,3,4.6,5.1c1.4-1.5,2.8-2.2,4.3-2.1c1.5,0.1,2.7,0.7,3.3,1.7c0.8,1.2,0.8,3.1,0.1,5.2c0.9-0.2,1.9-0.1,2.8,0.2
					c1.2,0.5,2.2,1.6,2.6,2.9c0.7,2.2,0,5.6-1.6,7.3c-0.2,0.3-0.6,0.5-1,0.8C151.7,60,151,63.3,150,67c-0.8,3-2.1,6.3-3.7,9
					c-0.7,1.3-1.3,2-2.9,2.7C143.3,78.6,143.3,78.7,143.2,78.7z M139.4,50.6C139.4,50.6,139.5,50.6,139.4,50.6
					c0.2,0,0.3,0.1,0.3,0.3c0.2,0.7,0.5,1.3,0.7,1.9c0.1,0.1,0,0.3-0.1,0.4c-0.7,0.6-1.2,1.3-1.6,2.1c-1,1.9-1.2,4.2-0.6,7
					c0.6,2.9,1.8,5.7,3.5,8.3c0.6,1,0.5,1.9,0.3,2.8c-0.1,0.5-0.2,1.1-0.1,1.7c0.1,0.5,0.4,0.9,0.7,1.4c0.3,0.4,0.6,0.8,0.8,1.3
					c1.1-0.6,1.6-1.2,2.2-2.2c1.5-2.6,2.8-5.8,3.6-8.8c1-3.7,1.7-7,2.3-10.3c0-0.1,0.1-0.2,0.2-0.3c0.4-0.2,0.7-0.5,1-0.7
					c1.4-1.6,2.1-4.7,1.5-6.6c-0.4-1.2-1.2-2-2.2-2.5c-1-0.4-2.1-0.4-3,0c-0.1,0.1-0.3,0-0.4-0.1c-0.1-0.1-0.1-0.3-0.1-0.4
					c0.9-2.2,1-4.1,0.3-5.3c-0.5-0.8-1.4-1.3-2.7-1.4c-1.4-0.1-2.9,0.7-4.2,2.4c-0.1,0.1-0.2,0.2-0.4,0.1c-0.1,0-0.2-0.2-0.3-0.3
					c-0.2-1.8-1.8-4.7-4.1-5.2c-2.1-0.5-4.5,0.5-6.2,2.6c-0.1,0.1-0.3,0.2-0.4,0.1c-0.1-0.1-0.2-0.2-0.2-0.4c0-1.1-0.5-2.3-1.4-3.1
					c-0.8-0.6-1.8-1-3.2-1.2c-2-0.2-3.7,0.2-5,1.1c-1.4,1.1-2.1,3.1-1.5,4.6c0,0.1,0,0.2,0,0.3c-0.1,0.1-0.2,0.2-0.3,0.2
					c-0.3,0-0.7,0.1-1,0.1c-1.5,0.2-2.8,0.4-4.1,1c-1.3,0.7-2.7,2.2-2.6,4c0,0.9,0.5,1.8,1.2,2.4c0.6,0.4,1.2,0.6,1.8,0.5
					c0.2,0,0.4,0.1,0.4,0.3c0.1,0.2-0.1,0.4-0.2,0.4c-2.4,0.7-3.9,3.8-3.1,6.2c0.4,1.2,1.3,2.2,2.5,2.8c1.1,0.6,2.4,0.6,3.5,0.2
					c1.2-0.4,2.1-1.3,3.2-2.4c0.4-0.3,0.7-0.7,1.1-1.1c0.1-0.1,0.2-0.1,0.3-0.1c0.1,0,0.2,0.1,0.3,0.2c0.7,1.7,1.2,2.3,2.8,2.2
					c1.7-0.2,4.4-2.7,4.8-4.4c0-0.2,0.2-0.3,0.3-0.3c0.2,0,0.3,0.1,0.4,0.2c0.6,1.7,2.8,2.3,4.4,1.7c2.6-0.8,3.3-2.1,4.3-3.8
					C139.2,50.7,139.3,50.6,139.4,50.6z"/>
				<path class="st2" d="M117,59.1c0-0.1,0-0.2,0-0.3c0.1,0,0.2-0.1,0.3-0.1c1.6-0.6,2.8-2.1,4.5-3.5c0.7,1.7,1.4,2.6,3.2,2.4
					c1.8-0.2,4.7-2.8,5.1-4.7c0.6,1.8,2.9,2.6,4.9,2c2.6-0.9,3.4-2.1,4.5-3.9c0.6,1.8,1.5,3.7,3.5,5.2c0.7,0.5,1.5,0.9,2.3,1.1
					c0,0.4,0.1,0.7,0.1,1c0.1,1.2,0.5,3.9,0.2,6.5c2.1-1.7,3.8-1.4,5-0.1c1.3,1.3,1.2,3.3-0.1,4.6c-1.2,1.3-3.4,1.8-5.4,1.3
					c-0.5,3.2-1.2,9.7-3.5,12.6c-2.4,3.1-6.6,5-11,5.1c-4.4,0.1-8.8-1.7-11.5-4.7c-3-3.4-3.7-7.8-3.5-12
					C115.9,67.4,117,63.3,117,59.1z"/>
				<path class="st2" d="M130.3,88.7c-4.4,0-8.8-1.8-11.5-4.8c-2.7-3-3.9-7.1-3.6-12.3c0.1-1.8,0.4-3.7,0.6-5.5
					c0.3-2.3,0.7-4.7,0.7-7c0-0.1,0-0.2,0-0.3c0-0.2,0.1-0.3,0.3-0.3c0.1,0,0.2-0.1,0.3-0.1c1.2-0.4,2.1-1.3,3.2-2.4
					c0.4-0.3,0.7-0.7,1.1-1.1c0.1-0.1,0.2-0.1,0.3-0.1c0.1,0,0.2,0.1,0.3,0.2c0.7,1.7,1.2,2.3,2.8,2.2c1.7-0.2,4.4-2.7,4.8-4.4
					c0-0.2,0.2-0.3,0.3-0.3c0.2,0,0.3,0.1,0.4,0.2c0.6,1.7,2.8,2.3,4.4,1.7c2.6-0.8,3.3-2.1,4.3-3.8c0.1-0.1,0.2-0.2,0.4-0.2
					c0.1,0,0.3,0.1,0.3,0.3c0.5,1.4,1.3,3.5,3.4,5c0.6,0.5,1.4,0.8,2.2,1c0.1,0,0.3,0.2,0.3,0.3c0,0.4,0.1,0.7,0.1,1l0,0.1
					c0.1,1.1,0.4,3.4,0.2,5.7c1.8-1.1,3.5-1,4.9,0.4c1.4,1.4,1.4,3.7-0.1,5.1c-1.2,1.2-3.3,1.8-5.3,1.5c0,0.2-0.1,0.5-0.1,0.7
					c-0.5,3.6-1.3,9-3.4,11.7c-2.5,3.1-6.8,5.1-11.3,5.2C130.5,88.7,130.4,88.7,130.3,88.7z M117.4,59.1
					C117.4,59.1,117.4,59.1,117.4,59.1C117.4,59.1,117.4,59.1,117.4,59.1c0,2.4-0.4,4.8-0.7,7.1c-0.3,1.8-0.5,3.6-0.6,5.4
					c-0.3,5,0.8,8.9,3.4,11.8c2.6,2.9,6.9,4.7,11.2,4.6c4.3-0.1,8.4-2,10.7-4.9c2-2.5,2.8-8,3.3-11.3c0.1-0.4,0.1-0.8,0.2-1.1
					c0-0.1,0.1-0.2,0.2-0.2c0.1-0.1,0.2-0.1,0.3-0.1c1.9,0.4,3.9-0.1,5-1.2c1.2-1.2,1.2-3,0.1-4.1c-1.3-1.3-2.8-1.3-4.5,0.2
					c-0.1,0.1-0.3,0.1-0.4,0c-0.1-0.1-0.2-0.2-0.2-0.4c0.3-2.6,0-5.2-0.2-6.4l0-0.1c0-0.2-0.1-0.5-0.1-0.8c-0.8-0.2-1.5-0.6-2.2-1.1
					c-1.9-1.4-2.8-3.1-3.4-4.6c-0.9,1.4-1.8,2.6-4.3,3.4c-1.9,0.6-3.9,0-4.9-1.4c-0.9,1.9-3.4,3.9-5.1,4.1c-1.8,0.2-2.7-0.6-3.4-2.1
					c-0.3,0.2-0.5,0.5-0.8,0.7C119.8,57.6,118.8,58.6,117.4,59.1C117.4,59.1,117.4,59.1,117.4,59.1z M117,59.1L117,59.1L117,59.1z"
					/>
				<path class="st2" d="M145.3,67.3C145.3,67.3,145.3,67.3,145.3,67.3c-0.2,0-0.4-0.2-0.4-0.4c0.2-1.1,0.2-1.7,0.3-2.9
					c0-0.2,0.2-0.4,0.4-0.3c0.2,0,0.3,0.2,0.3,0.4c-0.1,1.1-0.2,1.7-0.3,2.9C145.6,67.2,145.5,67.3,145.3,67.3z"/>
				<path class="st2" d="M70.9,131.5c-1.3,0-2.5-0.5-3.8-1.4c-2-1.5-3.9-5.3-4-6l0,0c-0.9-4.2-1.5-9.8-2.3-15.7
					c-1-8.3-2-16.8-3.7-22.7c-2.4-2.4-5.4-6.7-6.6-10.8c-0.5-1.7-0.4-2.5,0.7-3.6c0.6-0.6,1.6-0.7,2.4-0.5c-0.3-0.7-0.6-1.6,0.4-2.4
					c0.6-0.5,1.2-0.6,1.8-0.6c0.1-0.9,0.6-1.6,1.3-1.9c0.4-0.1,0.9-0.2,1.4,0c-0.7-1.8-1.4-3.7-2.3-5.6c-0.7-1.6-1.3-3.4-0.2-4.1
					c0.4-0.2,0.7-0.3,1.1-0.2c0.9,0.2,1.7,1.3,2.9,3.5l0,0.1c2.1,4,2.8,5.3,5.1,8.9c2.2,3.3,4.1,9.8,2.4,12.4
					c0.3,4.2,9.4,29.5,13.2,35.3c1.1,1.7,0.4,3-0.4,4.4c-0.3,0.5-0.6,1.1-0.9,1.7c-1.2,2.9-3.6,7.9-7.3,9
					C71.9,131.5,71.4,131.5,70.9,131.5z M52.9,71.5c-0.4,0-0.8,0.1-1,0.4c-0.9,0.9-0.9,1.4-0.5,2.9c1.1,4,4,8.2,6.4,10.6
					c0,0,0.1,0.1,0.1,0.2c1.7,6,2.7,14.6,3.7,22.9c0.7,5.9,1.4,11.4,2.2,15.6c0.1,0.5,1.9,4.2,3.7,5.5c1.6,1.2,3.1,1.5,4.6,1.1
					c3.4-1,5.8-5.8,6.9-8.6c0.3-0.7,0.6-1.3,0.9-1.8c0.8-1.3,1.3-2.3,0.4-3.6c-3.6-5.6-13.2-31.3-13.3-35.8c0-0.1,0-0.2,0.1-0.2
					c1.6-2.1,0-8.1-2.3-11.7c-2.4-3.6-3.1-5-5.2-9l0-0.1c-0.7-1.3-1.6-3-2.5-3.2c-0.2,0-0.4,0-0.5,0.1c-0.7,0.5,0.2,2.5,0.4,3.2
					c1,2.4,2,4.8,2.8,6.9c0.1,0.2,0,0.4-0.2,0.5c-0.2,0.1-0.4,0-0.5-0.1c-0.4-0.7-1.1-1-1.6-0.7c-0.5,0.2-1,0.8-0.8,1.7
					c0,0.1,0,0.3-0.2,0.4c-0.1,0.1-0.3,0.1-0.4,0c-0.5-0.3-1.1-0.1-1.5,0.3c-0.7,0.6-0.5,1-0.1,1.8c0.1,0.2,0.2,0.4,0.3,0.7
					c0.1,0.1,0,0.3-0.1,0.4c-0.1,0.1-0.3,0.1-0.4,0C53.9,71.6,53.3,71.5,52.9,71.5z"/>
				<path class="st2" d="M56.2,77.6c-0.3,0-0.6-0.1-0.9-0.3c-0.4-0.3-0.7-0.6-0.9-1l-1.1-1.5c-0.1-0.2-0.1-0.4,0.1-0.5
					c0.2-0.1,0.4-0.1,0.5,0.1l1.1,1.5c0.2,0.3,0.5,0.6,0.7,0.8c0.3,0.2,0.6,0.2,0.8,0.1c0.3-0.1,0.4-0.5,0.3-0.8
					c0-0.4-0.2-0.7-0.4-1.1c-0.7-1.3-0.8-1.5-1.4-2.2c-0.2-0.2-0.5-0.6-0.8-1c-0.1-0.2-0.1-0.4,0.1-0.5c0.2-0.1,0.4-0.1,0.5,0.1
					c0.3,0.4,0.6,0.7,0.8,1c0.6,0.7,0.8,0.9,1.5,2.3c0.2,0.4,0.4,0.9,0.4,1.4c0,0.6-0.3,1.2-0.7,1.4C56.6,77.5,56.4,77.6,56.2,77.6z
					"/>
				<path class="st2" d="M58.9,76.9c-0.4,0-0.8-0.2-1.2-0.5c-0.3-0.2-0.6-0.4-1-0.7c-0.2-0.1-0.2-0.4-0.1-0.5
					c0.1-0.2,0.4-0.2,0.5-0.1c0.3,0.2,0.6,0.5,0.9,0.7c0.3,0.2,0.6,0.4,0.9,0.3c0.3-0.1,0.5-0.5,0.5-1c0-0.7-0.6-2.3-3.4-6.5
					L56,68.6c-0.1-0.2-0.1-0.4,0.1-0.5c0.2-0.1,0.4-0.1,0.5,0.1l0.1,0.1c2.4,3.5,3.5,5.7,3.5,6.9c0,0.7-0.3,1.5-1,1.7
					C59.1,76.9,59,76.9,58.9,76.9z"/>
				<path class="st2" d="M60.8,79.8c-0.2,0-0.3-0.1-0.4-0.3c-0.5-1.8,0.6-3.3,1.3-4.4c0.3-0.4,0.7-1,0.6-1.2c-0.3-0.5-1.9-1-2.7-1.2
					c-0.5-0.1-0.7-0.2-0.8-0.3c-0.8-0.5-1.1-1.1-1.2-1.5c-0.1-0.3,0-0.7,0.2-0.9c0.2-0.3,1-0.9,1.5-1c0.9-0.1,2.9,0.4,4.7,0.9
					c0.2,0.1,0.4,0.1,0.6,0.2c0.7,0.2,2.6,1.3,2.6,2.2c0,0.2-0.1,0.4-0.3,0.4c-0.2,0-0.4-0.1-0.4-0.3c0-0.3-1.4-1.4-2.1-1.6
					c-0.2,0-0.4-0.1-0.6-0.2c-1.3-0.3-3.6-0.9-4.5-0.8c-0.2,0-0.8,0.4-1,0.7c0,0-0.1,0.1,0,0.3c0,0.2,0.2,0.6,0.9,1
					c0.1,0,0.4,0.1,0.6,0.2c1.4,0.4,2.7,0.9,3.1,1.6c0.3,0.5-0.1,1.2-0.7,2c-0.7,1-1.7,2.3-1.2,3.8C61.2,79.6,61.1,79.8,60.8,79.8
					C60.8,79.8,60.8,79.8,60.8,79.8z"/>
				<path class="st2" d="M60.9,70c-0.2,0-0.3-0.1-0.3-0.3c-0.1-0.4-0.6-1.1-0.9-1.7c-0.2-0.3-0.4-0.6-0.5-0.9
					c-0.1-0.2,0-0.4,0.1-0.5c0.2-0.1,0.4,0,0.5,0.1c0.1,0.2,0.3,0.5,0.5,0.8c0.4,0.7,0.9,1.5,1,1.9c0.1,0.2,0,0.4-0.2,0.5
					C61,70,60.9,70,60.9,70z"/>
				<path class="st2" d="M60.5,76c-0.2,0-0.4,0-0.5-0.1c-0.2-0.1-0.3-0.3-0.2-0.5c0.1-0.2,0.3-0.3,0.5-0.2c0.2,0.1,0.5,0,0.7-0.2
					c0.4-0.3,0.4-0.9,0.2-1.7c-0.1-0.2,0-0.4,0.2-0.5c0.2-0.1,0.4,0,0.5,0.2c0.5,1.5-0.1,2.2-0.4,2.4C61.2,75.9,60.8,76,60.5,76z"/>
				<path class="st2" d="M185.1,138.6c-2.6-13.7-2.6-28.4-13.7-37.6c-5.3-4.4-17.9-6.3-25.2-6.8c-0.5,7.1-7.4,8.8-11.9,8.5
					c-7.5-0.5-8.8-1.9-10.7-7.6c-1.7,0.7-11.7,1.2-18.3,7c-12.1,10.8-27,9.8-25.9,10.5c0.9,0.6-2.4,15.7-11.6,17.6
					c-4.9,1,22.2,5,40.8,0.1c-0.7,9.7,2.8,38.1,4.8,49c19.4,13.5,59.2-1.8,59.2-1.8s-3-9-3-15.7c0-3.4,7.9,4.1,9.4,4.4
					c0.5,0.1,2.1-1.1,2.3-1.5C182.7,161.5,187.5,151.3,185.1,138.6z"/>
				<path class="st2" d="M135.4,185.2c-8,0-16.1-1.4-22.2-5.6c-0.1-0.1-0.1-0.1-0.2-0.2c-2-10.9-5.4-38.5-4.8-48.6
					c-16.7,4.3-39.8,1.6-41.2,0.1c-0.1-0.1-0.2-0.3-0.1-0.5c0.1-0.3,0.5-0.4,0.8-0.5c4.5-0.9,7.4-5,9-8.3c2.1-4.2,2.6-8.1,2.4-8.6
					c-0.2-0.2-0.2-0.4-0.2-0.4c0.1-0.4,0.4-0.4,1.8-0.6c4.1-0.5,14.9-1.7,24.3-10.1c5.2-4.6,12.4-5.9,16.3-6.6
					c1-0.2,1.8-0.3,2.1-0.5c0.1,0,0.2,0,0.3,0c0.1,0,0.2,0.1,0.2,0.2c1.9,5.5,3,6.9,10.3,7.4c1.2,0.1,4.4,0.1,7.2-1.4
					c2.6-1.4,4.1-3.7,4.2-6.8c0-0.1,0.1-0.2,0.1-0.3c0.1-0.1,0.2-0.1,0.3-0.1c8.6,0.6,20.4,2.7,25.4,6.9c9.1,7.6,10.8,19,12.5,30.1
					c0.4,2.6,0.8,5.2,1.3,7.8c2.3,12.1-2,22-3.6,25.7c-0.1,0.2-0.1,0.3-0.2,0.5c-0.3,0.6-2,1.9-2.7,1.8c-0.6-0.1-1.6-0.9-3.3-2.1
					c-1.8-1.3-4.8-3.5-5.5-3.1c-0.1,0.1-0.2,0.3-0.2,0.5c0,6.6,3,15.5,3,15.6c0.1,0.2,0,0.4-0.2,0.5c-0.1,0-10.1,3.9-22.4,6
					C145.8,184.6,140.6,185.2,135.4,185.2z M113.7,179.1c9.9,6.8,25.3,6,36.5,4c11-1.9,20.1-5.1,21.9-5.8c-0.5-1.7-3-9.5-3-15.5
					c0-0.7,0.3-1,0.6-1.1c1.1-0.5,3.2,0.9,6.3,3.2c1.3,0.9,2.6,1.9,3,2c0,0,0,0,0,0c0.4,0,1.8-1,1.9-1.3c0.1-0.1,0.1-0.3,0.2-0.5
					c1.6-3.7,5.8-13.4,3.5-25.3c-0.5-2.6-0.9-5.2-1.3-7.8c-1.7-11.4-3.4-22.2-12.3-29.6c-4.8-4-16.2-6.1-24.7-6.7
					c-0.3,3.1-1.9,5.5-4.6,7c-3,1.6-6.3,1.6-7.6,1.5c-7.4-0.5-9-2-10.9-7.5c-0.4,0.1-1.1,0.2-1.9,0.4c-3.8,0.7-10.9,2-15.9,6.5
					c-9.5,8.5-20.5,9.8-24.7,10.2c-0.4,0-0.8,0.1-1.1,0.1c0.1,0.4,0.1,1-0.2,2.3c-0.9,4.7-4.5,14-11.8,15.5
					c3.3,1.2,24.9,3.5,40.6-0.6c0.1,0,0.2,0,0.3,0.1s0.1,0.2,0.1,0.3C108.3,139.8,111.7,167.9,113.7,179.1z"/>
				<path class="st2" d="M165.1,151c-0.2,0-0.3-0.1-0.3-0.3c-4-12-6.2-19.6-6.2-36c0-0.2,0.2-0.4,0.4-0.4s0.4,0.2,0.4,0.4
					c0,16.3,2.2,23.8,6.2,35.7c0.1,0.2,0,0.4-0.2,0.5C165.2,151,165.1,151,165.1,151z"/>
				<path class="st2" d="M108.6,130.7c-0.1,0-0.2,0-0.2-0.1c-0.2-0.2-0.2-0.4-0.2-2.8c0-1.8-0.1-4.8-0.2-9.4c0-0.2,0.2-0.4,0.4-0.4
					c0.2,0,0.4,0.2,0.4,0.4c0.2,4.6,0.2,7.6,0.2,9.4c0,1.3,0,2.2,0.1,2.4c0.1,0.1,0.1,0.3,0,0.4
					C108.8,130.6,108.7,130.7,108.6,130.7z M108.8,130C108.8,130,108.8,130,108.8,130C108.8,130,108.8,130,108.8,130z"/>
				<path class="st2" d="M166.1,151.7c-0.2,0-0.3-0.1-0.4-0.3c-2.7-9.8-4.5-20-5.4-30.1c0-0.2,0.1-0.4,0.3-0.4
					c0.2,0,0.4,0.1,0.4,0.3c0.9,10.1,2.7,20.1,5.4,29.9C166.5,151.4,166.4,151.6,166.1,151.7C166.2,151.7,166.1,151.7,166.1,151.7z"
					/>
				<path class="st2" d="M167.7,154.3c1.4-1.4,4.2-0.9,6,0c0.9,0.4,8,7,5.4,12.6c-2.3,4.8-3.7,6.6-15.6,24.2
					c-0.4,0.7-0.9,1.3-1.6,1.7c-2.1,1.3-4.9-0.7-5.8-3.1c-2-5,0.6-10.4,3.1-15.2C161.5,169.7,166.2,155.6,167.7,154.3z"/>
				<path class="st2" d="M160.4,193.5c-0.4,0-0.8-0.1-1.2-0.2c-1.5-0.5-2.9-1.9-3.6-3.5c-2.1-5.3,0.9-11.2,3.1-15.5
					c1.1-2.1,2.6-6.1,4.1-9.9c2.3-6,3.8-9.7,4.6-10.5l0,0c1.5-1.4,4.3-1.1,6.4-0.1c1.1,0.5,8.3,7.3,5.6,13.1
					c-1.8,3.8-3.1,5.7-9.4,15c-1.7,2.5-3.7,5.5-6.2,9.2c-0.4,0.6-0.9,1.4-1.7,1.9C161.5,193.4,161,193.5,160.4,193.5z M170.2,153.8
					c-0.9,0-1.7,0.2-2.2,0.7l0,0c-0.7,0.7-2.7,5.8-4.4,10.2c-1.5,3.8-3,7.8-4.1,10c-2.1,4.2-5,9.9-3,14.9c0.6,1.4,1.8,2.7,3.1,3.1
					c0.6,0.2,1.4,0.3,2.2-0.2c0.6-0.4,1.1-1.1,1.5-1.6c2.5-3.7,4.5-6.7,6.2-9.2c6.3-9.3,7.6-11.2,9.4-14.9
					c2.6-5.4-4.7-11.8-5.3-12.1C172.5,154.1,171.3,153.8,170.2,153.8z M167.7,154.3L167.7,154.3L167.7,154.3z"/>
				<path class="st2" d="M167.7,188.3c-1.5-0.1-3.2,0.3-3.8,1.7c-0.6,1.4-0.1,3.2,1,4.2c1.1,1,2.8,1.4,4.3,1
					c0.8-0.2,1.6-0.6,2.1-1.3c0.3-0.5,0.5-1.1,0.5-1.6C171.8,190.4,170.9,188.6,167.7,188.3z"/>
				<path class="st2" d="M116.7,211.3C116.7,211.3,116.7,211.3,116.7,211.3c-0.2,0-0.4-0.2-0.4-0.4c0.4-5.6-0.3-14.2-0.9-22.6
					c-0.3-3.9-0.6-7.5-0.8-10.8c0-0.2,0.1-0.4,0.3-0.4c0.2,0,0.4,0.1,0.4,0.3c0.2,3.3,0.5,6.9,0.8,10.8c0.7,8.4,1.4,17,0.9,22.7
					C117,211.1,116.9,211.3,116.7,211.3z"/>
			</g>
			<g>
				<path class="st2" d="M51.8,121.9c-1.2,5.4-1.3,12.8-1.3,12.8l3.1,1.3c0,0,3,12.2-15.8,8.5c-3.6-0.7-14.2-8.7-14.2-8.7l8.3-2.4
					c0,0,0.8-12.1,1.1-18.2C37.5,117.3,46.5,120.3,51.8,121.9z"/>
				<path class="st2" d="M44.3,145.6c-1.9,0-4.1-0.2-6.5-0.7c-3.7-0.7-13.9-8.5-14.3-8.8c-0.1-0.1-0.2-0.2-0.1-0.4
					c0-0.1,0.1-0.2,0.3-0.3l8.1-2.3c0.1-1.8,0.8-12.4,1.1-17.9c0-0.1,0.1-0.2,0.2-0.3c0.1-0.1,0.2-0.1,0.3,0
					c4.2,1.9,12.6,4.8,18.6,6.7c0.2,0.1,0.3,0.2,0.2,0.4c-1.1,4.7-1.2,11.2-1.3,12.5l2.9,1.2c0.1,0,0.2,0.1,0.2,0.3
					c0,0.2,1,4.2-1.7,7C50.6,144.7,47.9,145.6,44.3,145.6z M24.5,135.9c2.3,1.7,10.4,7.6,13.5,8.2c6.8,1.4,11.4,0.8,13.8-1.7
					c2.1-2.2,1.7-5.4,1.6-6.2l-3-1.2c-0.1-0.1-0.2-0.2-0.2-0.3c0-0.1,0-7.3,1.2-12.6c-5.7-1.8-13.6-4.5-17.9-6.4
					c-0.3,6.1-1.1,17.5-1.1,17.6c0,0.2-0.1,0.3-0.3,0.3L24.5,135.9z"/>
				<path class="st2" d="M42.6,76.9C34.2,76.6,26,82,26.7,86.4c-4-1.2-8.6,6.5-8.4,10.1c0.2,4.6,9.2,19.9,11.1,22.3
					c0.9,1.1,1.6,1.7,3.1,2.1c-0.1-1.3,1.1-2.1,1.1-3.4c0-1.6-2.1-4.3-0.4-4.3c7.9,0.2,6.9,2,22-12.7c1.9-1.9,3.2-6.4,3.6-9.8
					C59.2,87.5,56.8,77.5,42.6,76.9z"/>
				<path class="st2" d="M32.5,121.3c0,0-0.1,0-0.1,0c-1.7-0.5-2.4-1.1-3.3-2.3c-2-2.5-11-17.9-11.2-22.5c-0.1-2.8,2.3-7.3,4.9-9.4
					c1.2-0.9,2.4-1.3,3.5-1.2c0-1.3,0.6-2.6,1.8-3.9c2.5-2.8,8.2-5.7,14.6-5.5c5.9,0.2,10.6,2.2,13.5,5.6c2.5,2.9,3.3,6.6,3,8.7
					c-0.5,3.6-1.8,8.1-3.7,10c-13.6,13.2-14.3,13.2-20,12.9c-0.7,0-1.4-0.1-2.3-0.1c-0.2,0-0.2,0-0.2,0c-0.1,0.2,0.2,1.1,0.4,1.6
					c0.3,0.8,0.6,1.6,0.6,2.3c0,0.7-0.3,1.3-0.6,1.8c-0.3,0.5-0.6,1-0.5,1.5c0,0.1,0,0.2-0.1,0.3C32.6,121.3,32.6,121.3,32.5,121.3z
					 M25.8,86.7c-1,0-2,0.6-2.6,1.1c-2.7,2.1-4.7,6.5-4.6,8.8c0.2,4.5,9.1,19.6,11.1,22.1c0.7,0.9,1.3,1.4,2.5,1.9
					c0.1-0.5,0.3-1,0.6-1.4c0.3-0.5,0.5-0.9,0.5-1.5c0-0.5-0.3-1.3-0.6-2c-0.4-1-0.7-1.8-0.4-2.3c0.2-0.2,0.5-0.4,0.9-0.4
					c0.9,0,1.6,0.1,2.3,0.1c5.5,0.3,6.1,0.3,19.5-12.7c1.8-1.8,3.1-6.1,3.5-9.6c0.2-1.4-0.2-5-2.9-8.1c-2.8-3.3-7.2-5.1-13-5.3
					c-6.2-0.2-11.6,2.5-14,5.2c-1.2,1.3-1.7,2.6-1.6,3.8c0,0.1,0,0.2-0.1,0.3c-0.1,0.1-0.2,0.1-0.3,0.1
					C26.3,86.7,26.1,86.7,25.8,86.7z"/>
				<path class="st2" d="M55.7,98.2c0-0.1-2.9,0.3-5.3-3.2c-0.5,1.8-0.7,3.7-4.5,3.6c-1.8-0.1-4.5-3-5.2-4.8c0,0,4-1-13.3,6.6
					c0,0.4,0,0.7,0.1,1c0,1.2,0.1,3.9,0.8,6.5c-2.3-1.4-3.9-0.9-5,0.6c-1.1,1.5-0.7,3.5,0.7,4.5c1.4,1.1,3.7,1.2,5.5,0.6
					c1,3.1,2.6,9.5,5.3,12c2.8,2.7,7.3,4,11.6,3.5s8.5-3,10.7-6.3c2.5-3.8,2.6-8.3,1.7-12.4C58,106.3,56.3,102.4,55.7,98.2z"/>
				<path class="st2" d="M44.4,129.6c-3.8,0-7.5-1.3-9.9-3.7c-2.4-2.3-4-7.6-5-11.1c-0.1-0.2-0.1-0.5-0.2-0.7
					c-1.9,0.6-4.1,0.3-5.5-0.7c-1.6-1.2-2-3.5-0.8-5c1.2-1.6,2.8-2,4.8-1.1c-0.5-2.3-0.6-4.6-0.6-5.7l0-0.1c0-0.3,0-0.6,0-1
					c0-0.2,0.1-0.3,0.2-0.4c9.2-4.1,12.2-5.6,13.1-6.2c0,0,0,0,0,0c0-0.1,0-0.2,0-0.3c0-0.1,0.1-0.2,0.2-0.2c0.5-0.1,0.7,0,0.8,0.2
					c0.1,0.2,0.1,0.3-0.2,0.5c0.9,1.7,3.1,4,4.6,4.1c3.2,0.2,3.6-1.3,4-3L50,95c0-0.1,0.1-0.2,0.3-0.3c0.1,0,0.3,0,0.4,0.1
					c1.3,1.9,2.9,2.9,4.8,3c0.2,0,0.5,0,0.5,0.3l0,0c0.3,2.3,1,4.6,1.7,6.8c0.5,1.7,1.1,3.5,1.4,5.3c1.1,5.1,0.5,9.3-1.8,12.7
					c-2.3,3.4-6.5,5.9-10.9,6.5C45.8,129.6,45.1,129.6,44.4,129.6z M29.5,113.3c0.1,0,0.1,0,0.2,0c0.1,0,0.2,0.1,0.2,0.2
					c0.1,0.3,0.2,0.7,0.3,1.1c1,3.2,2.6,8.6,4.9,10.8c2.7,2.6,7.1,3.9,11.3,3.4c4.3-0.5,8.3-2.9,10.4-6.1c2.1-3.2,2.7-7.2,1.6-12.1
					c-0.4-1.8-0.9-3.5-1.4-5.3c-0.6-2.2-1.3-4.4-1.7-6.7c-1.9-0.2-3.5-1.1-4.8-2.7c-0.4,1.6-1.1,3.3-4.6,3.1
					c-1.8-0.1-4.1-2.5-5.2-4.4c-0.4,0.2-0.9,0.5-1.7,0.9c-2.2,1.1-6,2.9-11.2,5.1c0,0.3,0,0.6,0,0.8l0,0.1c0,1.2,0.1,3.8,0.8,6.3
					c0,0.1,0,0.3-0.1,0.4c-0.1,0.1-0.3,0.1-0.4,0c-1.9-1.2-3.4-1-4.5,0.5c-0.9,1.3-0.6,3,0.7,4c1.3,1,3.3,1.2,5.2,0.5
					C29.4,113.3,29.5,113.3,29.5,113.3z M55.6,98.6L55.6,98.6L55.6,98.6z M55.3,98.3L55.3,98.3C55.3,98.3,55.3,98.3,55.3,98.3
					L55.3,98.3z"/>
				<path class="st2" d="M28.8,110.4c-0.2,0-0.3-0.1-0.4-0.3c-0.3-1.1-0.5-1.7-0.7-2.8c0-0.2,0.1-0.4,0.3-0.4c0.2,0,0.4,0.1,0.4,0.3
					c0.3,1.1,0.4,1.7,0.7,2.8C29.2,110.2,29.1,110.4,28.8,110.4C28.9,110.4,28.8,110.4,28.8,110.4z"/>
				<path class="st2" d="M28.8,182c2.2-18.8,2.1-37.4,0.5-48.2c-7.4,0.5-19.9,2.4-25.2,6.8c-11,9.2-11.1,23.9-13.7,37.6
					c-2.4,12.6-3.5,25-0.1,29.4c0.3,0.4,2.8,2.1,3.3,2c1.6-0.3,12.3-11.5,12.3-8.2c0,6.8-0.9,9.5-0.9,9.5h18.6
					C23.7,210.9,28.1,188.4,28.8,182z"/>
				<path class="st2" d="M23.7,211.3H5.1c-0.1,0-0.2-0.1-0.3-0.1c-0.1-0.1-0.1-0.2-0.1-0.3c0,0,0.8-2.8,0.8-9.4c0-0.2,0-0.2-0.1-0.2
					c-0.8-0.4-5,3.3-7.3,5.3c-2.5,2.2-3.9,3.4-4.5,3.5c-0.8,0.1-3.4-1.7-3.7-2.1c-3.7-4.8-2-18.8,0-29.7c0.5-2.6,0.9-5.2,1.3-7.8
					c1.7-11.1,3.4-22.5,12.5-30.1c5-4.2,16.9-6.3,25.4-6.9c0.2,0,0.4,0.1,0.4,0.3c1.7,11.7,1.5,30.6-0.5,48.2
					c-0.7,6.4-5,28.7-5.1,29C24,211.1,23.9,211.3,23.7,211.3z M5.6,210.5h17.8c0.5-2.7,4.3-22.7,5-28.6c2-17.4,2.2-36.1,0.6-47.7
					c-8.4,0.6-19.8,2.7-24.7,6.7c-8.9,7.4-10.5,18.2-12.3,29.6c-0.4,2.6-0.8,5.2-1.3,7.8c-2.9,15.4-3,25.5-0.2,29.1
					c0.3,0.4,2.6,1.8,3,1.8c0.4-0.1,2.4-1.8,4.2-3.3c4.1-3.6,6.9-5.9,8.1-5.4c0.2,0.1,0.5,0.3,0.5,0.9
					C6.3,206.7,5.8,209.5,5.6,210.5z"/>
				<path class="st2" d="M85,201.1c5.8-0.7,10.9-22.1,2.2-23.6c-1.2-0.2-6.3-20.6-16.5-33.5c-5.5-6.9-17.1-8.5-18.8-9.2
					c7.5,13-4.4,76.1-4.4,76.1l15.6,0c0,0,3.5-23.3,4.2-28.6c0.5,3,4.4,9.9,8.9,15.2c1.7,2,3.1,1.6,4.2,2.6
					C81.5,201.3,83.7,201.3,85,201.1z"/>
				<path class="st2" d="M63.1,211.3C63.1,211.3,63.1,211.3,63.1,211.3l-15.6,0c-0.1,0-0.2,0-0.3-0.1c-0.1-0.1-0.1-0.2-0.1-0.3
					c0.1-0.6,11.8-63.2,4.4-75.9c-0.1-0.1-0.1-0.3,0-0.4c0.1-0.1,0.3-0.2,0.4-0.1c0.3,0.1,0.9,0.3,1.7,0.5
					c3.8,0.9,12.7,3.1,17.2,8.9c7.1,8.9,11.8,21.6,14.3,28.4c0.9,2.4,1.7,4.7,2.1,5c3.2,0.6,5,3.9,4.9,9.1
					c-0.2,6.5-3.4,14.8-7.2,15.2l0,0c-1.3,0.2-3.7,0.2-5-1.1c-0.4-0.4-0.8-0.5-1.3-0.7c-0.8-0.3-1.8-0.7-2.8-1.9
					c-3.6-4.3-7.1-10-8.4-13.6c-1,7.4-3.9,26.7-4,26.9C63.4,211.2,63.3,211.3,63.1,211.3z M48,210.5l14.8,0
					c0.4-2.8,3.5-23.3,4.1-28.3c0-0.2,0.2-0.3,0.4-0.3c0.2,0,0.3,0.1,0.4,0.3c0.5,3.1,4.5,10,8.8,15c0.9,1.1,1.7,1.4,2.5,1.7
					c0.6,0.2,1.1,0.4,1.6,0.9c1.2,1.2,3.5,1,4.4,0.9c3.1-0.4,6.4-7.7,6.5-14.5c0.1-2.3-0.3-7.7-4.4-8.4c-0.5-0.1-0.9-1-2.6-5.5
					c-2.5-6.8-7.2-19.3-14.2-28.2c-4.4-5.6-13.1-7.7-16.8-8.6c-0.3-0.1-0.7-0.2-0.9-0.2c2.8,6,2.9,20.2,0.3,42.4
					C51.1,193.4,48.5,207.9,48,210.5z M85,201.1L85,201.1L85,201.1z"/>
				<path class="st2" d="M9.3,197.1C9.3,197.1,9.3,197.1,9.3,197.1c-0.3-0.1-0.4-0.3-0.4-0.5c1.5-5.9,2.5-12,3.7-20.4
					c0.9-5.7,2-12.9,3.5-21.9c0-0.2,0.2-0.3,0.4-0.3c0.2,0,0.3,0.2,0.3,0.4c-1.6,9.1-2.7,16.2-3.5,21.9c-1.3,8.5-2.2,14.6-3.8,20.5
					C9.6,197,9.5,197.1,9.3,197.1z"/>
				<path class="st2" d="M67.3,182.7c-0.1,0-0.2,0-0.3-0.1c-0.1-0.1-0.1-0.3-0.1-0.4c0.1-0.6,0.6-6.1,1.1-11.9
					c0.3-3.6,0.6-7.7,1-11.3c0-0.2,0.2-0.4,0.4-0.3c0.2,0,0.4,0.2,0.3,0.4c-0.3,3.5-0.7,7.6-1,11.3c-1,12.1-1,12.1-1.2,12.3
					C67.4,182.6,67.4,182.7,67.3,182.7z M67,182C67,182,67,182,67,182C67,182,67,182,67,182z M67,182C67,182,67,182,67,182
					C67,182,67,182,67,182z"/>
				<path class="st2" d="M109.9,160.3c3.7-3.7,2.1-6.2,6.2-11.1c1.7-2,3.4-3.8,4.9-5.4c0.8-0.8,1.5-1.9,2.3-1.2
					c1,0.8-0.1,3.1-0.6,3.8c-1.9,2.8-1.7,3.7-1.7,4.7c3.2-2.5,8.3-5.8,12.2-7.1c0.3-0.1,1,0,1.2,0.2c0.3,0.4,0,1.3-0.6,1.7
					c-2.3,1.6-5.7,4-8,5.7c4.2-2.7,9.7-6,10.6-4.9c0.3,0.3,0.1,1.3-0.5,1.7c-2.5,1.8-5.8,4.1-8.3,5.9c2.2-1.8,8.8-5.8,9.4-4.4
					c0.5,1.4-5.6,5.3-8.2,6.9c2.1-1.3,7-4.4,7.6-3.1c0.4,1-1.1,1.9-1.6,2.3c-3.9,3-8.6,7.2-12.8,8.8c-1,0.4-2.6,0.5-3.5,1.2
					c-0.9,0.7-1.4,1.5-2.2,2.3c-21.1,24-27.8,32.2-31.6,31.4c-3.2-0.7-0.8-13.7,2.4-22.2C88.9,177.5,102.1,168.1,109.9,160.3z"/>
				<path class="st2" d="M85.3,200.1c-0.2,0-0.4,0-0.6-0.1c-0.5-0.1-0.9-0.4-1.2-1c-1.7-3.2,0.4-14,3.4-21.7
					c0.1-0.1,0.2-0.2,0.4-0.2c0,0,0,0,0,0c1.5,0,14.6-9.2,22.5-17l0,0c1.8-1.8,2.3-3.2,2.9-4.9c0.6-1.7,1.3-3.6,3.4-6.1
					c1.7-2,3.3-3.7,4.9-5.4c0.1-0.1,0.2-0.2,0.3-0.4c0.7-0.8,1.5-1.7,2.5-0.9c1.2,1,0,3.5-0.5,4.3c-1.4,2-1.6,3-1.6,3.8
					c3.4-2.6,8.1-5.6,11.7-6.7c0.4-0.1,1.3-0.1,1.6,0.3c0.2,0.2,0.2,0.5,0.2,0.9c-0.1,0.4-0.3,1-0.8,1.3c-0.3,0.2-0.7,0.5-1.1,0.8
					c2.1-1,3.2-1.2,3.7-0.6c0.2,0.2,0.2,0.6,0.2,0.9c-0.1,0.5-0.3,1-0.7,1.3c-0.4,0.3-0.9,0.6-1.3,0.9c0.8-0.3,1.5-0.4,1.9-0.3
					c0.4,0.1,0.5,0.3,0.6,0.5c0.1,0.3,0.4,1.1-2.5,3.4c0.6-0.2,1-0.2,1.3-0.1c0.3,0.1,0.4,0.2,0.5,0.5c0.5,1.1-0.8,2.1-1.5,2.6
					c-0.1,0.1-0.2,0.1-0.2,0.2c-0.7,0.6-1.5,1.2-2.3,1.8c-3.3,2.7-7.1,5.7-10.6,7c-0.4,0.1-0.8,0.2-1.2,0.3
					c-0.8,0.2-1.6,0.4-2.2,0.8c-0.6,0.5-1,1-1.5,1.6c-0.2,0.2-0.4,0.5-0.6,0.7c-2,2.3-3.8,4.4-5.6,6.4
					C94.9,193.3,89,200.1,85.3,200.1z M87.4,177.8c-2.8,7.4-4.8,18.1-3.3,20.9c0.2,0.3,0.4,0.5,0.7,0.6c3.2,0.7,9.3-6.3,25.7-24.9
					c1.7-2,3.6-4.1,5.6-6.4c0.2-0.2,0.4-0.5,0.6-0.7c0.5-0.6,1-1.2,1.7-1.7c0.6-0.5,1.5-0.7,2.4-0.9c0.4-0.1,0.8-0.2,1.1-0.3
					c3.4-1.2,7.1-4.2,10.4-6.8c0.8-0.7,1.6-1.3,2.3-1.9c0.1,0,0.1-0.1,0.2-0.2c0.5-0.4,1.5-1.1,1.2-1.7c0,0,0,0-0.1-0.1
					c-0.9-0.3-3.8,1.4-5.7,2.6c-0.4,0.2-0.8,0.5-1.3,0.8c-0.2,0.1-0.4,0.1-0.5-0.1c-0.1-0.2-0.1-0.4,0.1-0.5l0.1,0
					c0.4-0.2,0.8-0.5,1.1-0.7c5.7-3.6,7.1-5.3,6.9-5.7c0,0,0,0-0.1,0c-0.8-0.2-3.7,1.2-6.1,2.7c-0.9,0.7-1.8,1.3-2.6,1.9
					c-0.2,0.1-0.4,0.1-0.5-0.1c-0.1-0.2-0.1-0.4,0-0.5c0.6-0.5,1.5-1.2,2.6-1.9c0.5-0.4,1-0.7,1.6-1.1c1.4-1,2.9-2,4.2-3
					c0.3-0.2,0.4-0.5,0.4-0.8c0-0.2,0-0.4,0-0.4c0-0.1-0.5-0.5-3.6,1.1c-2,1-4.4,2.5-6.5,3.9c-0.2,0.1-0.4,0.1-0.5-0.1
					c-0.1-0.2-0.1-0.4,0.1-0.5c1.2-0.8,2.6-1.8,4-2.8c1.4-1,2.9-2,4-2.8c0.3-0.2,0.5-0.6,0.5-0.8c0-0.2,0-0.3,0-0.3
					c-0.1-0.1-0.6-0.1-0.8-0.1c-3.7,1.2-8.7,4.4-12,7c-0.1,0.1-0.2,0.1-0.4,0c-0.1-0.1-0.2-0.2-0.2-0.3l0-0.1
					c-0.1-1.1-0.2-2.1,1.7-4.9c0.5-0.7,1.4-2.7,0.6-3.3c-0.4-0.3-0.7-0.1-1.5,0.8c-0.1,0.1-0.2,0.3-0.4,0.4
					c-1.6,1.7-3.2,3.4-4.9,5.4c-2,2.4-2.6,4.2-3.2,5.9c-0.6,1.7-1.1,3.3-3,5.2l0,0c0,0,0,0,0,0C103.1,167.7,90.2,177.2,87.4,177.8z"
					/>
				<path class="st2" d="M120.9,159.9c-0.1,0-0.2,0-0.3-0.1c-0.1-0.2-0.1-0.4,0-0.5c1.5-1.2,2-3.5,1.3-5.3c-0.1-0.3-0.3-0.7-0.5-1
					c-0.3-0.5-0.5-1-0.7-1.5c-0.1-0.2,0.1-0.4,0.2-0.5c0.2-0.1,0.4,0.1,0.5,0.2c0.1,0.5,0.4,0.9,0.6,1.4c0.2,0.4,0.4,0.7,0.5,1.1
					c0.8,2.1,0.2,4.7-1.5,6.1C121.1,159.9,121,159.9,120.9,159.9z"/>
				<path class="st2" d="M5.9,196.7c10.4,1.8,20.8,3.4,31.3,5c1,0.1,5.7,0.4,6.9,0.5c1,0.1,2-0.1,3-0.3c3.4-0.7,10.6-2,11.9-0.9
					c3.2,1.8,5.7,4.9,7.4,8.5c1,2,1.4,5.2,0.7,5.5c-0.4,0.2-1,0.2-1.3-0.2c-0.8-3.8-3-7.2-6.1-9.6c1.4,1.3,2.6,2.7,3.7,4.3
					c1.1,1.6,2,3.4,1.8,5.3c0,0.1,0,0.3-0.1,0.4c-0.3,0.3-0.7,0-0.9-0.3c-0.5-0.6-6.2-7.9-7.5-8c1.6,1.1,6.7,7.5,6.6,8.1
					c0,0.3-0.2,0.5-0.4,0.7c-0.3,0.2-0.7,0.2-1,0.1c-0.3-0.1-0.6-0.4-0.9-0.6c-1.7-1.7-3.2-3.6-5.2-5c-1-0.7-2.3-1.3-3.4-0.8
					c1.8,1.2,3.3,2.7,4.6,4.4c0.2,0.3,0.3,0.6,0.4,0.9c0.1,0.5,0.3,1.2-0.1,1.4c-0.7,0.5-1.1,0.1-1.5-0.3c-1.6-1.7-3.3-3.1-5.1-4.4
					c-0.6-0.4-1.3-0.8-1.9-0.5c-0.6,0.2-3.2,1.1-8.1,0.3c-1.7-0.3-3.4-0.2-5.5-0.1c-28.8,1.3-37.6,2.5-43.6-1.8
					c-1.2-0.8-1.4-1.6-0.5-3.7C-6.6,199.9-4.8,196.8,5.9,196.7z"/>
				<path class="st2" d="M56.5,216.7c-0.5,0-0.9-0.3-1.1-0.6l0,0c-1.6-1.7-3.3-3.1-5-4.3c-0.5-0.3-1.1-0.7-1.6-0.5
					c-1,0.4-3.7,1.1-8.3,0.3c-1.7-0.3-3.4-0.2-5.5-0.1c-3.8,0.2-7.4,0.4-10.5,0.5c-21,1-28.1,1.4-33.3-2.4c-1.4-1-1.6-2-0.6-4.2
					c2.5-5.7,4.5-9,15.3-9.1c0,0,0,0,0.1,0c10.5,1.8,21.1,3.4,31.3,5c0.7,0,3.3,0.3,5.2,0.4c0.7,0.1,1.3,0.1,1.6,0.1
					c1,0.1,2.1-0.1,2.9-0.3c3.1-0.7,10.6-2.1,12.2-0.8c3,1.7,5.6,4.7,7.5,8.7c0.8,1.7,1.7,5.4,0.6,6c-0.6,0.3-1.3,0.3-1.7-0.2
					c0,0.1-0.1,0.2-0.2,0.4c-0.1,0.1-0.3,0.2-0.5,0.2c-0.4,0-0.7-0.3-0.9-0.5c0,0-0.1-0.1-0.2-0.2c-0.1-0.1-0.1-0.2-0.2-0.3
					c0.1,0.2,0.1,0.3,0.1,0.4c-0.1,0.4-0.2,0.7-0.5,0.9c-0.4,0.3-0.9,0.3-1.4,0.1c-0.4-0.2-0.7-0.4-1-0.7c-0.6-0.6-1.1-1.2-1.7-1.8
					c-1.1-1.1-2.2-2.3-3.5-3.2c-0.6-0.4-1.4-0.9-2.2-0.9c1.6,1.1,2.9,2.5,3.9,4c0.2,0.3,0.4,0.6,0.5,1c0.1,0.3,0.4,1.4-0.3,1.8
					C57,216.7,56.7,216.7,56.5,216.7z M49,210.5c0.6,0,1.2,0.3,1.7,0.7c1.8,1.2,3.5,2.7,5.1,4.4l0,0c0.4,0.4,0.6,0.5,1,0.3
					c0.1-0.1,0.2-0.3,0-1c-0.1-0.3-0.2-0.6-0.4-0.8c-1.1-1.7-2.6-3.1-4.5-4.3c-0.1-0.1-0.2-0.2-0.2-0.3c0-0.1,0.1-0.3,0.2-0.3
					c1.3-0.5,2.8,0.2,3.7,0.8c1.3,1,2.5,2.2,3.6,3.3c0.5,0.6,1.1,1.2,1.7,1.7c0.2,0.2,0.5,0.5,0.8,0.6c0.2,0.1,0.5,0.1,0.7,0
					c0.1-0.1,0.2-0.2,0.2-0.4c-0.3-0.9-4.9-6.8-6.4-7.8c-0.1-0.1-0.2-0.3-0.1-0.4c0.1-0.2,0.2-0.3,0.4-0.2c0.3,0,1.4,0.2,7.6,7.9
					c0.1,0.1,0.2,0.2,0.2,0.2c0.2,0.2,0.3,0.3,0.4,0.3c0,0,0,0,0,0c0,0,0,0,0-0.2c0.1-1.5-0.5-3.1-1.8-5.1c-1-1.5-2.3-2.9-3.6-4.2
					c-0.1-0.1-0.2-0.4,0-0.5c0.1-0.2,0.3-0.2,0.5-0.1c3.1,2.4,5.4,5.9,6.2,9.7c0.2,0.2,0.5,0.2,0.8,0c0.3-0.3,0.1-2.9-0.9-5.1
					c-1.8-3.8-4.3-6.8-7.2-8.4c0,0,0,0-0.1,0c-0.8-0.7-5.5-0.4-11.5,0.9c-0.8,0.2-1.9,0.4-3.1,0.3c-0.3,0-0.9-0.1-1.6-0.1
					c-1.8-0.1-4.6-0.4-5.2-0.4c0,0,0,0,0,0c-10.2-1.6-20.8-3.2-31.3-5c-10.4,0.1-12.2,3.1-14.6,8.6c-0.9,2.1-0.6,2.6,0.4,3.3
					c5,3.7,12,3.3,32.8,2.3c3.1-0.2,6.7-0.3,10.5-0.5c2.1-0.1,3.9-0.2,5.6,0.1c4.4,0.8,7,0.1,7.9-0.3
					C48.7,210.6,48.9,210.5,49,210.5z M62.7,215.1L62.7,215.1L62.7,215.1z"/>
			</g>
			<g>
				<path class="st2" d="M232.2,119.4c-0.1,6,3.6,12.2,9.3,14.2c3.1,1.1,6.5,0.9,9.7,1.8c3.2,0.8,6.4,3.2,6.5,6.5
					c0,2.2-1.2,7.1,5.3,10.1c5.4,2.4,4.1,15.4-12.6,20.8c-5.1,1.7-1.8-2.5-7.1-3.4c-5.3-0.8-10-3.8-13.7-7.7
					c-3.6-3.9-6.2-8.7-8.2-13.6c-2.3-5.7-3.9-12-2.5-17.9C220.3,124.3,225.5,118.9,232.2,119.4z"/>
				<path class="st2" d="M199.5,105.6c1.8,8.6,3.5,17.8-0.1,25.9c-1.1,2.6-2.8,5-3.7,7.7c-1.1,3.2-1.2,6.7-0.8,10
					c0.6,6.4,2.5,12.9,7,17.5c4.5,4.6,12,6.6,17.5,3.3c4.9-2.8,7.1-8.9,6.8-14.5s-2.7-10.9-5.2-15.9
					C214.9,127.6,207.8,116,199.5,105.6z"/>
				<path class="st2" d="M211.9,147.5c0.2-4.6-0.4-7.1-0.6-10.6c1.8-0.9,3.8-1.6,5.9-1.9c0.9-0.1,2-0.2,2.7,0.3
					c0.4,0.3,2.5-1.5,2.8-1c1.5,3.5,1.6,8.5,3.1,12c0.1,0.3,5.3-0.2,5.5,0.1c0.5,1.1,0.1,10.6-0.3,10.9
					c-19.1,12.7-28.3-5.5-28.3-5.5S206.1,149.7,211.9,147.5z"/>
				<path class="st2" d="M218.1,162.2c-1.4,0-2.7-0.2-4.1-0.5c-7.8-2.1-11.6-9.3-11.7-9.7c-0.1-0.2,0-0.4,0.1-0.5
					c0,0,3.5-2.1,9.2-4.3c0.1-2.9-0.1-5-0.3-7c-0.1-1-0.2-2.1-0.3-3.3c0-0.1,0.1-0.3,0.2-0.3c1.9-0.9,3.9-1.6,6-1.9
					c0.9-0.1,2.1-0.2,2.9,0.4c0.2,0,0.7-0.3,1.1-0.5c0.7-0.4,1.2-0.7,1.5-0.6c0.1,0,0.2,0.1,0.3,0.3c0.8,1.8,1.2,4,1.6,6.1
					c0.4,2,0.8,4.1,1.5,5.8c0.4,0,1.6,0,2.4,0c2.7-0.1,2.9-0.1,3.1,0.2c0.3,0.8,0.3,4.4,0.2,5.9c-0.2,5.1-0.5,5.3-0.6,5.4
					C226.6,160.6,222.2,162.2,218.1,162.2z M203.1,152c0.8,1.4,4.5,7.2,11.1,9c5,1.3,10.5,0,16.5-3.9c0.3-1,0.6-8.8,0.3-10.3
					c-0.4,0-1.6,0-2.4,0c-2.7,0.1-2.9,0.1-3.1-0.2c-0.8-1.8-1.2-4-1.6-6.1c-0.4-2-0.8-4.1-1.5-5.7c-0.2,0.1-0.6,0.3-0.9,0.5
					c-0.8,0.5-1.4,0.8-1.9,0.5c-0.6-0.5-1.6-0.4-2.4-0.3c-1.9,0.3-3.8,0.9-5.6,1.8c0.1,1,0.2,2,0.3,3c0.2,2.1,0.4,4.3,0.3,7.4
					c0,0.1-0.1,0.3-0.2,0.3C207.3,149.6,204.1,151.4,203.1,152z M230.6,157.1L230.6,157.1L230.6,157.1z M211.9,147.5L211.9,147.5
					L211.9,147.5z"/>
				<path class="st2" d="M197.6,107.7c0.6,4.2,1.4,8.7,0.3,12.9c-0.6,2.3-0.5,14,8.8,17.3c4.9,1.8,10.6,1.4,15.7-1.7
					c3.5-2.1,7.6-8.6,6.8-15.1c2.9,0.8,5.7-1.1,5.7-3.7c0-1.5-1.6-3.3-3.3-3.3c-1.3,0.1-1.5,0.1-2.5,0.9c-0.7-3-1.1-6.1-1.1-9.6
					c-3.2-3.6-8.5-5.4-13.7-6.2c-1.7-0.3-3.5-0.4-5.2-0.2C204.1,99.8,197,103.4,197.6,107.7z"/>
				<path class="st2" d="M212.8,139.4c-2.1,0-4.2-0.4-6.2-1.1c-9.4-3.3-9.8-15-9.1-17.8c0.9-3.6,0.4-7.5-0.1-11.2
					c-0.1-0.5-0.1-1-0.2-1.6l0,0c-0.2-1.2,0.2-2.5,1.1-3.6c2.2-2.9,7.2-4.9,10.8-5.4c1.9-0.2,3.9,0,5.3,0.2
					c4.3,0.6,10.2,2.3,13.9,6.3c0.1,0.1,0.1,0.2,0.1,0.3c0,3,0.2,5.8,0.9,9c0.7-0.5,1.1-0.5,2.3-0.6c0.9,0,1.8,0.3,2.5,1.1
					c0.8,0.7,1.2,1.7,1.2,2.6c0,1.3-0.6,2.4-1.7,3.2c-1.1,0.8-2.5,1.2-3.9,0.9c0.6,6.6-3.6,12.8-7,14.9
					C219.5,138.5,216.2,139.4,212.8,139.4z M197.9,107.7c0.1,0.5,0.1,1,0.2,1.5c0.5,3.8,1.1,7.7,0.1,11.5
					c-0.4,1.6-0.9,13.5,8.6,16.9c5.1,1.8,10.6,1.2,15.4-1.7c3.2-2,7.5-8.3,6.6-14.7c0-0.1,0-0.2,0.1-0.3c0.1-0.1,0.2-0.1,0.3-0.1
					c1.3,0.4,2.8,0.1,3.8-0.7c0.9-0.7,1.4-1.6,1.4-2.7c0-0.7-0.4-1.4-1-2c-0.6-0.6-1.3-0.9-2-0.8c-1.3,0.1-1.4,0.1-2.3,0.8
					c-0.1,0.1-0.2,0.1-0.3,0.1c-0.1,0-0.2-0.1-0.2-0.3c-0.8-3.4-1.1-6.4-1.1-9.5c-3.5-3.8-9.2-5.3-13.3-6c-1.4-0.2-3.3-0.4-5.1-0.2
					c-3.4,0.4-8.2,2.4-10.3,5.1C198.1,105.6,197.8,106.7,197.9,107.7L197.9,107.7z"/>
				<path class="st2" d="M218.1,124.9c-1.4,0-2.7-0.5-3.8-1.5c-1.3-1.1-2.1-2.7-2.4-4.5c-0.5-3.7,1.9-7,5.2-7.5
					c1.6-0.2,3.2,0.3,4.6,1.4c1.3,1.1,2.1,2.7,2.4,4.5l0,0c0.2,1.8-0.2,3.5-1.2,4.9c-1,1.4-2.4,2.3-4,2.5
					C218.5,124.9,218.3,124.9,218.1,124.9z"/>
				<path class="st2" d="M201.1,125.7c-1.4,0-2.7-0.5-3.8-1.5c-1.3-1.1-2.1-2.7-2.4-4.5c-0.5-3.7,1.9-7,5.2-7.5
					c3.3-0.4,6.4,2.2,6.9,5.9c0.2,1.8-0.2,3.5-1.2,4.9c-1,1.4-2.4,2.3-4,2.5C201.6,125.7,201.3,125.7,201.1,125.7z"/>
				
					<ellipse transform="matrix(0.9995 -3.266964e-02 3.266964e-02 0.9995 -2.657 7.3192)" class="st2" cx="222.6" cy="85" rx="10.8" ry="10.8"/>
				<path class="st2" d="M228.7,115.6c-2.7-4.3-4.4-7.3-5.3-12.5c-10.1,6-19.7,6.9-29.4,6.6c-0.2-1.6,0.1-5.3,0.8-6.9
					c1.7-3.8,3.8-7.1,9.6-9.8c4.1-1.8,9.6-3.1,14.1-2.4c4.4,0.6,8.2,3,11.3,5.9c2.5,2.3,4.5,6,5.3,9.7c0.6,3.2-0.1,5.5-1.6,8.7
					c-0.8-0.4-1.5-0.9-2.5-0.7C230.1,114.4,229.5,114.9,228.7,115.6z"/>
				<path class="st2" d="M206.4,117.2c-0.2,0-0.4-0.2-0.4-0.4c0-0.9,0.9-1.6,1.8-1.8c1.5-0.4,3.2,0,4.3,1c0.2,0.1,0.2,0.4,0,0.5
					c-0.1,0.2-0.4,0.2-0.5,0c-1-0.8-2.4-1.2-3.7-0.8c-0.6,0.2-1.3,0.6-1.3,1.1C206.8,117.1,206.6,117.2,206.4,117.2
					C206.4,117.2,206.4,117.2,206.4,117.2z"/>
				<path class="st2" d="M223.3,115.6c-0.2,0-0.4-0.2-0.4-0.4c0-0.2,0.2-0.4,0.4-0.4l5,0c0,0,0,0,0,0c0.2,0,0.4,0.2,0.4,0.4
					c0,0.2-0.2,0.4-0.4,0.4L223.3,115.6C223.3,115.6,223.3,115.6,223.3,115.6z"/>
				<path class="st2" d="M229.2,119.1C229.2,119.1,229.2,119.1,229.2,119.1c-0.2,0-0.4-0.2-0.4-0.4c0-1.2-0.2-2.5-0.7-3.6
					c-0.1-0.2,0-0.4,0.2-0.5c0.2-0.1,0.4,0,0.5,0.2c0.5,1.2,0.8,2.6,0.8,3.9C229.5,118.9,229.4,119.1,229.2,119.1z"/>
				<path class="st2" d="M265.8,186.6c-4.4-12.1-6.9-24-17.3-32.7c-5-4.2-11-7.1-18-7.6c-0.4,6.7-8.3,11.2-12.4,11.7
					c-2.3,0.3-10.8,1.4-10.8-8.6c-2.8,1.1-12,2.2-15.7,13.6c-1.5,4.6-4.2,22.4-13.1,32.7c-2.1,2.4-4.1-13.7-7.1-12.7
					c-3,1.1-6.4,2.8-6.6,6c-0.2,2.5,1.8,4.6,4.1,5.6c4.9,2.1,6.7,12.2,11.9,12.9c5.4,0.8,14.1,2.8,20.7-17.8c3.4,3.4,5.5,7,9.3,9
					c10.9,5.9,47,12.4,52.9,13.5c0.5,0.1,1.6-0.3,1.8-0.8C266.7,208.5,270,198,265.8,186.6z"/>
				<path class="st2" d="M263.8,212.5c-0.1,0-0.1,0-0.2,0c-7-1.2-42.2-7.7-53-13.5c-2.6-1.4-4.5-3.6-6.4-5.8
					c-0.8-0.9-1.6-1.9-2.5-2.8c-2.8,8.5-6.2,13.9-10.4,16.3c-3.7,2.1-7.2,1.6-10,1.2c-0.2,0-0.4-0.1-0.6-0.1c-3-0.4-4.9-3.6-6.7-6.7
					c-1.5-2.6-3.1-5.3-5.3-6.2c-2.3-1-4.5-3.2-4.3-5.9c0.2-2.7,2.4-4.7,6.9-6.3c0.3-0.1,0.7-0.1,1,0.1c1.4,0.7,2.5,4.1,3.5,7.4
					c0.7,2.2,1.6,5.3,2.3,5.4c0.1,0,0.1-0.1,0.2-0.1c7.1-8.2,10.3-21.3,12-28.4c0.4-1.8,0.8-3.2,1.1-4.2c3.2-10,10.8-12.2,14.4-13.3
					c0.6-0.2,1.1-0.3,1.5-0.5c0.1,0,0.2,0,0.3,0c0.1,0.1,0.2,0.2,0.2,0.3c0,3,0.8,5.3,2.4,6.7c2.5,2.2,6.4,1.8,7.9,1.6l0.1,0
					c4-0.5,11.7-4.8,12.1-11.3c0-0.1,0.1-0.2,0.1-0.3c0.1-0.1,0.2-0.1,0.3-0.1c6.5,0.4,12.6,3,18.2,7.7c8.7,7.3,11.9,16.6,15.2,26.6
					c0.7,2.1,1.4,4.2,2.2,6.3l0,0c3.8,10.3,1.6,20.6-0.3,25C265.6,212.1,264.5,212.5,263.8,212.5z M201.5,189.3c0.1,0,0.2,0,0.3,0.1
					c1.1,1.1,2.1,2.2,3,3.3c1.9,2.2,3.7,4.3,6.2,5.7c10.7,5.8,45.9,12.2,52.8,13.4c0.4,0.1,1.3-0.3,1.4-0.6
					c0.2-0.5,4.9-11.8,0.3-24.5c-0.8-2.1-1.5-4.3-2.2-6.3c-3.3-9.8-6.5-19.1-15-26.2c-5.4-4.5-11.2-7-17.4-7.5
					c-0.4,3.7-2.9,6.4-4.9,8.1c-2.4,1.9-5.4,3.3-7.8,3.6l-0.1,0c-1.6,0.2-5.7,0.7-8.5-1.8c-1.6-1.5-2.5-3.7-2.6-6.7
					c-0.3,0.1-0.7,0.2-1,0.3c-3.8,1.1-10.8,3.3-13.9,12.9c-0.3,0.9-0.6,2.3-1.1,4.1c-1.7,7.1-4.9,20.4-12.1,28.7
					c-0.3,0.4-0.7,0.4-0.9,0.4c-1-0.2-1.7-2.3-2.8-5.9c-0.9-2.9-2-6.4-3.1-7c-0.1-0.1-0.3-0.1-0.4,0c-4.1,1.5-6.2,3.3-6.4,5.7
					c-0.2,2.4,1.9,4.3,3.9,5.2c2.4,1,4,3.8,5.6,6.5c1.8,3.1,3.6,6,6.2,6.4c0.2,0,0.4,0.1,0.6,0.1c5.4,0.8,13.5,2,19.7-17.6
					C201.2,189.4,201.3,189.3,201.5,189.3C201.4,189.3,201.5,189.3,201.5,189.3z"/>
				<path class="st2" d="M252.8,198.3c-9.9-0.6-19.9-1.2-29.9-1.9c-0.9-0.1-5.3-0.8-6.4-0.9c-0.9-0.1-1.8-0.5-2.7-0.9
					c-3-1.4-9.3-4.1-10.8-3.3c-3.3,1-6.2,3.3-8.6,6.3c-1.3,1.7-2.4,4.5-1.8,4.9c0.3,0.3,0.9,0.4,1.2,0.1c1.5-3.3,4.3-6,7.6-7.6
					c-1.5,0.9-3,1.9-4.3,3.1c-1.3,1.2-2.5,2.7-2.8,4.5c0,0.1,0,0.3,0,0.4c0.2,0.3,0.6,0.1,0.9-0.1c0.5-0.4,7.4-6,8.6-5.8
					c-1.7,0.6-7.7,5.5-7.8,6.1c0,0.2,0,0.5,0.2,0.7c0.2,0.3,0.6,0.4,0.9,0.3c0.3-0.1,0.6-0.2,0.9-0.4c2-1.2,3.7-2.7,5.8-3.5
					c1.1-0.4,2.3-0.7,3.3,0c-1.9,0.7-3.6,1.8-5.1,3.1c-0.2,0.2-0.4,0.5-0.6,0.8c-0.2,0.4-0.5,1-0.2,1.4c0.5,0.6,1,0.3,1.4,0
					c1.8-1.2,3.7-2.2,5.6-2.9c0.6-0.2,1.3-0.4,1.9-0.1c0.5,0.3,2.7,1.7,7.4,2c1.6,0.1,3.1,0.5,5.1,1c26.3,7.3,34.2,10.1,40.5,7.4
					c1.2-0.5,1.7-1.2,1.3-3.3C263.7,203.8,262.6,200.6,252.8,198.3z"/>
				<path class="st2" d="M258.2,214.3c-5,0-12.2-2-25.7-5.8c-2.8-0.8-6.1-1.7-9.6-2.7c-1.9-0.5-3.5-1-5.1-1c-4.4-0.2-6.8-1.5-7.6-2
					c-0.4-0.3-1-0.1-1.5,0.1c-1.9,0.8-3.7,1.7-5.5,2.9l0,0c-0.4,0.3-1.1,0.7-1.8-0.1c-0.6-0.6,0-1.5,0.1-1.8
					c0.2-0.3,0.4-0.6,0.7-0.8c1.3-1.2,2.7-2.1,4.4-2.8c-0.7-0.1-1.5,0.1-2.2,0.4c-1.4,0.6-2.6,1.4-3.9,2.3c-0.6,0.4-1.3,0.9-1.9,1.3
					c-0.3,0.2-0.7,0.4-1.1,0.5c-0.5,0.1-1-0.1-1.3-0.4c-0.2-0.2-0.3-0.6-0.3-1c0-0.1,0-0.2,0.1-0.3c0,0-0.1,0.1-0.1,0.1
					c-0.1,0.1-0.2,0.2-0.2,0.2c-0.2,0.2-0.6,0.4-1,0.3c-0.2,0-0.4-0.1-0.5-0.3c-0.1-0.1-0.1-0.2-0.1-0.3c-0.5,0.3-1.1,0.3-1.6-0.2
					c-0.9-0.8,0.7-4,1.8-5.4c2.5-3.3,5.5-5.5,8.7-6.4c1.7-0.9,8.3,2,11.1,3.3c0.7,0.3,1.6,0.7,2.6,0.8c0.3,0,0.8,0.1,1.4,0.2
					c1.7,0.2,4.3,0.6,5,0.7c9.7,0.7,19.8,1.4,29.9,1.9c0,0,0,0,0.1,0c10,2.4,11.1,5.8,12.2,11.6c0.4,2.1,0,3.1-1.5,3.7
					C262,213.9,260.3,214.3,258.2,214.3z M209.8,201.9c0.3,0,0.6,0.1,0.9,0.2c0.8,0.5,3,1.7,7.3,1.9c1.7,0.1,3.3,0.5,5.2,1.1
					c3.5,1,6.7,1.9,9.6,2.7c18.9,5.3,25.3,7.1,30.7,4.8c1-0.4,1.4-0.9,1-2.9c-1.1-5.7-2.1-8.7-11.7-11c-10.1-0.6-20.1-1.3-29.9-1.9
					c0,0,0,0,0,0c-0.7-0.1-3.3-0.5-5-0.7c-0.6-0.1-1.2-0.2-1.4-0.2c-1.1-0.2-2-0.6-2.8-0.9c-5.3-2.5-9.5-3.8-10.4-3.3c0,0,0,0-0.1,0
					c-3,0.9-6,3.1-8.4,6.2c-1.3,1.7-2.1,4.1-1.9,4.5c0.2,0.2,0.5,0.3,0.7,0.1c1.6-3.3,4.4-6.1,7.8-7.6c0.2-0.1,0.4,0,0.5,0.2
					c0.1,0.2,0,0.4-0.1,0.5c-1.5,0.9-2.9,1.9-4.2,3.1c-1.6,1.5-2.5,2.9-2.7,4.3c0,0.1,0,0.1,0,0.1c0.1,0,0.2-0.1,0.4-0.2
					c0,0,0.1-0.1,0.2-0.2c7.3-5.9,8.3-5.7,8.7-5.7c0.2,0,0.3,0.2,0.3,0.3c0,0.2-0.1,0.3-0.2,0.4c-1.6,0.6-7.1,5-7.5,5.8
					c0,0.2,0,0.3,0.1,0.4c0.1,0.2,0.4,0.2,0.6,0.2c0.3,0,0.5-0.2,0.8-0.4c0.6-0.4,1.3-0.8,1.9-1.2c1.3-0.9,2.6-1.7,4-2.3
					c1-0.4,2.5-0.8,3.6,0c0.1,0.1,0.2,0.2,0.2,0.3c0,0.1-0.1,0.2-0.2,0.3c-1.9,0.7-3.6,1.7-5,3c-0.2,0.2-0.4,0.4-0.5,0.7
					c-0.4,0.7-0.3,0.9-0.2,0.9c0.3,0.3,0.5,0.2,0.9,0l0,0c1.9-1.2,3.7-2.2,5.6-3C208.8,202.1,209.3,201.9,209.8,201.9z"/>
				<path class="st2" d="M187.2,211.1c8.2,0.2,16.5,0.4,24.7,0.5l0-4.2l-27.5-0.7L187.2,211.1z"/>
				<polygon class="st2" points="117,172.8 170.7,173.1 189.2,211.1 136,210.9 				"/>
				<path class="st2" d="M189.2,211.4C189.2,211.4,189.2,211.4,189.2,211.4l-53.2-0.1c-0.1,0-0.3-0.1-0.3-0.2l-19-38.2
					c-0.1-0.1-0.1-0.2,0-0.4c0.1-0.1,0.2-0.2,0.3-0.2c0,0,0,0,0,0l53.7,0.3c0.1,0,0.3,0.1,0.3,0.2l18.5,38c0.1,0.1,0,0.2,0,0.4
					C189.4,211.4,189.3,211.4,189.2,211.4z M136.2,210.6l52.4,0.1l-18.2-37.3l-52.9-0.3L136.2,210.6z"/>
				<path class="st2" d="M246.9,198.3c-0.2,0-0.3-0.1-0.3-0.3c-3.7-11.3-5.9-18.5-5.9-34c0-0.2,0.2-0.4,0.4-0.4
					c0.2,0,0.4,0.2,0.4,0.4c0,15.4,2.1,22.5,5.8,33.8c0.1,0.2,0,0.4-0.2,0.5C247,198.3,247,198.3,246.9,198.3z"/>
				<path class="st2" d="M201.5,190c-0.1,0-0.2-0.1-0.3-0.2c-4.8-6.9-3.5-12-2.3-16.9c0.6-2.5,1.3-5,1.2-7.8c0-0.2,0.2-0.4,0.4-0.4
					c0.2,0,0.4,0.2,0.4,0.4c0.1,2.9-0.6,5.5-1.2,8c-1.3,5-2.5,9.7,2.1,16.3c0.1,0.2,0.1,0.4-0.1,0.5C201.7,190,201.6,190,201.5,190z
					"/>
			</g>
		</g>
		<g style="clip-path:url(#SVGID_00000075852449749250349590000006472113607217613757_);">
			<path class="st3" d="M265.8,211.3c-0.2,0-0.4-0.2-0.4-0.4c0-0.2,0.2-0.4,0.4-0.4c13.1-0.1,25.9-0.1,39,0c0.2,0,0.4,0.2,0.4,0.4
				c0,0.2-0.2,0.4-0.4,0.4c0,0,0,0,0,0C291.7,211.2,278.9,211.2,265.8,211.3C265.8,211.3,265.8,211.3,265.8,211.3z"/>
			<path class="st3" d="M259.3,211.4L259.3,211.4c-104.3-0.1-210-0.1-314.2,0c-0.2,0-0.3-0.2-0.3-0.4c0-0.2,0.2-0.4,0.3-0.4
				c104.2-0.1,210-0.1,314.2,0c0.2,0,0.3,0.2,0.3,0.4C259.7,211.3,259.5,211.4,259.3,211.4z"/>
			<g>
				<path class="st0" d="M125.7,82.6c1.2,5.4,1,12,1,12l-4.9,1.9c0,0-3,12.2,15.8,8.5c3.6-0.7,14.2-8.7,14.2-8.7l-8.3-2.4
					c0,0-0.8-12.1-1.1-18.2C138,77.7,131,80.9,125.7,82.6z"/>
				<path class="st3" d="M131.3,106c-3.6,0-6.3-0.9-8-2.6c-2.7-2.8-1.8-6.8-1.7-7c0-0.1,0.1-0.2,0.2-0.3l4.6-1.8c0-1.2,0.1-7-1-11.6
					c0-0.2,0.1-0.4,0.2-0.4c5.4-1.7,13-5.2,16.6-6.9c0.1-0.1,0.2,0,0.3,0c0.1,0.1,0.2,0.2,0.2,0.3c0.3,5.5,1,16.1,1.1,17.9l8.1,2.3
					c0.1,0,0.2,0.1,0.3,0.3c0,0.1,0,0.3-0.1,0.4c-0.4,0.3-10.7,8.1-14.3,8.8C135.3,105.8,133.2,106,131.3,106z M122.2,96.7
					c-0.1,0.8-0.5,3.9,1.6,6.2c2.4,2.5,7,3.1,13.8,1.7c3-0.6,11.2-6.6,13.5-8.2l-7.6-2.2c-0.1,0-0.3-0.2-0.3-0.3
					c0-0.1-0.8-11.5-1.1-17.6c-3.7,1.7-10.7,4.9-15.9,6.6c1.2,5.3,1,11.7,1,11.7c0,0.1-0.1,0.3-0.2,0.3L122.2,96.7z M126.7,94.5
					L126.7,94.5L126.7,94.5z"/>
				<path class="st3" d="M114.2,48.8c-1.7,0.4-3.4-1.3-3.5-3.2s1.3-3.5,2.8-4.3c1.6-0.8,3.4-0.9,5.2-1.2c-0.7-1.8,0.2-3.9,1.7-5.1
					s3.4-1.4,5.2-1.2c1.2,0.1,2.4,0.5,3.3,1.3c0.9,0.8,1.6,2,1.5,3.4c1.6-2,4.2-3.3,6.6-2.8c2.4,0.6,4.2,3.5,4.4,5.6
					c1.2-1.4,2.7-2.6,4.5-2.5c3.6,0.2,4.4,3.3,2.8,7.2c1.9-0.9,4.8-0.1,5.7,2.7c0.7,2.1-0.1,5.4-1.5,7c-0.3,0.3-0.6,0.6-1.1,0.8
					c-0.6,3.1-1.3,6.3-2.3,10.4c-0.8,2.9-2.1,6.2-3.6,8.9c-0.7,1.3-1.3,1.9-2.8,2.6c-0.1-1.3-1.4-1.9-1.6-3.2
					c-0.3-1.6,0.7-2.9-0.2-4.3c-1.8-2.6-3-5.5-3.6-8.5c-0.5-2.4-0.5-5,0.7-7.2c0.4-0.8,1-1.5,1.7-2.2c-0.3-0.6-0.6-1.3-0.8-1.9
					c-1.1,1.8-1.8,3.1-4.5,3.9c-1.9,0.6-4.2-0.1-4.9-2c-0.4,1.9-3.3,4.5-5.1,4.7c-1.8,0.2-2.5-0.7-3.2-2.4c-1.6,1.4-2.8,2.9-4.5,3.5
					c-2.5,1-5.6-0.6-6.4-3.3C110.1,52.8,111.7,49.6,114.2,48.8z"/>
				<path class="st3" d="M143.2,78.7c-0.1,0-0.1,0-0.2-0.1c-0.1-0.1-0.2-0.2-0.2-0.3c0-0.5-0.4-1-0.7-1.4c-0.4-0.5-0.8-1-0.9-1.7
					c-0.1-0.7,0-1.3,0.1-1.9c0.1-0.8,0.3-1.5-0.2-2.3c-1.8-2.7-3.1-5.6-3.6-8.6c-0.6-3-0.3-5.4,0.7-7.5c0.4-0.8,0.9-1.5,1.6-2.1
					c-0.1-0.3-0.3-0.6-0.4-1c-0.9,1.4-1.8,2.6-4.3,3.4c-1.9,0.6-3.9,0-4.9-1.4c-0.9,1.9-3.4,3.9-5.1,4.1c-1.8,0.2-2.7-0.6-3.4-2.1
					c-0.3,0.2-0.5,0.5-0.8,0.7c-1.1,1-2.1,2-3.4,2.5c-1.3,0.5-2.7,0.4-4.1-0.3c-1.4-0.7-2.4-1.9-2.9-3.2c-0.7-2.4,0.3-5.1,2.3-6.5
					c-0.3-0.1-0.6-0.3-0.9-0.5c-0.9-0.7-1.5-1.8-1.5-2.9c0-1.8,1.2-3.7,3-4.6c1.3-0.7,2.9-0.9,4.3-1.1c0.2,0,0.4,0,0.6-0.1
					c-0.4-1.7,0.3-3.8,1.9-5c1.4-1.1,3.4-1.5,5.5-1.3c1.5,0.2,2.6,0.6,3.5,1.4c0.9,0.7,1.4,1.7,1.6,2.7c1.8-1.9,4.2-2.7,6.4-2.2
					c2.2,0.5,4.1,3,4.6,5.1c1.4-1.5,2.8-2.2,4.3-2.1c1.5,0.1,2.7,0.7,3.3,1.7c0.8,1.2,0.8,3.1,0.1,5.2c0.9-0.2,1.9-0.1,2.8,0.2
					c1.2,0.5,2.2,1.6,2.6,2.9c0.7,2.2,0,5.6-1.6,7.3c-0.2,0.3-0.6,0.5-1,0.8C151.7,60,151,63.3,150,67c-0.8,3-2.1,6.3-3.7,9
					c-0.7,1.3-1.3,2-2.9,2.7C143.3,78.6,143.3,78.7,143.2,78.7z M139.4,50.6C139.4,50.6,139.5,50.6,139.4,50.6
					c0.2,0,0.3,0.1,0.3,0.3c0.2,0.7,0.5,1.3,0.7,1.9c0.1,0.1,0,0.3-0.1,0.4c-0.7,0.6-1.2,1.3-1.6,2.1c-1,1.9-1.2,4.2-0.6,7
					c0.6,2.9,1.8,5.7,3.5,8.3c0.6,1,0.5,1.9,0.3,2.8c-0.1,0.5-0.2,1.1-0.1,1.7c0.1,0.5,0.4,0.9,0.7,1.4c0.3,0.4,0.6,0.8,0.8,1.3
					c1.1-0.6,1.6-1.2,2.2-2.2c1.5-2.6,2.8-5.8,3.6-8.8c1-3.7,1.7-7,2.3-10.3c0-0.1,0.1-0.2,0.2-0.3c0.4-0.2,0.7-0.5,1-0.7
					c1.4-1.6,2.1-4.7,1.5-6.6c-0.4-1.2-1.2-2-2.2-2.5c-1-0.4-2.1-0.4-3,0c-0.1,0.1-0.3,0-0.4-0.1c-0.1-0.1-0.1-0.3-0.1-0.4
					c0.9-2.2,1-4.1,0.3-5.3c-0.5-0.8-1.4-1.3-2.7-1.4c-1.4-0.1-2.9,0.7-4.2,2.4c-0.1,0.1-0.2,0.2-0.4,0.1c-0.1,0-0.2-0.2-0.3-0.3
					c-0.2-1.8-1.8-4.7-4.1-5.2c-2.1-0.5-4.5,0.5-6.2,2.6c-0.1,0.1-0.3,0.2-0.4,0.1c-0.1-0.1-0.2-0.2-0.2-0.4c0-1.1-0.5-2.3-1.4-3.1
					c-0.8-0.6-1.8-1-3.2-1.2c-2-0.2-3.7,0.2-5,1.1c-1.4,1.1-2.1,3.1-1.5,4.6c0,0.1,0,0.2,0,0.3c-0.1,0.1-0.2,0.2-0.3,0.2
					c-0.3,0-0.7,0.1-1,0.1c-1.5,0.2-2.8,0.4-4.1,1c-1.3,0.7-2.7,2.2-2.6,4c0,0.9,0.5,1.8,1.2,2.4c0.6,0.4,1.2,0.6,1.8,0.5
					c0.2,0,0.4,0.1,0.4,0.3c0.1,0.2-0.1,0.4-0.2,0.4c-2.4,0.7-3.9,3.8-3.1,6.2c0.4,1.2,1.3,2.2,2.5,2.8c1.1,0.6,2.4,0.6,3.5,0.2
					c1.2-0.4,2.1-1.3,3.2-2.4c0.4-0.3,0.7-0.7,1.1-1.1c0.1-0.1,0.2-0.1,0.3-0.1c0.1,0,0.2,0.1,0.3,0.2c0.7,1.7,1.2,2.3,2.8,2.2
					c1.7-0.2,4.4-2.7,4.8-4.4c0-0.2,0.2-0.3,0.3-0.3c0.2,0,0.3,0.1,0.4,0.2c0.6,1.7,2.8,2.3,4.4,1.7c2.6-0.8,3.3-2.1,4.3-3.8
					C139.2,50.7,139.3,50.6,139.4,50.6z"/>
				<path class="st0" d="M117,59.1c0-0.1,0-0.2,0-0.3c0.1,0,0.2-0.1,0.3-0.1c1.6-0.6,2.8-2.1,4.5-3.5c0.7,1.7,1.4,2.6,3.2,2.4
					c1.8-0.2,4.7-2.8,5.1-4.7c0.6,1.8,2.9,2.6,4.9,2c2.6-0.9,3.4-2.1,4.5-3.9c0.6,1.8,1.5,3.7,3.5,5.2c0.7,0.5,1.5,0.9,2.3,1.1
					c0,0.4,0.1,0.7,0.1,1c0.1,1.2,0.5,3.9,0.2,6.5c2.1-1.7,3.8-1.4,5-0.1c1.3,1.3,1.2,3.3-0.1,4.6c-1.2,1.3-3.4,1.8-5.4,1.3
					c-0.5,3.2-1.2,9.7-3.5,12.6c-2.4,3.1-6.6,5-11,5.1c-4.4,0.1-8.8-1.7-11.5-4.7c-3-3.4-3.7-7.8-3.5-12
					C115.9,67.4,117,63.3,117,59.1z"/>
				<path class="st3" d="M130.3,88.7c-4.4,0-8.8-1.8-11.5-4.8c-2.7-3-3.9-7.1-3.6-12.3c0.1-1.8,0.4-3.7,0.6-5.5
					c0.3-2.3,0.7-4.7,0.7-7c0-0.1,0-0.2,0-0.3c0-0.2,0.1-0.3,0.3-0.3c0.1,0,0.2-0.1,0.3-0.1c1.2-0.4,2.1-1.3,3.2-2.4
					c0.4-0.3,0.7-0.7,1.1-1.1c0.1-0.1,0.2-0.1,0.3-0.1c0.1,0,0.2,0.1,0.3,0.2c0.7,1.7,1.2,2.3,2.8,2.2c1.7-0.2,4.4-2.7,4.8-4.4
					c0-0.2,0.2-0.3,0.3-0.3c0.2,0,0.3,0.1,0.4,0.2c0.6,1.7,2.8,2.3,4.4,1.7c2.6-0.8,3.3-2.1,4.3-3.8c0.1-0.1,0.2-0.2,0.4-0.2
					c0.1,0,0.3,0.1,0.3,0.3c0.5,1.4,1.3,3.5,3.4,5c0.6,0.5,1.4,0.8,2.2,1c0.1,0,0.3,0.2,0.3,0.3c0,0.4,0.1,0.7,0.1,1l0,0.1
					c0.1,1.1,0.4,3.4,0.2,5.7c1.8-1.1,3.5-1,4.9,0.4c1.4,1.4,1.4,3.7-0.1,5.1c-1.2,1.2-3.3,1.8-5.3,1.5c0,0.2-0.1,0.5-0.1,0.7
					c-0.5,3.6-1.3,9-3.4,11.7c-2.5,3.1-6.8,5.1-11.3,5.2C130.5,88.7,130.4,88.7,130.3,88.7z M117.4,59.1
					C117.4,59.1,117.4,59.1,117.4,59.1C117.4,59.1,117.4,59.1,117.4,59.1c0,2.4-0.4,4.8-0.7,7.1c-0.3,1.8-0.5,3.6-0.6,5.4
					c-0.3,5,0.8,8.9,3.4,11.8c2.6,2.9,6.9,4.7,11.2,4.6c4.3-0.1,8.4-2,10.7-4.9c2-2.5,2.8-8,3.3-11.3c0.1-0.4,0.1-0.8,0.2-1.1
					c0-0.1,0.1-0.2,0.2-0.2c0.1-0.1,0.2-0.1,0.3-0.1c1.9,0.4,3.9-0.1,5-1.2c1.2-1.2,1.2-3,0.1-4.1c-1.3-1.3-2.8-1.3-4.5,0.2
					c-0.1,0.1-0.3,0.1-0.4,0c-0.1-0.1-0.2-0.2-0.2-0.4c0.3-2.6,0-5.2-0.2-6.4l0-0.1c0-0.2-0.1-0.5-0.1-0.8c-0.8-0.2-1.5-0.6-2.2-1.1
					c-1.9-1.4-2.8-3.1-3.4-4.6c-0.9,1.4-1.8,2.6-4.3,3.4c-1.9,0.6-3.9,0-4.9-1.4c-0.9,1.9-3.4,3.9-5.1,4.1c-1.8,0.2-2.7-0.6-3.4-2.1
					c-0.3,0.2-0.5,0.5-0.8,0.7C119.8,57.6,118.8,58.6,117.4,59.1C117.4,59.1,117.4,59.1,117.4,59.1z M117,59.1L117,59.1L117,59.1z"
					/>
				<path class="st3" d="M145.3,67.3C145.3,67.3,145.3,67.3,145.3,67.3c-0.2,0-0.4-0.2-0.4-0.4c0.2-1.1,0.2-1.7,0.3-2.9
					c0-0.2,0.2-0.4,0.4-0.3c0.2,0,0.3,0.2,0.3,0.4c-0.1,1.1-0.2,1.7-0.3,2.9C145.6,67.2,145.5,67.3,145.3,67.3z"/>
				<path class="st0" d="M70.9,131.5c-1.3,0-2.5-0.5-3.8-1.4c-2-1.5-3.9-5.3-4-6l0,0c-0.9-4.2-1.5-9.8-2.3-15.7
					c-1-8.3-2-16.8-3.7-22.7c-2.4-2.4-5.4-6.7-6.6-10.8c-0.5-1.7-0.4-2.5,0.7-3.6c0.6-0.6,1.6-0.7,2.4-0.5c-0.3-0.7-0.6-1.6,0.4-2.4
					c0.6-0.5,1.2-0.6,1.8-0.6c0.1-0.9,0.6-1.6,1.3-1.9c0.4-0.1,0.9-0.2,1.4,0c-0.7-1.8-1.4-3.7-2.3-5.6c-0.7-1.6-1.3-3.4-0.2-4.1
					c0.4-0.2,0.7-0.3,1.1-0.2c0.9,0.2,1.7,1.3,2.9,3.5l0,0.1c2.1,4,2.8,5.3,5.1,8.9c2.2,3.3,4.1,9.8,2.4,12.4
					c0.3,4.2,9.4,29.5,13.2,35.3c1.1,1.7,0.4,3-0.4,4.4c-0.3,0.5-0.6,1.1-0.9,1.7c-1.2,2.9-3.6,7.9-7.3,9
					C71.9,131.5,71.4,131.5,70.9,131.5z M52.9,71.5c-0.4,0-0.8,0.1-1,0.4c-0.9,0.9-0.9,1.4-0.5,2.9c1.1,4,4,8.2,6.4,10.6
					c0,0,0.1,0.1,0.1,0.2c1.7,6,2.7,14.6,3.7,22.9c0.7,5.9,1.4,11.4,2.2,15.6c0.1,0.5,1.9,4.2,3.7,5.5c1.6,1.2,3.1,1.5,4.6,1.1
					c3.4-1,5.8-5.8,6.9-8.6c0.3-0.7,0.6-1.3,0.9-1.8c0.8-1.3,1.3-2.3,0.4-3.6c-3.6-5.6-13.2-31.3-13.3-35.8c0-0.1,0-0.2,0.1-0.2
					c1.6-2.1,0-8.1-2.3-11.7c-2.4-3.6-3.1-5-5.2-9l0-0.1c-0.7-1.3-1.6-3-2.5-3.2c-0.2,0-0.4,0-0.5,0.1c-0.7,0.5,0.2,2.5,0.4,3.2
					c1,2.4,2,4.8,2.8,6.9c0.1,0.2,0,0.4-0.2,0.5c-0.2,0.1-0.4,0-0.5-0.1c-0.4-0.7-1.1-1-1.6-0.7c-0.5,0.2-1,0.8-0.8,1.7
					c0,0.1,0,0.3-0.2,0.4c-0.1,0.1-0.3,0.1-0.4,0c-0.5-0.3-1.1-0.1-1.5,0.3c-0.7,0.6-0.5,1-0.1,1.8c0.1,0.2,0.2,0.4,0.3,0.7
					c0.1,0.1,0,0.3-0.1,0.4c-0.1,0.1-0.3,0.1-0.4,0C53.9,71.6,53.3,71.5,52.9,71.5z M52.9,71.5c-0.4,0-0.8,0.1-1,0.4
					c-0.9,0.9-0.9,1.4-0.5,2.9c1.1,4,4,8.2,6.4,10.6c0,0,0.1,0.1,0.1,0.2c1.7,6,2.7,14.6,3.7,22.9c0.7,5.9,1.4,11.4,2.2,15.6
					c0.1,0.5,1.9,4.2,3.7,5.5c1.6,1.2,3.1,1.5,4.6,1.1c3.4-1,5.8-5.8,6.9-8.6c0.3-0.7,0.6-1.3,0.9-1.8c0.8-1.3,1.3-2.3,0.4-3.6
					c-3.6-5.6-13.2-31.3-13.3-35.8c0-0.1,0-0.2,0.1-0.2c1.6-2.1,0-8.1-2.3-11.7c-2.4-3.6-3.1-5-5.2-9l0-0.1c-0.7-1.3-1.6-3-2.5-3.2
					c-0.2,0-0.4,0-0.5,0.1c-0.7,0.5,0.2,2.5,0.4,3.2c1,2.4,2,4.8,2.8,6.9c0.1,0.2,0,0.4-0.2,0.5c-0.2,0.1-0.4,0-0.5-0.1
					c-0.4-0.7-1.1-1-1.6-0.7c-0.5,0.2-1,0.8-0.8,1.7c0,0.1,0,0.3-0.2,0.4c-0.1,0.1-0.3,0.1-0.4,0c-0.5-0.3-1.1-0.1-1.5,0.3
					c-0.7,0.6-0.5,1-0.1,1.8c0.1,0.2,0.2,0.4,0.3,0.7c0.1,0.1,0,0.3-0.1,0.4c-0.1,0.1-0.3,0.1-0.4,0C53.9,71.6,53.3,71.5,52.9,71.5z
					"/>
				<path class="st3" d="M56.2,77.6c-0.3,0-0.6-0.1-0.9-0.3c-0.4-0.3-0.7-0.6-0.9-1l-1.1-1.5c-0.1-0.2-0.1-0.4,0.1-0.5
					c0.2-0.1,0.4-0.1,0.5,0.1l1.1,1.5c0.2,0.3,0.5,0.6,0.7,0.8c0.3,0.2,0.6,0.2,0.8,0.1c0.3-0.1,0.4-0.5,0.3-0.8
					c0-0.4-0.2-0.7-0.4-1.1c-0.7-1.3-0.8-1.5-1.4-2.2c-0.2-0.2-0.5-0.6-0.8-1c-0.1-0.2-0.1-0.4,0.1-0.5c0.2-0.1,0.4-0.1,0.5,0.1
					c0.3,0.4,0.6,0.7,0.8,1c0.6,0.7,0.8,0.9,1.5,2.3c0.2,0.4,0.4,0.9,0.4,1.4c0,0.6-0.3,1.2-0.7,1.4C56.6,77.5,56.4,77.6,56.2,77.6z
					"/>
				<path class="st3" d="M58.9,76.9c-0.4,0-0.8-0.2-1.2-0.5c-0.3-0.2-0.6-0.4-1-0.7c-0.2-0.1-0.2-0.4-0.1-0.5
					c0.1-0.2,0.4-0.2,0.5-0.1c0.3,0.2,0.6,0.5,0.9,0.7c0.3,0.2,0.6,0.4,0.9,0.3c0.3-0.1,0.5-0.5,0.5-1c0-0.7-0.6-2.3-3.4-6.5
					L56,68.6c-0.1-0.2-0.1-0.4,0.1-0.5c0.2-0.1,0.4-0.1,0.5,0.1l0.1,0.1c2.4,3.5,3.5,5.7,3.5,6.9c0,0.7-0.3,1.5-1,1.7
					C59.1,76.9,59,76.9,58.9,76.9z"/>
				<path class="st3" d="M60.8,79.8c-0.2,0-0.3-0.1-0.4-0.3c-0.5-1.8,0.6-3.3,1.3-4.4c0.3-0.4,0.7-1,0.6-1.2c-0.3-0.5-1.9-1-2.7-1.2
					c-0.5-0.1-0.7-0.2-0.8-0.3c-0.8-0.5-1.1-1.1-1.2-1.5c-0.1-0.3,0-0.7,0.2-0.9c0.2-0.3,1-0.9,1.5-1c0.9-0.1,2.9,0.4,4.7,0.9
					c0.2,0.1,0.4,0.1,0.6,0.2c0.7,0.2,2.6,1.3,2.6,2.2c0,0.2-0.1,0.4-0.3,0.4c-0.2,0-0.4-0.1-0.4-0.3c0-0.3-1.4-1.4-2.1-1.6
					c-0.2,0-0.4-0.1-0.6-0.2c-1.3-0.3-3.6-0.9-4.5-0.8c-0.2,0-0.8,0.4-1,0.7c0,0-0.1,0.1,0,0.3c0,0.2,0.2,0.6,0.9,1
					c0.1,0,0.4,0.1,0.6,0.2c1.4,0.4,2.7,0.9,3.1,1.6c0.3,0.5-0.1,1.2-0.7,2c-0.7,1-1.7,2.3-1.2,3.8C61.2,79.6,61.1,79.8,60.8,79.8
					C60.8,79.8,60.8,79.8,60.8,79.8z"/>
				<path class="st3" d="M60.9,70c-0.2,0-0.3-0.1-0.3-0.3c-0.1-0.4-0.6-1.1-0.9-1.7c-0.2-0.3-0.4-0.6-0.5-0.9
					c-0.1-0.2,0-0.4,0.1-0.5c0.2-0.1,0.4,0,0.5,0.1c0.1,0.2,0.3,0.5,0.5,0.8c0.4,0.7,0.9,1.5,1,1.9c0.1,0.2,0,0.4-0.2,0.5
					C61,70,60.9,70,60.9,70z"/>
				<path class="st3" d="M60.5,76c-0.2,0-0.4,0-0.5-0.1c-0.2-0.1-0.3-0.3-0.2-0.5c0.1-0.2,0.3-0.3,0.5-0.2c0.2,0.1,0.5,0,0.7-0.2
					c0.4-0.3,0.4-0.9,0.2-1.7c-0.1-0.2,0-0.4,0.2-0.5c0.2-0.1,0.4,0,0.5,0.2c0.5,1.5-0.1,2.2-0.4,2.4C61.2,75.9,60.8,76,60.5,76z"/>
				<path class="st3" d="M185.1,138.6c-2.6-13.7-2.6-28.4-13.7-37.6c-5.3-4.4-17.9-6.3-25.2-6.8c-0.5,7.1-7.4,8.8-11.9,8.5
					c-7.5-0.5-8.8-1.9-10.7-7.6c-1.7,0.7-11.7,1.2-18.3,7c-12.1,10.8-27,9.8-25.9,10.5c0.9,0.6-2.4,15.7-11.6,17.6
					c-4.9,1,22.2,5,40.8,0.1c-0.7,9.7,2.8,38.1,4.8,49c19.4,13.5,59.2-1.8,59.2-1.8s-3-9-3-15.7c0-3.4,7.9,4.1,9.4,4.4
					c0.5,0.1,2.1-1.1,2.3-1.5C182.7,161.5,187.5,151.3,185.1,138.6z"/>
				<path class="st3" d="M135.4,185.2c-8,0-16.1-1.4-22.2-5.6c-0.1-0.1-0.1-0.1-0.2-0.2c-2-10.9-5.4-38.5-4.8-48.6
					c-16.7,4.3-39.8,1.6-41.2,0.1c-0.1-0.1-0.2-0.3-0.1-0.5c0.1-0.3,0.5-0.4,0.8-0.5c4.5-0.9,7.4-5,9-8.3c2.1-4.2,2.6-8.1,2.4-8.6
					c-0.2-0.2-0.2-0.4-0.2-0.4c0.1-0.4,0.4-0.4,1.8-0.6c4.1-0.5,14.9-1.7,24.3-10.1c5.2-4.6,12.4-5.9,16.3-6.6
					c1-0.2,1.8-0.3,2.1-0.5c0.1,0,0.2,0,0.3,0c0.1,0,0.2,0.1,0.2,0.2c1.9,5.5,3,6.9,10.3,7.4c1.2,0.1,4.4,0.1,7.2-1.4
					c2.6-1.4,4.1-3.7,4.2-6.8c0-0.1,0.1-0.2,0.1-0.3c0.1-0.1,0.2-0.1,0.3-0.1c8.6,0.6,20.4,2.7,25.4,6.9c9.1,7.6,10.8,19,12.5,30.1
					c0.4,2.6,0.8,5.2,1.3,7.8c2.3,12.1-2,22-3.6,25.7c-0.1,0.2-0.1,0.3-0.2,0.5c-0.3,0.6-2,1.9-2.7,1.8c-0.6-0.1-1.6-0.9-3.3-2.1
					c-1.8-1.3-4.8-3.5-5.5-3.1c-0.1,0.1-0.2,0.3-0.2,0.5c0,6.6,3,15.5,3,15.6c0.1,0.2,0,0.4-0.2,0.5c-0.1,0-10.1,3.9-22.4,6
					C145.8,184.6,140.6,185.2,135.4,185.2z M113.7,179.1c9.9,6.8,25.3,6,36.5,4c11-1.9,20.1-5.1,21.9-5.8c-0.5-1.7-3-9.5-3-15.5
					c0-0.7,0.3-1,0.6-1.1c1.1-0.5,3.2,0.9,6.3,3.2c1.3,0.9,2.6,1.9,3,2c0,0,0,0,0,0c0.4,0,1.8-1,1.9-1.3c0.1-0.1,0.1-0.3,0.2-0.5
					c1.6-3.7,5.8-13.4,3.5-25.3c-0.5-2.6-0.9-5.2-1.3-7.8c-1.7-11.4-3.4-22.2-12.3-29.6c-4.8-4-16.2-6.1-24.7-6.7
					c-0.3,3.1-1.9,5.5-4.6,7c-3,1.6-6.3,1.6-7.6,1.5c-7.4-0.5-9-2-10.9-7.5c-0.4,0.1-1.1,0.2-1.9,0.4c-3.8,0.7-10.9,2-15.9,6.5
					c-9.5,8.5-20.5,9.8-24.7,10.2c-0.4,0-0.8,0.1-1.1,0.1c0.1,0.4,0.1,1-0.2,2.3c-0.9,4.7-4.5,14-11.8,15.5
					c3.3,1.2,24.9,3.5,40.6-0.6c0.1,0,0.2,0,0.3,0.1s0.1,0.2,0.1,0.3C108.3,139.8,111.7,167.9,113.7,179.1z"/>
				<path class="st0" d="M165.1,151c-0.2,0-0.3-0.1-0.3-0.3c-4-12-6.2-19.6-6.2-36c0-0.2,0.2-0.4,0.4-0.4s0.4,0.2,0.4,0.4
					c0,16.3,2.2,23.8,6.2,35.7c0.1,0.2,0,0.4-0.2,0.5C165.2,151,165.1,151,165.1,151z"/>
				<path class="st0" d="M108.6,130.7c-0.1,0-0.2,0-0.2-0.1c-0.2-0.2-0.2-0.4-0.2-2.8c0-1.8-0.1-4.8-0.2-9.4c0-0.2,0.2-0.4,0.4-0.4
					c0.2,0,0.4,0.2,0.4,0.4c0.2,4.6,0.2,7.6,0.2,9.4c0,1.3,0,2.2,0.1,2.4c0.1,0.1,0.1,0.3,0,0.4
					C108.8,130.6,108.7,130.7,108.6,130.7z M108.8,130C108.8,130,108.8,130,108.8,130C108.8,130,108.8,130,108.8,130z"/>
				<path class="st3" d="M166.1,151.7c-0.2,0-0.3-0.1-0.4-0.3c-2.7-9.8-4.5-20-5.4-30.1c0-0.2,0.1-0.4,0.3-0.4
					c0.2,0,0.4,0.1,0.4,0.3c0.9,10.1,2.7,20.1,5.4,29.9C166.5,151.4,166.4,151.6,166.1,151.7C166.2,151.7,166.1,151.7,166.1,151.7z"
					/>
				<path class="st0" d="M167.7,154.3c1.4-1.4,4.2-0.9,6,0c0.9,0.4,8,7,5.4,12.6c-2.3,4.8-3.7,6.6-15.6,24.2
					c-0.4,0.7-0.9,1.3-1.6,1.7c-2.1,1.3-4.9-0.7-5.8-3.1c-2-5,0.6-10.4,3.1-15.2C161.5,169.7,166.2,155.6,167.7,154.3z"/>
				<path class="st3" d="M160.4,193.5c-0.4,0-0.8-0.1-1.2-0.2c-1.5-0.5-2.9-1.9-3.6-3.5c-2.1-5.3,0.9-11.2,3.1-15.5
					c1.1-2.1,2.6-6.1,4.1-9.9c2.3-6,3.8-9.7,4.6-10.5l0,0c1.5-1.4,4.3-1.1,6.4-0.1c1.1,0.5,8.3,7.3,5.6,13.1
					c-1.8,3.8-3.1,5.7-9.4,15c-1.7,2.5-3.7,5.5-6.2,9.2c-0.4,0.6-0.9,1.4-1.7,1.9C161.5,193.4,161,193.5,160.4,193.5z M170.2,153.8
					c-0.9,0-1.7,0.2-2.2,0.7l0,0c-0.7,0.7-2.7,5.8-4.4,10.2c-1.5,3.8-3,7.8-4.1,10c-2.1,4.2-5,9.9-3,14.9c0.6,1.4,1.8,2.7,3.1,3.1
					c0.6,0.2,1.4,0.3,2.2-0.2c0.6-0.4,1.1-1.1,1.5-1.6c2.5-3.7,4.5-6.7,6.2-9.2c6.3-9.3,7.6-11.2,9.4-14.9
					c2.6-5.4-4.7-11.8-5.3-12.1C172.5,154.1,171.3,153.8,170.2,153.8z M167.7,154.3L167.7,154.3L167.7,154.3z"/>
				<path class="st0" d="M167.7,188.3c-1.5-0.1-3.2,0.3-3.8,1.7c-0.6,1.4-0.1,3.2,1,4.2c1.1,1,2.8,1.4,4.3,1
					c0.8-0.2,1.6-0.6,2.1-1.3c0.3-0.5,0.5-1.1,0.5-1.6C171.8,190.4,170.9,188.6,167.7,188.3z"/>
				<path class="st3" d="M116.7,211.3C116.7,211.3,116.7,211.3,116.7,211.3c-0.2,0-0.4-0.2-0.4-0.4c0.4-5.6-0.3-14.2-0.9-22.6
					c-0.3-3.9-0.6-7.5-0.8-10.8c0-0.2,0.1-0.4,0.3-0.4c0.2,0,0.4,0.1,0.4,0.3c0.2,3.3,0.5,6.9,0.8,10.8c0.7,8.4,1.4,17,0.9,22.7
					C117,211.1,116.9,211.3,116.7,211.3z"/>
			</g>
			<g>
				<path class="st0" d="M51.8,121.9c-1.2,5.4-1.3,12.8-1.3,12.8l3.1,1.3c0,0,3,12.2-15.8,8.5c-3.6-0.7-14.2-8.7-14.2-8.7l8.3-2.4
					c0,0,0.8-12.1,1.1-18.2C37.5,117.3,46.5,120.3,51.8,121.9z"/>
				<path class="st3" d="M44.3,145.6c-1.9,0-4.1-0.2-6.5-0.7c-3.7-0.7-13.9-8.5-14.3-8.8c-0.1-0.1-0.2-0.2-0.1-0.4
					c0-0.1,0.1-0.2,0.3-0.3l8.1-2.3c0.1-1.8,0.8-12.4,1.1-17.9c0-0.1,0.1-0.2,0.2-0.3c0.1-0.1,0.2-0.1,0.3,0
					c4.2,1.9,12.6,4.8,18.6,6.7c0.2,0.1,0.3,0.2,0.2,0.4c-1.1,4.7-1.2,11.2-1.3,12.5l2.9,1.2c0.1,0,0.2,0.1,0.2,0.3
					c0,0.2,1,4.2-1.7,7C50.6,144.7,47.9,145.6,44.3,145.6z M24.5,135.9c2.3,1.7,10.4,7.6,13.5,8.2c6.8,1.4,11.4,0.8,13.8-1.7
					c2.1-2.2,1.7-5.4,1.6-6.2l-3-1.2c-0.1-0.1-0.2-0.2-0.2-0.3c0-0.1,0-7.3,1.2-12.6c-5.7-1.8-13.6-4.5-17.9-6.4
					c-0.3,6.1-1.1,17.5-1.1,17.6c0,0.2-0.1,0.3-0.3,0.3L24.5,135.9z"/>
				<path class="st3" d="M42.6,76.9C34.2,76.6,26,82,26.7,86.4c-4-1.2-8.6,6.5-8.4,10.1c0.2,4.6,9.2,19.9,11.1,22.3
					c0.9,1.1,1.6,1.7,3.1,2.1c-0.1-1.3,1.1-2.1,1.1-3.4c0-1.6-2.1-4.3-0.4-4.3c7.9,0.2,6.9,2,22-12.7c1.9-1.9,3.2-6.4,3.6-9.8
					C59.2,87.5,56.8,77.5,42.6,76.9z"/>
				<path class="st3" d="M32.5,121.3c0,0-0.1,0-0.1,0c-1.7-0.5-2.4-1.1-3.3-2.3c-2-2.5-11-17.9-11.2-22.5c-0.1-2.8,2.3-7.3,4.9-9.4
					c1.2-0.9,2.4-1.3,3.5-1.2c0-1.3,0.6-2.6,1.8-3.9c2.5-2.8,8.2-5.7,14.6-5.5c5.9,0.2,10.6,2.2,13.5,5.6c2.5,2.9,3.3,6.6,3,8.7
					c-0.5,3.6-1.8,8.1-3.7,10c-13.6,13.2-14.3,13.2-20,12.9c-0.7,0-1.4-0.1-2.3-0.1c-0.2,0-0.2,0-0.2,0c-0.1,0.2,0.2,1.1,0.4,1.6
					c0.3,0.8,0.6,1.6,0.6,2.3c0,0.7-0.3,1.3-0.6,1.8c-0.3,0.5-0.6,1-0.5,1.5c0,0.1,0,0.2-0.1,0.3C32.6,121.3,32.6,121.3,32.5,121.3z
					 M25.8,86.7c-1,0-2,0.6-2.6,1.1c-2.7,2.1-4.7,6.5-4.6,8.8c0.2,4.5,9.1,19.6,11.1,22.1c0.7,0.9,1.3,1.4,2.5,1.9
					c0.1-0.5,0.3-1,0.6-1.4c0.3-0.5,0.5-0.9,0.5-1.5c0-0.5-0.3-1.3-0.6-2c-0.4-1-0.7-1.8-0.4-2.3c0.2-0.2,0.5-0.4,0.9-0.4
					c0.9,0,1.6,0.1,2.3,0.1c5.5,0.3,6.1,0.3,19.5-12.7c1.8-1.8,3.1-6.1,3.5-9.6c0.2-1.4-0.2-5-2.9-8.1c-2.8-3.3-7.2-5.1-13-5.3
					c-6.2-0.2-11.6,2.5-14,5.2c-1.2,1.3-1.7,2.6-1.6,3.8c0,0.1,0,0.2-0.1,0.3c-0.1,0.1-0.2,0.1-0.3,0.1
					C26.3,86.7,26.1,86.7,25.8,86.7z"/>
				<path class="st0" d="M55.7,98.2c0-0.1-2.9,0.3-5.3-3.2c-0.5,1.8-0.7,3.7-4.5,3.6c-1.8-0.1-4.5-3-5.2-4.8c0,0,4-1-13.3,6.6
					c0,0.4,0,0.7,0.1,1c0,1.2,0.1,3.9,0.8,6.5c-2.3-1.4-3.9-0.9-5,0.6c-1.1,1.5-0.7,3.5,0.7,4.5c1.4,1.1,3.7,1.2,5.5,0.6
					c1,3.1,2.6,9.5,5.3,12c2.8,2.7,7.3,4,11.6,3.5s8.5-3,10.7-6.3c2.5-3.8,2.6-8.3,1.7-12.4C58,106.3,56.3,102.4,55.7,98.2z"/>
				<path class="st3" d="M44.4,129.6c-3.8,0-7.5-1.3-9.9-3.7c-2.4-2.3-4-7.6-5-11.1c-0.1-0.2-0.1-0.5-0.2-0.7
					c-1.9,0.6-4.1,0.3-5.5-0.7c-1.6-1.2-2-3.5-0.8-5c1.2-1.6,2.8-2,4.8-1.1c-0.5-2.3-0.6-4.6-0.6-5.7l0-0.1c0-0.3,0-0.6,0-1
					c0-0.2,0.1-0.3,0.2-0.4c9.2-4.1,12.2-5.6,13.1-6.2c0,0,0,0,0,0c0-0.1,0-0.2,0-0.3c0-0.1,0.1-0.2,0.2-0.2c0.5-0.1,0.7,0,0.8,0.2
					c0.1,0.2,0.1,0.3-0.2,0.5c0.9,1.7,3.1,4,4.6,4.1c3.2,0.2,3.6-1.3,4-3L50,95c0-0.1,0.1-0.2,0.3-0.3c0.1,0,0.3,0,0.4,0.1
					c1.3,1.9,2.9,2.9,4.8,3c0.2,0,0.5,0,0.5,0.3l0,0c0.3,2.3,1,4.6,1.7,6.8c0.5,1.7,1.1,3.5,1.4,5.3c1.1,5.1,0.5,9.3-1.8,12.7
					c-2.3,3.4-6.5,5.9-10.9,6.5C45.8,129.6,45.1,129.6,44.4,129.6z M29.5,113.3c0.1,0,0.1,0,0.2,0c0.1,0,0.2,0.1,0.2,0.2
					c0.1,0.3,0.2,0.7,0.3,1.1c1,3.2,2.6,8.6,4.9,10.8c2.7,2.6,7.1,3.9,11.3,3.4c4.3-0.5,8.3-2.9,10.4-6.1c2.1-3.2,2.7-7.2,1.6-12.1
					c-0.4-1.8-0.9-3.5-1.4-5.3c-0.6-2.2-1.3-4.4-1.7-6.7c-1.9-0.2-3.5-1.1-4.8-2.7c-0.4,1.6-1.1,3.3-4.6,3.1
					c-1.8-0.1-4.1-2.5-5.2-4.4c-0.4,0.2-0.9,0.5-1.7,0.9c-2.2,1.1-6,2.9-11.2,5.1c0,0.3,0,0.6,0,0.8l0,0.1c0,1.2,0.1,3.8,0.8,6.3
					c0,0.1,0,0.3-0.1,0.4c-0.1,0.1-0.3,0.1-0.4,0c-1.9-1.2-3.4-1-4.5,0.5c-0.9,1.3-0.6,3,0.7,4c1.3,1,3.3,1.2,5.2,0.5
					C29.4,113.3,29.5,113.3,29.5,113.3z M55.6,98.6L55.6,98.6L55.6,98.6z M55.3,98.3L55.3,98.3C55.3,98.3,55.3,98.3,55.3,98.3
					L55.3,98.3z"/>
				<path class="st3" d="M28.8,110.4c-0.2,0-0.3-0.1-0.4-0.3c-0.3-1.1-0.5-1.7-0.7-2.8c0-0.2,0.1-0.4,0.3-0.4c0.2,0,0.4,0.1,0.4,0.3
					c0.3,1.1,0.4,1.7,0.7,2.8C29.2,110.2,29.1,110.4,28.8,110.4C28.9,110.4,28.8,110.4,28.8,110.4z"/>
				<path class="st3" d="M28.8,182c2.2-18.8,2.1-37.4,0.5-48.2c-7.4,0.5-19.9,2.4-25.2,6.8c-11,9.2-11.1,23.9-13.7,37.6
					c-2.4,12.6-3.5,25-0.1,29.4c0.3,0.4,2.8,2.1,3.3,2c1.6-0.3,12.3-11.5,12.3-8.2c0,6.8-0.9,9.5-0.9,9.5h18.6
					C23.7,210.9,28.1,188.4,28.8,182z"/>
				<path class="st3" d="M23.7,211.3H5.1c-0.1,0-0.2-0.1-0.3-0.1c-0.1-0.1-0.1-0.2-0.1-0.3c0,0,0.8-2.8,0.8-9.4c0-0.2,0-0.2-0.1-0.2
					c-0.8-0.4-5,3.3-7.3,5.3c-2.5,2.2-3.9,3.4-4.5,3.5c-0.8,0.1-3.4-1.7-3.7-2.1c-3.7-4.8-2-18.8,0-29.7c0.5-2.6,0.9-5.2,1.3-7.8
					c1.7-11.1,3.4-22.5,12.5-30.1c5-4.2,16.9-6.3,25.4-6.9c0.2,0,0.4,0.1,0.4,0.3c1.7,11.7,1.5,30.6-0.5,48.2
					c-0.7,6.4-5,28.7-5.1,29C24,211.1,23.9,211.3,23.7,211.3z M5.6,210.5h17.8c0.5-2.7,4.3-22.7,5-28.6c2-17.4,2.2-36.1,0.6-47.7
					c-8.4,0.6-19.8,2.7-24.7,6.7c-8.9,7.4-10.5,18.2-12.3,29.6c-0.4,2.6-0.8,5.2-1.3,7.8c-2.9,15.4-3,25.5-0.2,29.1
					c0.3,0.4,2.6,1.8,3,1.8c0.4-0.1,2.4-1.8,4.2-3.3c4.1-3.6,6.9-5.9,8.1-5.4c0.2,0.1,0.5,0.3,0.5,0.9
					C6.3,206.7,5.8,209.5,5.6,210.5z"/>
				<path class="st3" d="M85,201.1c5.8-0.7,10.9-22.1,2.2-23.6c-1.2-0.2-6.3-20.6-16.5-33.5c-5.5-6.9-17.1-8.5-18.8-9.2
					c7.5,13-4.4,76.1-4.4,76.1l15.6,0c0,0,3.5-23.3,4.2-28.6c0.5,3,4.4,9.9,8.9,15.2c1.7,2,3.1,1.6,4.2,2.6
					C81.5,201.3,83.7,201.3,85,201.1z"/>
				<path class="st0" d="M63.1,211.3C63.1,211.3,63.1,211.3,63.1,211.3l-15.6,0c-0.1,0-0.2,0-0.3-0.1c-0.1-0.1-0.1-0.2-0.1-0.3
					c0.1-0.6,11.8-63.2,4.4-75.9c-0.1-0.1-0.1-0.3,0-0.4c0.1-0.1,0.3-0.2,0.4-0.1c0.3,0.1,0.9,0.3,1.7,0.5
					c3.8,0.9,12.7,3.1,17.2,8.9c7.1,8.9,11.8,21.6,14.3,28.4c0.9,2.4,1.7,4.7,2.1,5c3.2,0.6,5,3.9,4.9,9.1
					c-0.2,6.5-3.4,14.8-7.2,15.2l0,0c-1.3,0.2-3.7,0.2-5-1.1c-0.4-0.4-0.8-0.5-1.3-0.7c-0.8-0.3-1.8-0.7-2.8-1.9
					c-3.6-4.3-7.1-10-8.4-13.6c-1,7.4-3.9,26.7-4,26.9C63.4,211.2,63.3,211.3,63.1,211.3z M48,210.5l14.8,0
					c0.4-2.8,3.5-23.3,4.1-28.3c0-0.2,0.2-0.3,0.4-0.3c0.2,0,0.3,0.1,0.4,0.3c0.5,3.1,4.5,10,8.8,15c0.9,1.1,1.7,1.4,2.5,1.7
					c0.6,0.2,1.1,0.4,1.6,0.9c1.2,1.2,3.5,1,4.4,0.9c3.1-0.4,6.4-7.7,6.5-14.5c0.1-2.3-0.3-7.7-4.4-8.4c-0.5-0.1-0.9-1-2.6-5.5
					c-2.5-6.8-7.2-19.3-14.2-28.2c-4.4-5.6-13.1-7.7-16.8-8.6c-0.3-0.1-0.7-0.2-0.9-0.2c2.8,6,2.9,20.2,0.3,42.4
					C51.1,193.4,48.5,207.9,48,210.5z M85,201.1L85,201.1L85,201.1z"/>
				<path class="st0" d="M9.3,197.1C9.3,197.1,9.3,197.1,9.3,197.1c-0.3-0.1-0.4-0.3-0.4-0.5c1.5-5.9,2.5-12,3.7-20.4
					c0.9-5.7,2-12.9,3.5-21.9c0-0.2,0.2-0.3,0.4-0.3c0.2,0,0.3,0.2,0.3,0.4c-1.6,9.1-2.7,16.2-3.5,21.9c-1.3,8.5-2.2,14.6-3.8,20.5
					C9.6,197,9.5,197.1,9.3,197.1z"/>
				<path class="st0" d="M67.3,182.7c-0.1,0-0.2,0-0.3-0.1c-0.1-0.1-0.1-0.3-0.1-0.4c0.1-0.6,0.6-6.1,1.1-11.9
					c0.3-3.6,0.6-7.7,1-11.3c0-0.2,0.2-0.4,0.4-0.3c0.2,0,0.4,0.2,0.3,0.4c-0.3,3.5-0.7,7.6-1,11.3c-1,12.1-1,12.1-1.2,12.3
					C67.4,182.6,67.4,182.7,67.3,182.7z M67,182C67,182,67,182,67,182C67,182,67,182,67,182z M67,182C67,182,67,182,67,182
					C67,182,67,182,67,182z"/>
				<path class="st0" d="M109.9,160.3c3.7-3.7,2.1-6.2,6.2-11.1c1.7-2,3.4-3.8,4.9-5.4c0.8-0.8,1.5-1.9,2.3-1.2
					c1,0.8-0.1,3.1-0.6,3.8c-1.9,2.8-1.7,3.7-1.7,4.7c3.2-2.5,8.3-5.8,12.2-7.1c0.3-0.1,1,0,1.2,0.2c0.3,0.4,0,1.3-0.6,1.7
					c-2.3,1.6-5.7,4-8,5.7c4.2-2.7,9.7-6,10.6-4.9c0.3,0.3,0.1,1.3-0.5,1.7c-2.5,1.8-5.8,4.1-8.3,5.9c2.2-1.8,8.8-5.8,9.4-4.4
					c0.5,1.4-5.6,5.3-8.2,6.9c2.1-1.3,7-4.4,7.6-3.1c0.4,1-1.1,1.9-1.6,2.3c-3.9,3-8.6,7.2-12.8,8.8c-1,0.4-2.6,0.5-3.5,1.2
					c-0.9,0.7-1.4,1.5-2.2,2.3c-21.1,24-27.8,32.2-31.6,31.4c-3.2-0.7-0.8-13.7,2.4-22.2C88.9,177.5,102.1,168.1,109.9,160.3z"/>
				<path class="st3" d="M85.3,200.1c-0.2,0-0.4,0-0.6-0.1c-0.5-0.1-0.9-0.4-1.2-1c-1.7-3.2,0.4-14,3.4-21.7
					c0.1-0.1,0.2-0.2,0.4-0.2c0,0,0,0,0,0c1.5,0,14.6-9.2,22.5-17l0,0c1.8-1.8,2.3-3.2,2.9-4.9c0.6-1.7,1.3-3.6,3.4-6.1
					c1.7-2,3.3-3.7,4.9-5.4c0.1-0.1,0.2-0.2,0.3-0.4c0.7-0.8,1.5-1.7,2.5-0.9c1.2,1,0,3.5-0.5,4.3c-1.4,2-1.6,3-1.6,3.8
					c3.4-2.6,8.1-5.6,11.7-6.7c0.4-0.1,1.3-0.1,1.6,0.3c0.2,0.2,0.2,0.5,0.2,0.9c-0.1,0.4-0.3,1-0.8,1.3c-0.3,0.2-0.7,0.5-1.1,0.8
					c2.1-1,3.2-1.2,3.7-0.6c0.2,0.2,0.2,0.6,0.2,0.9c-0.1,0.5-0.3,1-0.7,1.3c-0.4,0.3-0.9,0.6-1.3,0.9c0.8-0.3,1.5-0.4,1.9-0.3
					c0.4,0.1,0.5,0.3,0.6,0.5c0.1,0.3,0.4,1.1-2.5,3.4c0.6-0.2,1-0.2,1.3-0.1c0.3,0.1,0.4,0.2,0.5,0.5c0.5,1.1-0.8,2.1-1.5,2.6
					c-0.1,0.1-0.2,0.1-0.2,0.2c-0.7,0.6-1.5,1.2-2.3,1.8c-3.3,2.7-7.1,5.7-10.6,7c-0.4,0.1-0.8,0.2-1.2,0.3
					c-0.8,0.2-1.6,0.4-2.2,0.8c-0.6,0.5-1,1-1.5,1.6c-0.2,0.2-0.4,0.5-0.6,0.7c-2,2.3-3.8,4.4-5.6,6.4
					C94.9,193.3,89,200.1,85.3,200.1z M87.4,177.8c-2.8,7.4-4.8,18.1-3.3,20.9c0.2,0.3,0.4,0.5,0.7,0.6c3.2,0.7,9.3-6.3,25.7-24.9
					c1.7-2,3.6-4.1,5.6-6.4c0.2-0.2,0.4-0.5,0.6-0.7c0.5-0.6,1-1.2,1.7-1.7c0.6-0.5,1.5-0.7,2.4-0.9c0.4-0.1,0.8-0.2,1.1-0.3
					c3.4-1.2,7.1-4.2,10.4-6.8c0.8-0.7,1.6-1.3,2.3-1.9c0.1,0,0.1-0.1,0.2-0.2c0.5-0.4,1.5-1.1,1.2-1.7c0,0,0,0-0.1-0.1
					c-0.9-0.3-3.8,1.4-5.7,2.6c-0.4,0.2-0.8,0.5-1.3,0.8c-0.2,0.1-0.4,0.1-0.5-0.1c-0.1-0.2-0.1-0.4,0.1-0.5l0.1,0
					c0.4-0.2,0.8-0.5,1.1-0.7c5.7-3.6,7.1-5.3,6.9-5.7c0,0,0,0-0.1,0c-0.8-0.2-3.7,1.2-6.1,2.7c-0.9,0.7-1.8,1.3-2.6,1.9
					c-0.2,0.1-0.4,0.1-0.5-0.1c-0.1-0.2-0.1-0.4,0-0.5c0.6-0.5,1.5-1.2,2.6-1.9c0.5-0.4,1-0.7,1.6-1.1c1.4-1,2.9-2,4.2-3
					c0.3-0.2,0.4-0.5,0.4-0.8c0-0.2,0-0.4,0-0.4c0-0.1-0.5-0.5-3.6,1.1c-2,1-4.4,2.5-6.5,3.9c-0.2,0.1-0.4,0.1-0.5-0.1
					c-0.1-0.2-0.1-0.4,0.1-0.5c1.2-0.8,2.6-1.8,4-2.8c1.4-1,2.9-2,4-2.8c0.3-0.2,0.5-0.6,0.5-0.8c0-0.2,0-0.3,0-0.3
					c-0.1-0.1-0.6-0.1-0.8-0.1c-3.7,1.2-8.7,4.4-12,7c-0.1,0.1-0.2,0.1-0.4,0c-0.1-0.1-0.2-0.2-0.2-0.3l0-0.1
					c-0.1-1.1-0.2-2.1,1.7-4.9c0.5-0.7,1.4-2.7,0.6-3.3c-0.4-0.3-0.7-0.1-1.5,0.8c-0.1,0.1-0.2,0.3-0.4,0.4
					c-1.6,1.7-3.2,3.4-4.9,5.4c-2,2.4-2.6,4.2-3.2,5.9c-0.6,1.7-1.1,3.3-3,5.2l0,0c0,0,0,0,0,0C103.1,167.7,90.2,177.2,87.4,177.8z"
					/>
				<path class="st3" d="M120.9,159.9c-0.1,0-0.2,0-0.3-0.1c-0.1-0.2-0.1-0.4,0-0.5c1.5-1.2,2-3.5,1.3-5.3c-0.1-0.3-0.3-0.7-0.5-1
					c-0.3-0.5-0.5-1-0.7-1.5c-0.1-0.2,0.1-0.4,0.2-0.5c0.2-0.1,0.4,0.1,0.5,0.2c0.1,0.5,0.4,0.9,0.6,1.4c0.2,0.4,0.4,0.7,0.5,1.1
					c0.8,2.1,0.2,4.7-1.5,6.1C121.1,159.9,121,159.9,120.9,159.9z"/>
				<path class="st0" d="M5.9,196.7c10.4,1.8,20.8,3.4,31.3,5c1,0.1,5.7,0.4,6.9,0.5c1,0.1,2-0.1,3-0.3c3.4-0.7,10.6-2,11.9-0.9
					c3.2,1.8,5.7,4.9,7.4,8.5c1,2,1.4,5.2,0.7,5.5c-0.4,0.2-1,0.2-1.3-0.2c-0.8-3.8-3-7.2-6.1-9.6c1.4,1.3,2.6,2.7,3.7,4.3
					c1.1,1.6,2,3.4,1.8,5.3c0,0.1,0,0.3-0.1,0.4c-0.3,0.3-0.7,0-0.9-0.3c-0.5-0.6-6.2-7.9-7.5-8c1.6,1.1,6.7,7.5,6.6,8.1
					c0,0.3-0.2,0.5-0.4,0.7c-0.3,0.2-0.7,0.2-1,0.1c-0.3-0.1-0.6-0.4-0.9-0.6c-1.7-1.7-3.2-3.6-5.2-5c-1-0.7-2.3-1.3-3.4-0.8
					c1.8,1.2,3.3,2.7,4.6,4.4c0.2,0.3,0.3,0.6,0.4,0.9c0.1,0.5,0.3,1.2-0.1,1.4c-0.7,0.5-1.1,0.1-1.5-0.3c-1.6-1.7-3.3-3.1-5.1-4.4
					c-0.6-0.4-1.3-0.8-1.9-0.5c-0.6,0.2-3.2,1.1-8.1,0.3c-1.7-0.3-3.4-0.2-5.5-0.1c-28.8,1.3-37.6,2.5-43.6-1.8
					c-1.2-0.8-1.4-1.6-0.5-3.7C-6.6,199.9-4.8,196.8,5.9,196.7z"/>
				<path class="st3" d="M56.5,216.7c-0.5,0-0.9-0.3-1.1-0.6l0,0c-1.6-1.7-3.3-3.1-5-4.3c-0.5-0.3-1.1-0.7-1.6-0.5
					c-1,0.4-3.7,1.1-8.3,0.3c-1.7-0.3-3.4-0.2-5.5-0.1c-3.8,0.2-7.4,0.4-10.5,0.5c-21,1-28.1,1.4-33.3-2.4c-1.4-1-1.6-2-0.6-4.2
					c2.5-5.7,4.5-9,15.3-9.1c0,0,0,0,0.1,0c10.5,1.8,21.1,3.4,31.3,5c0.7,0,3.3,0.3,5.2,0.4c0.7,0.1,1.3,0.1,1.6,0.1
					c1,0.1,2.1-0.1,2.9-0.3c3.1-0.7,10.6-2.1,12.2-0.8c3,1.7,5.6,4.7,7.5,8.7c0.8,1.7,1.7,5.4,0.6,6c-0.6,0.3-1.3,0.3-1.7-0.2
					c0,0.1-0.1,0.2-0.2,0.4c-0.1,0.1-0.3,0.2-0.5,0.2c-0.4,0-0.7-0.3-0.9-0.5c0,0-0.1-0.1-0.2-0.2c-0.1-0.1-0.1-0.2-0.2-0.3
					c0.1,0.2,0.1,0.3,0.1,0.4c-0.1,0.4-0.2,0.7-0.5,0.9c-0.4,0.3-0.9,0.3-1.4,0.1c-0.4-0.2-0.7-0.4-1-0.7c-0.6-0.6-1.1-1.2-1.7-1.8
					c-1.1-1.1-2.2-2.3-3.5-3.2c-0.6-0.4-1.4-0.9-2.2-0.9c1.6,1.1,2.9,2.5,3.9,4c0.2,0.3,0.4,0.6,0.5,1c0.1,0.3,0.4,1.4-0.3,1.8
					C57,216.7,56.7,216.7,56.5,216.7z M49,210.5c0.6,0,1.2,0.3,1.7,0.7c1.8,1.2,3.5,2.7,5.1,4.4l0,0c0.4,0.4,0.6,0.5,1,0.3
					c0.1-0.1,0.2-0.3,0-1c-0.1-0.3-0.2-0.6-0.4-0.8c-1.1-1.7-2.6-3.1-4.5-4.3c-0.1-0.1-0.2-0.2-0.2-0.3c0-0.1,0.1-0.3,0.2-0.3
					c1.3-0.5,2.8,0.2,3.7,0.8c1.3,1,2.5,2.2,3.6,3.3c0.5,0.6,1.1,1.2,1.7,1.7c0.2,0.2,0.5,0.5,0.8,0.6c0.2,0.1,0.5,0.1,0.7,0
					c0.1-0.1,0.2-0.2,0.2-0.4c-0.3-0.9-4.9-6.8-6.4-7.8c-0.1-0.1-0.2-0.3-0.1-0.4c0.1-0.2,0.2-0.3,0.4-0.2c0.3,0,1.4,0.2,7.6,7.9
					c0.1,0.1,0.2,0.2,0.2,0.2c0.2,0.2,0.3,0.3,0.4,0.3c0,0,0,0,0,0c0,0,0,0,0-0.2c0.1-1.5-0.5-3.1-1.8-5.1c-1-1.5-2.3-2.9-3.6-4.2
					c-0.1-0.1-0.2-0.4,0-0.5c0.1-0.2,0.3-0.2,0.5-0.1c3.1,2.4,5.4,5.9,6.2,9.7c0.2,0.2,0.5,0.2,0.8,0c0.3-0.3,0.1-2.9-0.9-5.1
					c-1.8-3.8-4.3-6.8-7.2-8.4c0,0,0,0-0.1,0c-0.8-0.7-5.5-0.4-11.5,0.9c-0.8,0.2-1.9,0.4-3.1,0.3c-0.3,0-0.9-0.1-1.6-0.1
					c-1.8-0.1-4.6-0.4-5.2-0.4c0,0,0,0,0,0c-10.2-1.6-20.8-3.2-31.3-5c-10.4,0.1-12.2,3.1-14.6,8.6c-0.9,2.1-0.6,2.6,0.4,3.3
					c5,3.7,12,3.3,32.8,2.3c3.1-0.2,6.7-0.3,10.5-0.5c2.1-0.1,3.9-0.2,5.6,0.1c4.4,0.8,7,0.1,7.9-0.3
					C48.7,210.6,48.9,210.5,49,210.5z M62.7,215.1L62.7,215.1L62.7,215.1z"/>
			</g>
			<g>
				<path class="st3" d="M232.2,119.4c-0.1,6,3.6,12.2,9.3,14.2c3.1,1.1,6.5,0.9,9.7,1.8c3.2,0.8,6.4,3.2,6.5,6.5
					c0,2.2-1.2,7.1,5.3,10.1c5.4,2.4,4.1,15.4-12.6,20.8c-5.1,1.7-1.8-2.5-7.1-3.4c-5.3-0.8-10-3.8-13.7-7.7
					c-3.6-3.9-6.2-8.7-8.2-13.6c-2.3-5.7-3.9-12-2.5-17.9C220.3,124.3,225.5,118.9,232.2,119.4z"/>
				<path class="st3" d="M199.5,105.6c1.8,8.6,3.5,17.8-0.1,25.9c-1.1,2.6-2.8,5-3.7,7.7c-1.1,3.2-1.2,6.7-0.8,10
					c0.6,6.4,2.5,12.9,7,17.5c4.5,4.6,12,6.6,17.5,3.3c4.9-2.8,7.1-8.9,6.8-14.5s-2.7-10.9-5.2-15.9
					C214.9,127.6,207.8,116,199.5,105.6z"/>
				<path class="st0" d="M211.9,147.5c0.2-4.6-0.4-7.1-0.6-10.6c1.8-0.9,3.8-1.6,5.9-1.9c0.9-0.1,2-0.2,2.7,0.3
					c0.4,0.3,2.5-1.5,2.8-1c1.5,3.5,1.6,8.5,3.1,12c0.1,0.3,5.3-0.2,5.5,0.1c0.5,1.1,0.1,10.6-0.3,10.9
					c-19.1,12.7-28.3-5.5-28.3-5.5S206.1,149.7,211.9,147.5z"/>
				<path class="st3" d="M218.1,162.2c-1.4,0-2.7-0.2-4.1-0.5c-7.8-2.1-11.6-9.3-11.7-9.7c-0.1-0.2,0-0.4,0.1-0.5
					c0,0,3.5-2.1,9.2-4.3c0.1-2.9-0.1-5-0.3-7c-0.1-1-0.2-2.1-0.3-3.3c0-0.1,0.1-0.3,0.2-0.3c1.9-0.9,3.9-1.6,6-1.9
					c0.9-0.1,2.1-0.2,2.9,0.4c0.2,0,0.7-0.3,1.1-0.5c0.7-0.4,1.2-0.7,1.5-0.6c0.1,0,0.2,0.1,0.3,0.3c0.8,1.8,1.2,4,1.6,6.1
					c0.4,2,0.8,4.1,1.5,5.8c0.4,0,1.6,0,2.4,0c2.7-0.1,2.9-0.1,3.1,0.2c0.3,0.8,0.3,4.4,0.2,5.9c-0.2,5.1-0.5,5.3-0.6,5.4
					C226.6,160.6,222.2,162.2,218.1,162.2z M203.1,152c0.8,1.4,4.5,7.2,11.1,9c5,1.3,10.5,0,16.5-3.9c0.3-1,0.6-8.8,0.3-10.3
					c-0.4,0-1.6,0-2.4,0c-2.7,0.1-2.9,0.1-3.1-0.2c-0.8-1.8-1.2-4-1.6-6.1c-0.4-2-0.8-4.1-1.5-5.7c-0.2,0.1-0.6,0.3-0.9,0.5
					c-0.8,0.5-1.4,0.8-1.9,0.5c-0.6-0.5-1.6-0.4-2.4-0.3c-1.9,0.3-3.8,0.9-5.6,1.8c0.1,1,0.2,2,0.3,3c0.2,2.1,0.4,4.3,0.3,7.4
					c0,0.1-0.1,0.3-0.2,0.3C207.3,149.6,204.1,151.4,203.1,152z M230.6,157.1L230.6,157.1L230.6,157.1z M211.9,147.5L211.9,147.5
					L211.9,147.5z"/>
				<path class="st0" d="M197.6,107.7c0.6,4.2,1.4,8.7,0.3,12.9c-0.6,2.3-0.5,14,8.8,17.3c4.9,1.8,10.6,1.4,15.7-1.7
					c3.5-2.1,7.6-8.6,6.8-15.1c2.9,0.8,5.7-1.1,5.7-3.7c0-1.5-1.6-3.3-3.3-3.3c-1.3,0.1-1.5,0.1-2.5,0.9c-0.7-3-1.1-6.1-1.1-9.6
					c-3.2-3.6-8.5-5.4-13.7-6.2c-1.7-0.3-3.5-0.4-5.2-0.2C204.1,99.8,197,103.4,197.6,107.7z"/>
				<path class="st3" d="M212.8,139.4c-2.1,0-4.2-0.4-6.2-1.1c-9.4-3.3-9.8-15-9.1-17.8c0.9-3.6,0.4-7.5-0.1-11.2
					c-0.1-0.5-0.1-1-0.2-1.6l0,0c-0.2-1.2,0.2-2.5,1.1-3.6c2.2-2.9,7.2-4.9,10.8-5.4c1.9-0.2,3.9,0,5.3,0.2
					c4.3,0.6,10.2,2.3,13.9,6.3c0.1,0.1,0.1,0.2,0.1,0.3c0,3,0.2,5.8,0.9,9c0.7-0.5,1.1-0.5,2.3-0.6c0.9,0,1.8,0.3,2.5,1.1
					c0.8,0.7,1.2,1.7,1.2,2.6c0,1.3-0.6,2.4-1.7,3.2c-1.1,0.8-2.5,1.2-3.9,0.9c0.6,6.6-3.6,12.8-7,14.9
					C219.5,138.5,216.2,139.4,212.8,139.4z M197.9,107.7c0.1,0.5,0.1,1,0.2,1.5c0.5,3.8,1.1,7.7,0.1,11.5
					c-0.4,1.6-0.9,13.5,8.6,16.9c5.1,1.8,10.6,1.2,15.4-1.7c3.2-2,7.5-8.3,6.6-14.7c0-0.1,0-0.2,0.1-0.3c0.1-0.1,0.2-0.1,0.3-0.1
					c1.3,0.4,2.8,0.1,3.8-0.7c0.9-0.7,1.4-1.6,1.4-2.7c0-0.7-0.4-1.4-1-2c-0.6-0.6-1.3-0.9-2-0.8c-1.3,0.1-1.4,0.1-2.3,0.8
					c-0.1,0.1-0.2,0.1-0.3,0.1c-0.1,0-0.2-0.1-0.2-0.3c-0.8-3.4-1.1-6.4-1.1-9.5c-3.5-3.8-9.2-5.3-13.3-6c-1.4-0.2-3.3-0.4-5.1-0.2
					c-3.4,0.4-8.2,2.4-10.3,5.1C198.1,105.6,197.8,106.7,197.9,107.7L197.9,107.7z"/>
				<path class="st3" d="M218.1,124.9c-1.4,0-2.7-0.5-3.8-1.5c-1.3-1.1-2.1-2.7-2.4-4.5c-0.5-3.7,1.9-7,5.2-7.5
					c1.6-0.2,3.2,0.3,4.6,1.4c1.3,1.1,2.1,2.7,2.4,4.5l0,0c0.2,1.8-0.2,3.5-1.2,4.9c-1,1.4-2.4,2.3-4,2.5
					C218.5,124.9,218.3,124.9,218.1,124.9z"/>
				<path class="st3" d="M201.1,125.7c-1.4,0-2.7-0.5-3.8-1.5c-1.3-1.1-2.1-2.7-2.4-4.5c-0.5-3.7,1.9-7,5.2-7.5
					c3.3-0.4,6.4,2.2,6.9,5.9c0.2,1.8-0.2,3.5-1.2,4.9c-1,1.4-2.4,2.3-4,2.5C201.6,125.7,201.3,125.7,201.1,125.7z"/>
				
					<ellipse transform="matrix(0.9995 -3.266964e-02 3.266964e-02 0.9995 -2.657 7.3192)" class="st3" cx="222.6" cy="85" rx="10.8" ry="10.8"/>
				<path class="st3" d="M228.7,115.6c-2.7-4.3-4.4-7.3-5.3-12.5c-10.1,6-19.7,6.9-29.4,6.6c-0.2-1.6,0.1-5.3,0.8-6.9
					c1.7-3.8,3.8-7.1,9.6-9.8c4.1-1.8,9.6-3.1,14.1-2.4c4.4,0.6,8.2,3,11.3,5.9c2.5,2.3,4.5,6,5.3,9.7c0.6,3.2-0.1,5.5-1.6,8.7
					c-0.8-0.4-1.5-0.9-2.5-0.7C230.1,114.4,229.5,114.9,228.7,115.6z"/>
				<path class="st3" d="M206.4,117.2c-0.2,0-0.4-0.2-0.4-0.4c0-0.9,0.9-1.6,1.8-1.8c1.5-0.4,3.2,0,4.3,1c0.2,0.1,0.2,0.4,0,0.5
					c-0.1,0.2-0.4,0.2-0.5,0c-1-0.8-2.4-1.2-3.7-0.8c-0.6,0.2-1.3,0.6-1.3,1.1C206.8,117.1,206.6,117.2,206.4,117.2
					C206.4,117.2,206.4,117.2,206.4,117.2z"/>
				<path class="st3" d="M223.3,115.6c-0.2,0-0.4-0.2-0.4-0.4c0-0.2,0.2-0.4,0.4-0.4l5,0c0,0,0,0,0,0c0.2,0,0.4,0.2,0.4,0.4
					c0,0.2-0.2,0.4-0.4,0.4L223.3,115.6C223.3,115.6,223.3,115.6,223.3,115.6z"/>
				<path class="st3" d="M229.2,119.1C229.2,119.1,229.2,119.1,229.2,119.1c-0.2,0-0.4-0.2-0.4-0.4c0-1.2-0.2-2.5-0.7-3.6
					c-0.1-0.2,0-0.4,0.2-0.5c0.2-0.1,0.4,0,0.5,0.2c0.5,1.2,0.8,2.6,0.8,3.9C229.5,118.9,229.4,119.1,229.2,119.1z"/>
				<path class="st3" d="M265.8,186.6c-4.4-12.1-6.9-24-17.3-32.7c-5-4.2-11-7.1-18-7.6c-0.4,6.7-8.3,11.2-12.4,11.7
					c-2.3,0.3-10.8,1.4-10.8-8.6c-2.8,1.1-12,2.2-15.7,13.6c-1.5,4.6-4.2,22.4-13.1,32.7c-2.1,2.4-4.1-13.7-7.1-12.7
					c-3,1.1-6.4,2.8-6.6,6c-0.2,2.5,1.8,4.6,4.1,5.6c4.9,2.1,6.7,12.2,11.9,12.9c5.4,0.8,14.1,2.8,20.7-17.8c3.4,3.4,5.5,7,9.3,9
					c10.9,5.9,47,12.4,52.9,13.5c0.5,0.1,1.6-0.3,1.8-0.8C266.7,208.5,270,198,265.8,186.6z"/>
				<path class="st0" d="M263.8,212.5c-0.1,0-0.1,0-0.2,0c-7-1.2-42.2-7.7-53-13.5c-2.6-1.4-4.5-3.6-6.4-5.8
					c-0.8-0.9-1.6-1.9-2.5-2.8c-2.8,8.5-6.2,13.9-10.4,16.3c-3.7,2.1-7.2,1.6-10,1.2c-0.2,0-0.4-0.1-0.6-0.1c-3-0.4-4.9-3.6-6.7-6.7
					c-1.5-2.6-3.1-5.3-5.3-6.2c-2.3-1-4.5-3.2-4.3-5.9c0.2-2.7,2.4-4.7,6.9-6.3c0.3-0.1,0.7-0.1,1,0.1c1.4,0.7,2.5,4.1,3.5,7.4
					c0.7,2.2,1.6,5.3,2.3,5.4c0.1,0,0.1-0.1,0.2-0.1c7.1-8.2,10.3-21.3,12-28.4c0.4-1.8,0.8-3.2,1.1-4.2c3.2-10,10.8-12.2,14.4-13.3
					c0.6-0.2,1.1-0.3,1.5-0.5c0.1,0,0.2,0,0.3,0c0.1,0.1,0.2,0.2,0.2,0.3c0,3,0.8,5.3,2.4,6.7c2.5,2.2,6.4,1.8,7.9,1.6l0.1,0
					c4-0.5,11.7-4.8,12.1-11.3c0-0.1,0.1-0.2,0.1-0.3c0.1-0.1,0.2-0.1,0.3-0.1c6.5,0.4,12.6,3,18.2,7.7c8.7,7.3,11.9,16.6,15.2,26.6
					c0.7,2.1,1.4,4.2,2.2,6.3l0,0c3.8,10.3,1.6,20.6-0.3,25C265.6,212.1,264.5,212.5,263.8,212.5z M201.5,189.3c0.1,0,0.2,0,0.3,0.1
					c1.1,1.1,2.1,2.2,3,3.3c1.9,2.2,3.7,4.3,6.2,5.7c10.7,5.8,45.9,12.2,52.8,13.4c0.4,0.1,1.3-0.3,1.4-0.6
					c0.2-0.5,4.9-11.8,0.3-24.5c-0.8-2.1-1.5-4.3-2.2-6.3c-3.3-9.8-6.5-19.1-15-26.2c-5.4-4.5-11.2-7-17.4-7.5
					c-0.4,3.7-2.9,6.4-4.9,8.1c-2.4,1.9-5.4,3.3-7.8,3.6l-0.1,0c-1.6,0.2-5.7,0.7-8.5-1.8c-1.6-1.5-2.5-3.7-2.6-6.7
					c-0.3,0.1-0.7,0.2-1,0.3c-3.8,1.1-10.8,3.3-13.9,12.9c-0.3,0.9-0.6,2.3-1.1,4.1c-1.7,7.1-4.9,20.4-12.1,28.7
					c-0.3,0.4-0.7,0.4-0.9,0.4c-1-0.2-1.7-2.3-2.8-5.9c-0.9-2.9-2-6.4-3.1-7c-0.1-0.1-0.3-0.1-0.4,0c-4.1,1.5-6.2,3.3-6.4,5.7
					c-0.2,2.4,1.9,4.3,3.9,5.2c2.4,1,4,3.8,5.6,6.5c1.8,3.1,3.6,6,6.2,6.4c0.2,0,0.4,0.1,0.6,0.1c5.4,0.8,13.5,2,19.7-17.6
					C201.2,189.4,201.3,189.3,201.5,189.3C201.4,189.3,201.5,189.3,201.5,189.3z"/>
				<path class="st0" d="M252.8,198.3c-9.9-0.6-19.9-1.2-29.9-1.9c-0.9-0.1-5.3-0.8-6.4-0.9c-0.9-0.1-1.8-0.5-2.7-0.9
					c-3-1.4-9.3-4.1-10.8-3.3c-3.3,1-6.2,3.3-8.6,6.3c-1.3,1.7-2.4,4.5-1.8,4.9c0.3,0.3,0.9,0.4,1.2,0.1c1.5-3.3,4.3-6,7.6-7.6
					c-1.5,0.9-3,1.9-4.3,3.1c-1.3,1.2-2.5,2.7-2.8,4.5c0,0.1,0,0.3,0,0.4c0.2,0.3,0.6,0.1,0.9-0.1c0.5-0.4,7.4-6,8.6-5.8
					c-1.7,0.6-7.7,5.5-7.8,6.1c0,0.2,0,0.5,0.2,0.7c0.2,0.3,0.6,0.4,0.9,0.3c0.3-0.1,0.6-0.2,0.9-0.4c2-1.2,3.7-2.7,5.8-3.5
					c1.1-0.4,2.3-0.7,3.3,0c-1.9,0.7-3.6,1.8-5.1,3.1c-0.2,0.2-0.4,0.5-0.6,0.8c-0.2,0.4-0.5,1-0.2,1.4c0.5,0.6,1,0.3,1.4,0
					c1.8-1.2,3.7-2.2,5.6-2.9c0.6-0.2,1.3-0.4,1.9-0.1c0.5,0.3,2.7,1.7,7.4,2c1.6,0.1,3.1,0.5,5.1,1c26.3,7.3,34.2,10.1,40.5,7.4
					c1.2-0.5,1.7-1.2,1.3-3.3C263.7,203.8,262.6,200.6,252.8,198.3z"/>
				<path class="st3" d="M258.2,214.3c-5,0-12.2-2-25.7-5.8c-2.8-0.8-6.1-1.7-9.6-2.7c-1.9-0.5-3.5-1-5.1-1c-4.4-0.2-6.8-1.5-7.6-2
					c-0.4-0.3-1-0.1-1.5,0.1c-1.9,0.8-3.7,1.7-5.5,2.9l0,0c-0.4,0.3-1.1,0.7-1.8-0.1c-0.6-0.6,0-1.5,0.1-1.8
					c0.2-0.3,0.4-0.6,0.7-0.8c1.3-1.2,2.7-2.1,4.4-2.8c-0.7-0.1-1.5,0.1-2.2,0.4c-1.4,0.6-2.6,1.4-3.9,2.3c-0.6,0.4-1.3,0.9-1.9,1.3
					c-0.3,0.2-0.7,0.4-1.1,0.5c-0.5,0.1-1-0.1-1.3-0.4c-0.2-0.2-0.3-0.6-0.3-1c0-0.1,0-0.2,0.1-0.3c0,0-0.1,0.1-0.1,0.1
					c-0.1,0.1-0.2,0.2-0.2,0.2c-0.2,0.2-0.6,0.4-1,0.3c-0.2,0-0.4-0.1-0.5-0.3c-0.1-0.1-0.1-0.2-0.1-0.3c-0.5,0.3-1.1,0.3-1.6-0.2
					c-0.9-0.8,0.7-4,1.8-5.4c2.5-3.3,5.5-5.5,8.7-6.4c1.7-0.9,8.3,2,11.1,3.3c0.7,0.3,1.6,0.7,2.6,0.8c0.3,0,0.8,0.1,1.4,0.2
					c1.7,0.2,4.3,0.6,5,0.7c9.7,0.7,19.8,1.4,29.9,1.9c0,0,0,0,0.1,0c10,2.4,11.1,5.8,12.2,11.6c0.4,2.1,0,3.1-1.5,3.7
					C262,213.9,260.3,214.3,258.2,214.3z M209.8,201.9c0.3,0,0.6,0.1,0.9,0.2c0.8,0.5,3,1.7,7.3,1.9c1.7,0.1,3.3,0.5,5.2,1.1
					c3.5,1,6.7,1.9,9.6,2.7c18.9,5.3,25.3,7.1,30.7,4.8c1-0.4,1.4-0.9,1-2.9c-1.1-5.7-2.1-8.7-11.7-11c-10.1-0.6-20.1-1.3-29.9-1.9
					c0,0,0,0,0,0c-0.7-0.1-3.3-0.5-5-0.7c-0.6-0.1-1.2-0.2-1.4-0.2c-1.1-0.2-2-0.6-2.8-0.9c-5.3-2.5-9.5-3.8-10.4-3.3c0,0,0,0-0.1,0
					c-3,0.9-6,3.1-8.4,6.2c-1.3,1.7-2.1,4.1-1.9,4.5c0.2,0.2,0.5,0.3,0.7,0.1c1.6-3.3,4.4-6.1,7.8-7.6c0.2-0.1,0.4,0,0.5,0.2
					c0.1,0.2,0,0.4-0.1,0.5c-1.5,0.9-2.9,1.9-4.2,3.1c-1.6,1.5-2.5,2.9-2.7,4.3c0,0.1,0,0.1,0,0.1c0.1,0,0.2-0.1,0.4-0.2
					c0,0,0.1-0.1,0.2-0.2c7.3-5.9,8.3-5.7,8.7-5.7c0.2,0,0.3,0.2,0.3,0.3c0,0.2-0.1,0.3-0.2,0.4c-1.6,0.6-7.1,5-7.5,5.8
					c0,0.2,0,0.3,0.1,0.4c0.1,0.2,0.4,0.2,0.6,0.2c0.3,0,0.5-0.2,0.8-0.4c0.6-0.4,1.3-0.8,1.9-1.2c1.3-0.9,2.6-1.7,4-2.3
					c1-0.4,2.5-0.8,3.6,0c0.1,0.1,0.2,0.2,0.2,0.3c0,0.1-0.1,0.2-0.2,0.3c-1.9,0.7-3.6,1.7-5,3c-0.2,0.2-0.4,0.4-0.5,0.7
					c-0.4,0.7-0.3,0.9-0.2,0.9c0.3,0.3,0.5,0.2,0.9,0l0,0c1.9-1.2,3.7-2.2,5.6-3C208.8,202.1,209.3,201.9,209.8,201.9z"/>
				<path class="st3" d="M187.2,211.1c8.2,0.2,16.5,0.4,24.7,0.5l0-4.2l-27.5-0.7L187.2,211.1z"/>
				<polygon class="st3" points="117,172.8 170.7,173.1 189.2,211.1 136,210.9 				"/>
				<path class="st0" d="M189.2,211.4C189.2,211.4,189.2,211.4,189.2,211.4l-53.2-0.1c-0.1,0-0.3-0.1-0.3-0.2l-19-38.2
					c-0.1-0.1-0.1-0.2,0-0.4c0.1-0.1,0.2-0.2,0.3-0.2c0,0,0,0,0,0l53.7,0.3c0.1,0,0.3,0.1,0.3,0.2l18.5,38c0.1,0.1,0,0.2,0,0.4
					C189.4,211.4,189.3,211.4,189.2,211.4z M136.2,210.6l52.4,0.1l-18.2-37.3l-52.9-0.3L136.2,210.6z"/>
				<path class="st0" d="M246.9,198.3c-0.2,0-0.3-0.1-0.3-0.3c-3.7-11.3-5.9-18.5-5.9-34c0-0.2,0.2-0.4,0.4-0.4
					c0.2,0,0.4,0.2,0.4,0.4c0,15.4,2.1,22.5,5.8,33.8c0.1,0.2,0,0.4-0.2,0.5C247,198.3,247,198.3,246.9,198.3z"/>
				<path class="st0" d="M201.5,190c-0.1,0-0.2-0.1-0.3-0.2c-4.8-6.9-3.5-12-2.3-16.9c0.6-2.5,1.3-5,1.2-7.8c0-0.2,0.2-0.4,0.4-0.4
					c0.2,0,0.4,0.2,0.4,0.4c0.1,2.9-0.6,5.5-1.2,8c-1.3,5-2.5,9.7,2.1,16.3c0.1,0.2,0.1,0.4-0.1,0.5C201.7,190,201.6,190,201.5,190z
					"/>
			</g>
		</g>
	</g>
</g>
</svg>
