<?xml version="1.0" encoding="utf-8"?>
<!-- Generator: Adobe Illustrator 26.5.0, SVG Export Plug-In . SVG Version: 6.00 Build 0)  -->
<svg version="1.1" id="Capa_1" xmlns="http://www.w3.org/2000/svg" xmlns:xlink="http://www.w3.org/1999/xlink" x="0px" y="0px"
	 viewBox="0 0 250 250" style="enable-background:new 0 0 250 250;" xml:space="preserve">
<style type="text/css">
	.st0{fill:#2CB9D8;}
	.st1{fill:#EA6852;}
	.st2{fill:#FFFFFF;}
	.st3{fill:#004D71;}
</style>
<g>
	<circle class="st0" cx="125.5" cy="125" r="125"/>
	<g>
		<g>
			<path class="st1" d="M80.3,75.3c-8.3,0-15-6.7-15-15c0-8.3,6.7-15,15-15c8.3,0,15,6.7,15,15C95.3,68.5,88.6,75.3,80.3,75.3z
				 M80.3,49.6c-5.8,0-10.6,4.7-10.6,10.6c0,5.8,4.7,10.6,10.6,10.6c5.8,0,10.6-4.7,10.6-10.6C90.9,54.4,86.1,49.6,80.3,49.6z"/>
			<path class="st2" d="M66,190.8c-1.2,0-2.2-1-2.2-2.2v-51.2c-1.4,0.8-3,1.3-4.8,1.3h-0.9c-4.3,0-7.7-3.5-7.7-7.7V95.3
				c0-8.6,7-15.6,15.6-15.6c1.2,0,2.2,1,2.2,2.2c0,1.2-1,2.2-2.2,2.2c-6.1,0-11.1,5-11.1,11.1V131c0,1.8,1.5,3.3,3.3,3.3H59
				c2.6,0,4.8-2.1,4.8-4.8V105c0-1.2,1-2.2,2.2-2.2c1.2,0,2.2,1,2.2,2.2v83.6C68.2,189.8,67.2,190.8,66,190.8z"/>
			<path class="st2" d="M80.8,190.8c-1.2,0-2.2-1-2.2-2.2v-55.9c0-1.2,1-2.2,2.2-2.2s2.2,1,2.2,2.2v55.9
				C83,189.8,82,190.8,80.8,190.8z"/>
			<path class="st2" d="M95.5,191.3c-1.2,0-2.2-1-2.2-2.2V96.9c0-1.2,1-2.2,2.2-2.2h7.8c1.2,0,2.2,1,2.2,2.2c0,1.2-1,2.2-2.2,2.2
				h-5.6v90C97.8,190.3,96.8,191.3,95.5,191.3z"/>
		</g>
		<g>
			<path class="st1" d="M170.5,75.3c-8.3,0-15-6.7-15-15c0-8.3,6.7-15,15-15c8.3,0,15,6.7,15,15C185.5,68.5,178.8,75.3,170.5,75.3z
				 M170.5,49.6c-5.8,0-10.6,4.7-10.6,10.6c0,5.8,4.7,10.6,10.6,10.6c5.8,0,10.6-4.7,10.6-10.6C181.1,54.4,176.3,49.6,170.5,49.6z"
				/>
			<path class="st2" d="M184.8,190.8c-1.2,0-2.2-1-2.2-2.2V105c0-1.2,1-2.2,2.2-2.2s2.2,1,2.2,2.2v24.5c0,2.6,2.1,4.8,4.8,4.8h0.9
				c1.8,0,3.3-1.5,3.3-3.3V95.3c0-6.1-5-11.1-11.1-11.1c-1.2,0-2.2-1-2.2-2.2c0-1.2,1-2.2,2.2-2.2c8.6,0,15.6,7,15.6,15.6V131
				c0,4.3-3.5,7.7-7.7,7.7h-0.9c-1.7,0-3.4-0.5-4.8-1.3v51.2C187.1,189.8,186.1,190.8,184.8,190.8z"/>
			<path class="st2" d="M170,190.8c-1.2,0-2.2-1-2.2-2.2v-55.9c0-1.2,1-2.2,2.2-2.2c1.2,0,2.2,1,2.2,2.2v55.9
				C172.2,189.8,171.2,190.8,170,190.8z"/>
			<path class="st2" d="M155.3,191.3c-1.2,0-2.2-1-2.2-2.2v-90h-26c-1.2,0-2.2-1-2.2-2.2c0-1.2,1-2.2,2.2-2.2h28.2
				c1.2,0,2.2,1,2.2,2.2v92.2C157.5,190.3,156.5,191.3,155.3,191.3z"/>
		</g>
		<path class="st2" d="M118.7,84.9H93.6c-1.2,0-2.2-1-2.2-2.2c0-1.2,1-2.2,2.2-2.2h25.2c1.2,0,2.2,1,2.2,2.2
			C121,83.9,120,84.9,118.7,84.9z"/>
		<path class="st2" d="M137,84.9h-9.3c-1.2,0-2.2-1-2.2-2.2c0-1.2,1-2.2,2.2-2.2h9.3c1.2,0,2.2,1,2.2,2.2
			C139.2,83.9,138.2,84.9,137,84.9z"/>
		<path class="st2" d="M118.9,99.1h-8.4c-1.2,0-2.2-1-2.2-2.2c0-1.2,1-2.2,2.2-2.2h8.4c1.2,0,2.2,1,2.2,2.2
			C121.1,98.1,120.1,99.1,118.9,99.1z"/>
		<path class="st2" d="M155.8,84.9h-9.3c-1.2,0-2.2-1-2.2-2.2c0-1.2,1-2.2,2.2-2.2h9.3c1.2,0,2.2,1,2.2,2.2
			C158,83.9,157,84.9,155.8,84.9z"/>
		<path class="st3" d="M209.3,191.4H41.7c-1.2,0-2.2-1-2.2-2.2s1-2.2,2.2-2.2h167.6c1.2,0,2.2,1,2.2,2.2S210.5,191.4,209.3,191.4z"
			/>
		<path class="st3" d="M197.6,204.8H52c-1.2,0-2.2-1-2.2-2.2s1-2.2,2.2-2.2h145.6c1.2,0,2.2,1,2.2,2.2S198.8,204.8,197.6,204.8z"/>
	</g>
</g>
</svg>
