<?xml version="1.0" encoding="utf-8"?>
<!-- Generator: Adobe Illustrator 26.5.0, SVG Export Plug-In . SVG Version: 6.00 Build 0)  -->
<svg version="1.1" id="Capa_1" xmlns="http://www.w3.org/2000/svg" xmlns:xlink="http://www.w3.org/1999/xlink" x="0px" y="0px"
	 viewBox="0 0 286 106.4" style="enable-background:new 0 0 286 106.4;" xml:space="preserve">
<style type="text/css">
	.st0{fill:#FFFFFF;}
	.st1{fill:#00C1DE;}
</style>
<g>
	<g>
		<path class="st0" d="M34.3,106.2L34.3,106.2c1.5,0.1,3.1,0.2,4.7,0.2c1.6,0,3.2-0.1,4.7-0.2c3.3-0.2,6.3-0.7,9.2-1.5
			c2.3-0.6,4.5-1.4,6.6-2.4c1.6-0.8,3.1-1.6,4.5-2.6l0.1-0.1l0,0l0,0c0.3-0.2,0.6-0.4,0.8-0.6c0.3-0.2,0.5-0.4,0.8-0.7
			c0.8-0.7,1.6-1.4,2.3-2.2c6.6-6.8,9.8-16.4,9.8-28.9l-18.6,13l-6.6,4.6L48,88l0,0c-0.5,0.3-1,0.5-1.6,0.5c-1.7,0-3-1.3-3-3
			c0-1,0.5-1.9,1.3-2.5l0,0l2.5-1.8l0,0l5.4-3.8l6.6-4.6L74,62.4l0,0c2.3-1.6,3.7-4.2,3.7-7.2V38.9c0-0.5,0-1,0-1.5
			c-0.2-7.7-1.6-14.2-4.4-19.6c-1.5-2.9-3.3-5.5-5.5-7.7C65.6,7.8,63,5.9,60,4.4c-0.3-0.2-0.6-0.3-0.9-0.5v41.5c0,3-1.4,5.8-3.7,7.5
			c0,0-0.1,0-0.1,0.1l-0.5,0.4l0,0l-2.2,1.5l-9.2,6.4L35,67.4l-0.7,0.5l-2.9,2l-2.3,1.6c-2.4,1.7-4,4.5-4,7.7v17.3
			C25.1,101.8,29.2,106,34.3,106.2z"/>
		<path class="st1" d="M43.6,0.2L43.6,0.2C42.1,0.1,40.6,0,39,0s-3.2,0.1-4.7,0.2C31,0.4,28,0.9,25.1,1.7C22.8,2.2,20.6,3,18.6,4
			c-1.6,0.8-3.1,1.6-4.5,2.6L14,6.7l0,0l0,0c-0.5,0.3-0.7,0.5-1,0.7s-0.5,0.4-0.8,0.7c-0.8,0.7-1.6,1.4-2.3,2.2
			C3.3,16.9,0,26.6,0,39.1l18.6-13l6.6-4.6l4.6-3.2l0,0c0.5-0.3,1-0.5,1.6-0.5c1.7,0,3,1.3,3,3c0,1-0.5,1.9-1.3,2.5l0,0l-2.5,1.8
			l0,0l-5.4,3.8l-6.6,4.6L3.7,43.8l0,0C1.5,45.4,0,48,0,51v16.6c0,0.5,0,1,0,1.5c0.2,7.7,1.6,14.2,4.4,19.6c1.5,2.9,3.3,5.5,5.5,7.7
			c2.2,2.3,4.8,4.2,7.8,5.7c0.3,0.2,0.6,0.3,0.9,0.5V60.9c0-3,1.4-5.8,3.7-7.5c0,0,0.1,0,0.1-0.1l0.5-0.4l0,0l2.2-1.5l9.2-6.4
			l8.7-6.1l0.7-0.5l2.9-2l2.3-1.6c2.4-1.7,4-4.5,4-7.7V9.8C52.8,4.6,48.8,0.4,43.6,0.2z"/>
	</g>
	<g>
		<g>
			<path class="st0" d="M111.4,33c0-2.2-0.6-3.9-1.9-5.2c-1.3-1.2-3.2-1.8-5.9-1.8h-4.5h-1.4h-3v22.1h4.5v-6.7h4.5
				c2.7,0,4.7-0.6,5.9-1.8c1.3-1.2,1.9-2.9,1.9-5.2L111.4,33L111.4,33z M106.9,34.4c0,1.1-0.3,2-0.8,2.5c-0.6,0.6-1.5,0.9-2.7,0.9
				h-4.2v-8.1h4.2c1.2,0,2.1,0.3,2.7,0.9s0.8,1.4,0.8,2.6V34.4z"/>
			<path class="st0" d="M117.8,26.1l-6.5,22.1h4.6l1.5-5.6h7.7l1.5,5.6h4.6l-6.5-22.1H117.8z M118.4,38.9l2.7-9.9h0.4l2.7,9.9H118.4
				z"/>
			<path class="st0" d="M146.9,36.2V36c1.4-0.1,2.4-0.6,3.1-1.3c0.7-0.7,1-1.7,1-3.1v-0.3c0-1.7-0.6-3.1-1.7-4
				c-1.1-0.9-3-1.4-5.5-1.4h-5.3h-1.3H134V48h3.2h1.2h5.5c2.6,0,4.5-0.5,5.6-1.6c1.2-1.1,1.8-2.6,1.8-4.6v-0.6
				c0-1.5-0.4-2.7-1.1-3.6C149.6,37,148.4,36.5,146.9,36.2z M143.2,29.6c1.2,0,2,0.2,2.5,0.7s0.7,1.1,0.7,2v0.2c0,0.9-0.2,1.5-0.7,2
				s-1.3,0.7-2.4,0.7h-4.8v-5.6C138.5,29.6,143.2,29.6,143.2,29.6z M146.7,41.8c0,0.9-0.3,1.6-0.8,2.1s-1.4,0.7-2.6,0.7h-5v-6h4.9
				c1.2,0,2.1,0.2,2.6,0.7s0.8,1.2,0.8,2.1v0.4H146.7z"/>
			<polygon class="st0" points="159.3,26.1 154.8,26.1 154.8,48.2 157.3,48.2 159.3,48.2 168.9,48.2 168.9,44.4 159.3,44.4 			"/>
			<path class="st0" d="M179.8,25.6c-3.1,0-5.4,0.8-6.9,2.4c-1.6,1.6-2.3,3.9-2.3,6.9v4.5c0,3,0.8,5.3,2.3,6.9
				c1.6,1.6,3.9,2.4,6.9,2.4c3.1,0,5.4-0.8,6.9-2.4c1.6-1.6,2.3-3.9,2.3-6.9v-4.5c0-3-0.8-5.3-2.3-6.9
				C185.2,26.4,182.9,25.6,179.8,25.6z M184.5,39.6c0,1.7-0.4,3-1.2,3.9s-1.9,1.4-3.5,1.4c-1.5,0-2.7-0.5-3.5-1.4s-1.2-2.2-1.2-3.9
				v-4.9c0-1.7,0.4-3.1,1.2-4s1.9-1.4,3.5-1.4s2.7,0.5,3.5,1.4s1.2,2.3,1.2,4V39.6z"/>
			<path class="st0" d="M209.8,25.6c-3.1,0-5.4,0.8-6.9,2.4c-1.6,1.6-2.3,3.9-2.3,6.9v4.5c0,3,0.8,5.3,2.3,6.9
				c1.6,1.6,3.9,2.4,6.9,2.4c3.1,0,5.4-0.8,6.9-2.4c1.6-1.6,2.3-3.9,2.3-6.9v-4.5c0-3-0.8-5.3-2.3-6.9
				C215.2,26.4,212.8,25.6,209.8,25.6z M214.4,39.6c0,1.7-0.4,3-1.2,3.9s-1.9,1.4-3.5,1.4c-1.5,0-2.7-0.5-3.5-1.4s-1.2-2.2-1.2-3.9
				v-4.9c0-1.7,0.4-3.1,1.2-4s1.9-1.4,3.5-1.4s2.7,0.5,3.5,1.4s1.2,2.3,1.2,4V39.6z"/>
			<path class="st0" d="M238.6,40.3c-0.3-0.8-0.9-1.5-1.6-1.9c-0.5-0.3-1.1-0.5-1.8-0.7v-0.2c1.5-0.2,2.7-0.7,3.4-1.5
				c0.7-0.9,1.1-2,1.1-3.5V32c0-1.9-0.6-3.4-1.8-4.5s-3.1-1.6-5.7-1.6h-5h-1.3h-3.1V48h4.5v-7.9h4c0.9,0,1.5,0.1,2,0.4
				c0.5,0.3,0.8,0.7,1.1,1.2c0.2,0.5,0.4,1.2,0.5,1.9l0.5,4.3h4.7l-0.7-4.8C239.2,42.2,238.9,41.1,238.6,40.3z M231.6,36.8h-4.3
				v-7.1h4.3c1.3,0,2.2,0.3,2.7,0.8c0.5,0.6,0.8,1.4,0.8,2.5v0.4c0,1.1-0.3,1.9-0.8,2.5C233.7,36.5,232.8,36.8,231.6,36.8z"/>
			<polygon class="st0" points="241.7,29.8 248,29.8 248,48.2 252.6,48.2 252.6,29.8 258.8,29.8 258.8,26.1 241.7,26.1 			"/>
			<rect x="262" y="26.1" class="st0" width="4.6" height="22.1"/>
			<polygon class="st0" points="275.3,44.4 285.8,29.6 285.8,26.1 270.2,26.1 270.2,29.8 280.6,29.8 270,44.6 270,48.2 286,48.2 
				286,44.4 			"/>
		</g>
		<g>
			<path class="st0" d="M100.3,75.4c-1.8,0-3.2-0.5-4.2-1.6s-1.4-2.7-1.4-4.8v-2.7c0-2.1,0.5-3.7,1.4-4.8c1-1.1,2.4-1.6,4.2-1.6
				c1,0,1.9,0.2,2.6,0.6c0.8,0.4,1.4,0.9,1.8,1.6c0.5,0.7,0.7,1.5,0.8,2.4h0.4l-0.5,1.1c-0.1-1-0.3-1.9-0.8-2.6
				c-0.4-0.7-1-1.2-1.8-1.6s-1.5-0.5-2.4-0.5c-1.5,0-2.7,0.4-3.5,1.3c-0.8,0.9-1.2,2.2-1.2,4V69c0,1.7,0.4,3.1,1.2,4
				c0.8,0.9,2,1.4,3.5,1.4c0.9,0,1.7-0.2,2.4-0.5c0.7-0.4,1.3-0.9,1.7-1.5c0.4-0.6,0.7-1.4,0.9-2.2l0.4,1h-0.4
				c-0.1,0.8-0.4,1.5-0.8,2.2s-1,1.2-1.8,1.6C102.2,75.2,101.3,75.4,100.3,75.4z M106.7,75.1h-1.2l0.1-3.9v-0.4v-6.3v-0.4l-0.1-4.2
				v-5.1h1.2V75.1z"/>
			<path class="st0" d="M123,75.4c-2,0-3.5-0.5-4.6-1.6c-1.1-1-1.6-2.5-1.6-4.5v-3.2c0-2.1,0.5-3.6,1.5-4.7c1-1.1,2.4-1.6,4.3-1.6
				c1.3,0,2.3,0.2,3.2,0.7c0.9,0.5,1.5,1.2,2,2.1c0.4,0.9,0.7,2,0.7,3.3v0.5c0,0.3,0,0.5,0,0.8s0,0.5-0.1,0.8h-1.1
				c0-0.4,0-0.8,0-1.2c0-0.4,0-0.7,0-1c0-1.1-0.2-2.1-0.5-2.8c-0.4-0.8-0.9-1.4-1.6-1.8c-0.7-0.4-1.5-0.6-2.6-0.6
				c-1.5,0-2.7,0.4-3.4,1.3c-0.8,0.9-1.2,2.2-1.2,3.9v1.5v0.2v1.7c0,0.8,0.1,1.5,0.3,2.1c0.2,0.6,0.6,1.1,1,1.5s1,0.7,1.6,1
				c0.6,0.2,1.4,0.3,2.2,0.3c1,0,1.9-0.1,2.7-0.4c0.8-0.3,1.6-0.7,2.3-1.2l-0.1,1.2c-0.6,0.5-1.4,0.8-2.2,1.1
				C125,75.3,124.1,75.4,123,75.4z M128.1,68.2h-10.6v-1h10.6V68.2z"/>
			<path class="st0" d="M142.7,75.4c-1.2,0-2.2-0.1-3.1-0.4c-0.9-0.3-1.6-0.6-2.1-0.9l-0.2-1.2c0.7,0.4,1.5,0.8,2.4,1.1
				c0.9,0.3,1.8,0.4,3,0.4c1.3,0,2.3-0.2,3.1-0.7c0.7-0.5,1.1-1.2,1.1-2.2v-0.2c0-0.6-0.1-1.1-0.4-1.5c-0.2-0.4-0.7-0.7-1.3-1
				s-1.5-0.5-2.7-0.8c-1.3-0.2-2.2-0.5-3-0.9c-0.7-0.3-1.2-0.8-1.5-1.3s-0.5-1.2-0.5-2v-0.1c0-1.2,0.4-2.1,1.3-2.7
				c0.8-0.6,2.1-1,3.8-1c1.2,0,2.1,0.1,3,0.4c0.8,0.3,1.5,0.6,2,1l0.1,1.1c-0.6-0.4-1.4-0.8-2.2-1.1s-1.8-0.4-2.9-0.4
				c-0.9,0-1.6,0.1-2.2,0.3c-0.6,0.2-1,0.5-1.3,0.9s-0.4,0.9-0.4,1.4v0.1c0,0.6,0.1,1.1,0.4,1.5c0.3,0.4,0.7,0.7,1.3,1
				s1.5,0.5,2.6,0.7c1.3,0.2,2.3,0.5,3.1,0.9s1.3,0.8,1.6,1.3s0.5,1.2,0.5,2v0.3c0,1.3-0.5,2.3-1.4,2.9
				C145.7,75.1,144.4,75.4,142.7,75.4z"/>
			<path class="st0" d="M158.3,57.2c-0.3,0-0.6-0.1-0.7-0.3c-0.2-0.2-0.2-0.4-0.2-0.8V56c0-0.3,0.1-0.6,0.2-0.8
				c0.2-0.2,0.4-0.3,0.7-0.3s0.5,0.1,0.7,0.3s0.2,0.4,0.2,0.8v0.1c0,0.4-0.1,0.6-0.2,0.8C158.9,57.1,158.6,57.2,158.3,57.2z
				 M158.9,75.1h-1.2V60.2h1.2V75.1z"/>
			<path class="st0" d="M175.3,80.8H175c-1.3,0-2.4-0.1-3.3-0.3c-0.9-0.2-1.7-0.6-2.2-1.1s-0.8-1.2-0.8-2v-0.1
				c0-0.7,0.2-1.2,0.5-1.7c0.4-0.4,0.8-0.8,1.4-1c0.6-0.2,1.3-0.4,2-0.5l0,0c-1.1-0.1-1.8-0.3-2.3-0.7c-0.5-0.3-0.7-0.8-0.7-1.4l0,0
				c0-0.4,0.1-0.7,0.3-1s0.5-0.5,0.9-0.6c0.4-0.2,0.9-0.2,1.5-0.2V70l2.1,0.6h-1.2c-0.9,0-1.6,0.1-1.9,0.3c-0.4,0.2-0.5,0.5-0.5,0.9
				l0,0c0,0.4,0.2,0.8,0.7,1s1.3,0.4,2.4,0.5l3.6,0.3c1.5,0.1,2.6,0.5,3.3,1c0.7,0.6,1,1.3,1,2.3V77c0,0.9-0.3,1.5-0.8,2.1
				c-0.5,0.5-1.3,0.9-2.2,1.1C177.7,80.7,176.6,80.8,175.3,80.8z M175.1,70.8c-1.9,0-3.3-0.4-4.3-1.3s-1.5-2.1-1.5-3.8V65
				c0-1,0.2-1.9,0.6-2.6c0.4-0.8,1-1.4,1.9-1.8c0.8-0.4,2-0.7,3.3-0.7l7.2-0.2v1l-5.3-0.1l0,0c1,0.1,1.7,0.4,2.3,0.8
				c0.6,0.4,1,0.9,1.2,1.5c0.3,0.6,0.4,1.3,0.4,2.1v0.7c0,1.6-0.5,2.9-1.5,3.7C178.4,70.4,177,70.8,175.1,70.8z M175,79.8h0.3
				c1,0,2-0.1,2.7-0.3c0.8-0.2,1.4-0.4,1.8-0.8c0.4-0.4,0.7-0.9,0.7-1.5v-0.1c0-0.7-0.3-1.3-0.8-1.7c-0.5-0.4-1.4-0.7-2.6-0.7
				l-4-0.3h0.6c-0.8,0.1-1.4,0.3-2,0.5s-1,0.5-1.4,0.9c-0.3,0.4-0.5,0.8-0.5,1.4l0,0c0,0.7,0.2,1.2,0.7,1.6c0.4,0.4,1,0.6,1.8,0.8
				C173.1,79.7,174,79.8,175,79.8z M175.1,69.9c1,0,1.9-0.2,2.5-0.5c0.7-0.3,1.2-0.8,1.5-1.4s0.5-1.4,0.5-2.3V65
				c0-0.9-0.2-1.6-0.5-2.2c-0.3-0.6-0.8-1.1-1.5-1.4c-0.7-0.3-1.5-0.5-2.5-0.5H175c-1.1,0-2,0.2-2.7,0.5c-0.7,0.4-1.2,0.8-1.5,1.5
				c-0.3,0.6-0.5,1.3-0.5,2.1v0.7c0,0.9,0.2,1.7,0.5,2.3c0.3,0.6,0.9,1.1,1.6,1.4C173.2,69.7,174.1,69.9,175.1,69.9z"/>
			<path class="st0" d="M192.4,75.1h-1.2V60.2h1.2l-0.1,3.8h0.1V75.1z M202.6,75.1h-1.2v-9.4c0-1-0.1-1.8-0.4-2.5
				c-0.3-0.7-0.7-1.2-1.3-1.6c-0.6-0.4-1.4-0.6-2.4-0.6c-0.9,0-1.7,0.2-2.4,0.6c-0.7,0.4-1.3,0.9-1.7,1.5s-0.7,1.4-0.8,2.2l-0.3-1
				h0.3c0.1-0.8,0.4-1.5,0.8-2.1c0.4-0.7,1-1.2,1.8-1.6c0.8-0.4,1.7-0.6,2.7-0.6c1.2,0,2.2,0.2,2.9,0.7s1.3,1.1,1.6,1.9
				c0.3,0.8,0.5,1.9,0.5,3v9.5C202.7,75.1,202.6,75.1,202.6,75.1z"/>
			<path class="st0" d="M218.7,75.4c-2,0-3.5-0.5-4.6-1.6c-1.1-1-1.6-2.5-1.6-4.5v-3.2c0-2.1,0.5-3.6,1.5-4.7c1-1.1,2.4-1.6,4.3-1.6
				c1.3,0,2.3,0.2,3.2,0.7s1.5,1.2,2,2.1c0.4,0.9,0.7,2,0.7,3.3v0.5c0,0.3,0,0.5,0,0.8s0,0.5-0.1,0.8H223c0-0.4,0-0.8,0-1.2
				c0-0.4,0-0.7,0-1c0-1.1-0.2-2.1-0.5-2.8c-0.4-0.8-0.9-1.4-1.6-1.8c-0.7-0.4-1.5-0.6-2.6-0.6c-1.5,0-2.7,0.4-3.4,1.3
				c-0.8,0.9-1.2,2.2-1.2,3.9v1.5v0.2v1.7c0,0.8,0.1,1.5,0.3,2.1s0.6,1.1,1,1.5s1,0.7,1.6,1c0.6,0.2,1.4,0.3,2.2,0.3
				c1,0,1.9-0.1,2.7-0.4s1.6-0.7,2.3-1.2l-0.1,1.2c-0.6,0.5-1.4,0.8-2.2,1.1C220.7,75.3,219.8,75.4,218.7,75.4z M223.8,68.2h-10.6
				v-1h10.6V68.2z"/>
			<path class="st0" d="M235.3,75.1h-1.2V60.2h1.2l-0.1,4.6l0.1,0.1V75.1z M235.2,65.8l-0.4-0.9l0.3-0.1c0.3-1.5,1-2.6,1.9-3.5
				s2.1-1.3,3.5-1.3c0.4,0,0.8,0,1.1,0.1s0.6,0.1,0.8,0.2l0.1,1.2c-0.3-0.1-0.6-0.2-0.9-0.3c-0.3-0.1-0.7-0.1-1.1-0.1
				c-1.2,0-2.3,0.4-3.2,1.2C236.3,63.1,235.6,64.3,235.2,65.8z"/>
		</g>
	</g>
</g>
</svg>
